<?xml version="1.0" encoding="utf-8"?>
<svg id="Layout" viewBox="0 2.667 103.02 12.662" xmlns="http://www.w3.org/2000/svg">
  <defs>
    <style>
      .cls-1 {
        fill: #f42c04;
      }
    </style>
  </defs>
  <path class="cls-1" d="m11.54,15.3h-2.95l-3.98-6.7-1.73,1.66v3.62c0,.85.25,1.21.86,1.21v.22H.72v-.22c.61,0,.86-.36.86-1.21V4.12c0-.85-.25-1.21-.86-1.21v-.22h3.02v.22c-.61,0-.86.36-.86,1.21v5.74l4.72-4.54c1.13-1.1,1.53-2.38-.4-2.38h-.54v-.25h3.83v.25l-5.28,5.08,3.98,5.47c.94,1.28,1.48,1.57,2.34,1.58v.22Z" style="fill: rgb(0, 0, 0);"/>
  <path class="cls-1" d="m14.01,13.07l4.05-10.62h.52l5.06,11.9c.22.52.61.74,1.1.74v.22h-3.1v-.22c.58,0,.77-.36.47-1.1l-1.19-2.88-5.89.09-.77,2.02c-.67,1.75.32,1.87.86,1.87v.22h-3.08v-.22c.7,0,1.3-.27,1.96-2.02Zm2.79-2.63l4.02.41-2.72-6.55c-.13-.32-.31-.32-.43,0l-2.02,5.29c-.23.61.25.76,1.15.85Z" style="fill: rgb(0, 0, 0);"/>
  <path class="cls-1" d="m28.23,13.88V2.95h-.83c-1.86,0-3.15.76-3.8,1.94l-.2-.04.72-2.16h9.51l.72,2.16-.2.04c-.65-1.19-1.95-1.94-3.8-1.94h-.83v10.93c0,.85.25,1.21.86,1.21v.22h-3.02v-.22c.61,0,.86-.36.86-1.21Z" style="fill: rgb(0, 0, 0);"/>
  <path class="cls-1" d="m44.46,13.88v-5.09l.23.02v.22l-7.44.27v4.59c0,.85.25,1.21.86,1.21v.22h-3.02v-.22c.61,0,.86-.36.86-1.21V4.12c0-.85-.25-1.21-.86-1.21v-.22h3.02v.22c-.61,0-.86.36-.86,1.21v3.26c0,.9.43,1.12,1.42,1.15l5.78.25v-4.66c0-.85-.25-1.21-.86-1.21v-.22h3.03v.22c-.61,0-.87.36-.87,1.21v9.76c0,.85.25,1.21.87,1.21v.22h-3.03v-.22c.61,0,.86-.36.86-1.21Z" style="fill: rgb(0, 0, 0);"/>
  <path class="cls-1" d="m49.54,13.07l4.05-10.62h.52l5.06,11.9c.22.52.61.74,1.1.74v.22h-3.1v-.22c.58,0,.77-.36.47-1.1l-1.19-2.88-5.89.09-.77,2.02c-.67,1.75.32,1.87.86,1.87v.22h-3.08v-.22c.7,0,1.3-.27,1.96-2.02Zm2.79-2.63l4.02.41-2.72-6.55c-.13-.32-.31-.32-.43,0l-2.02,5.29c-.23.61.25.76,1.15.85Z" style="fill: rgb(0, 0, 0);"/>
  <path class="cls-1" d="m62.08,13.88V4.95c0-.79.11-1.12.52-1.44l.58-.45c.34-.27.7-.36,1.3-.36h1.87c3.17,0,4.74,1.67,4.74,3.56s-1.57,3.82-5.1,3.82h-.11l3.31,3.42c1.13,1.17,1.66,1.57,2.52,1.58v.22h-3.04l-5.29-7.33v5.91c0,.85.25,1.21.86,1.21v.22h-3.03v-.22c.61,0,.87-.36.87-1.21Zm3.55-4.05h.05c3.04,0,3.89-1.78,3.89-3.55s-1.1-3.33-3.22-3.33h-1.03c-1.4,0-1.94.54-1.94,1.91v2.65l2.25,2.32Z" style="fill: rgb(0, 0, 0);"/>
  <path class="cls-1" d="m73.72,13.88V4.12c0-.85-.25-1.21-.86-1.21v-.22h3.02v.22c-.61,0-.86.36-.86,1.21v9.76c0,.85.25,1.21.86,1.21v.22h-3.02v-.22c.61,0,.86-.36.86-1.21Z" style="fill: rgb(0, 0, 0);"/>
  <path class="cls-1" d="m78.08,13.88V4.12c0-.85-.25-1.21-.86-1.21v-.22h1.82l8.23,11c.14.18.29.16.29-.05V4.12c0-.85-.25-1.21-.86-1.21v-.22h2.05v.22c-.61,0-.86.36-.86,1.21v11.18h-.99l-8.19-10.88c-.14-.18-.29.02-.29.23v9.22c0,.85.25,1.21.86,1.21v.22h-2.05v-.22c.61,0,.86-.36.86-1.21Z" style="fill: rgb(0, 0, 0);"/>
  <path class="cls-1" d="m91.17,13.07l4.05-10.62h.52l5.06,11.9c.22.52.61.74,1.1.74v.22h-3.1v-.22c.58,0,.77-.36.47-1.1l-1.19-2.88-5.89.09-.77,2.02c-.67,1.75.32,1.87.86,1.87v.22h-3.08v-.22c.7,0,1.3-.27,1.96-2.02Zm2.79-2.63l4.01.41-2.72-6.55c-.13-.32-.31-.32-.43,0l-2.02,5.29c-.23.61.25.76,1.15.85Z" style="fill: rgb(0, 0, 0);"/>
</svg>