<?xml version="1.0" encoding="utf-8"?>
<svg id="Layout" viewBox="0 0 40.85 119.73" xmlns="http://www.w3.org/2000/svg">
  <defs>
    <style>
      .cls-1 {
        fill: #FF002D;
;
      }
    </style>
  </defs>
  <polygon class="cls-1" points="7.46 106.51 .94 93.58 4.72 81.77 16.04 79.3 19.72 91.52 25.81 82.36 37.62 86.97 36.63 98.54 32.22 108.58 19.72 119.24 7.46 106.51" style="fill: rgb(0, 0, 0);"/>
  <path class="cls-1" d="m4.82,49.43v-2.46l18.45-19.55c4.53-4.79,6.56-9.02,6.56-13.33,0-7.25-5-11.14-10.48-11.14s-10.81,3.55-13.18,11.07l-.88-.27C7.32,4.93,14.69.62,21.58.62c7.77,0,13.93,5.19,13.93,13.47,0,6.22-3.24,10.8-7.1,14.9l-15.95,16.82c-1.15,1.16-.88,2.67,1.15,2.67h7.44c10.81,0,14.8-2.39,17.71-10.66l.81.14-2.16,11.48H4.82Z" style="fill: rgb(0, 0, 0);"/>
  <g>
    <path class="cls-1" d="m16.15,62.76c0,3.87-2.85,6.61-6.14,6.61s-6.14-2.74-6.14-6.61,2.85-6.5,6.14-6.5,6.14,2.63,6.14,6.5Zm-10.76.05c0,3.28,1.78,6.3,4.63,6.3s4.63-3.02,4.63-6.3-1.78-6.3-4.63-6.3-4.63,3.04-4.63,6.3Z" style="fill: rgb(0, 0, 0);"/>
    <path class="cls-1" d="m27.95,69.11h-2.94l-5.62-7.31v5.89c0,.85.25,1.21.85,1.21v.22h-2.99v-.22c.6,0,.85-.36.85-1.21v-9.76c0-.85-.25-1.21-.85-1.21v-.22h2.99v.22c-.61,0-.85.36-.85,1.21v3.38l2.19,2.16,3.52-4.5c.37-.49.57-.94.57-1.26,0-.63-.71-.95-1.83-.95h-.36v-.25h3.79v.25l-5.48,6.93,3.67,3.62c1.14,1.12,1.64,1.57,2.49,1.58v.22Z" style="fill: rgb(0, 0, 0);"/>
    <path class="cls-1" d="m32.71,67.69v-10.93h-.82c-1.83,0-3.11.76-3.75,1.94l-.2-.04.71-2.16h9.39l.71,2.16-.2.04c-.64-1.19-1.92-1.94-3.75-1.94h-.82v10.93c0,.85.25,1.21.85,1.21v.22h-2.99v-.22c.61,0,.85-.36.85-1.21Z" style="fill: rgb(0, 0, 0);"/>
    <path class="cls-1" d="m38.1,68.45c0-.5.43-.94.94-.94s.92.43.92.94-.43.95-.92.95-.94-.43-.94-.95Z" style="fill: rgb(0, 0, 0);"/>
  </g>
  <line style="fill: rgb(216, 216, 216); stroke: rgb(0, 0, 0);" x1="1.509" y1="0" x2="39.34" y2="55.015"/>
</svg>