<?xml version="1.0" encoding="UTF-8"?>
<svg id="Layout" xmlns="http://www.w3.org/2000/svg" viewBox="0 0 101.88 70.2">
  <defs>
    <style>
      .cls-1 {
        fill: #f42c04;
      }
    </style>
  </defs>
  <path class="cls-1" d="m22.11,8.71l2.7-7.08h.35l3.37,7.93c.14.35.41.49.73.49v.14h-2.06v-.14c.38,0,.52-.24.31-.73l-.79-1.92-3.92.06-.52,1.34c-.44,1.16.22,1.25.58,1.25v.14h-2.05v-.14c.47,0,.86-.18,1.31-1.34Zm1.86-1.75l2.67.28-1.81-4.37c-.08-.22-.2-.22-.29,0l-1.34,3.53c-.16.41.17.5.77.56Z"/>
  <path class="cls-1" d="m30.46,9.25V2.75c0-.56-.17-.8-.57-.8v-.14h1.21l5.48,7.33c.1.12.19.11.19-.04V2.75c0-.56-.17-.8-.57-.8v-.14h1.37v.14c-.41,0-.58.24-.58.8v7.45h-.66l-5.46-7.24c-.1-.12-.19.01-.19.16v6.14c0,.56.17.8.58.8v.14h-1.37v-.14c.41,0,.57-.24.57-.8Z"/>
  <path class="cls-1" d="m40.86,1.95v-.14h2.02v.14c-.41,0-.58.24-.58.8v4.21c0,1.91,1.09,2.83,2.53,2.83,1.58,0,2.59-.97,2.59-2.83V2.75c0-.56-.17-.8-.57-.8v-.14h1.37v.14c-.41,0-.58.24-.58.8v4.21c0,2.33-1.33,3.41-3.01,3.41-1.78,0-3.19-1.2-3.19-3.41V2.75c0-.56-.17-.8-.58-.8Z"/>
  <path class="cls-1" d="m49.6,9.25V2.75c0-.56-.17-.8-.58-.8v-.14h1.21l5.48,7.33c.1.12.19.11.19-.04V2.75c0-.56-.17-.8-.58-.8v-.14h1.37v.14c-.41,0-.58.24-.58.8v7.45h-.66l-5.46-7.24c-.1-.12-.19.01-.19.16v6.14c0,.56.17.8.58.8v.14h-1.37v-.14c.41,0,.58-.24.58-.8Z"/>
  <path class="cls-1" d="m57.56,1.8h3.66c2.22,0,4.15,1.76,4.15,4.17s-1.93,4.22-4.15,4.22h-1.49c-.4,0-.64-.06-.86-.24l-.38-.3c-.28-.22-.35-.43-.35-.96V2.75c0-.56-.17-.8-.58-.8v-.14Zm2.38,8.23h1.28c1.92,0,3.1-2.03,3.1-4.05s-1.18-4.01-3.1-4.01h-1.64c-.41,0-.58.22-.58.78v6.37c0,.67.24.91.94.91Z"/>
  <path class="cls-1" d="m69.34,9.25V2.75c0-.56-.17-.8-.58-.8v-.14h2.01v.14c-.41,0-.57.24-.57.8v6.5c0,.56.17.8.57.8v.14h-2.01v-.14c.41,0,.58-.24.58-.8Z"/>
  <path class="cls-1" d="m75.14,7.96l.53-.79-2.96-4.21c-.08-.12-.19-.11-.19.04v6.26c0,.56.17.8.57.8v.14h-1.37v-.14c.41,0,.58-.24.58-.8V2.75c0-.56-.17-.8-.58-.8v-.14h1.31l3.15,4.59,3.07-4.59h1.34v.14c-.41,0-.57.24-.57.8v6.5c0,.56.17.8.57.8v.14h-2.01v-.14c.41,0,.58-.24.58-.8V2.99c0-.14-.1-.17-.19-.04l-3.68,5.08-.14-.08Z"/>
  <path class="cls-1" d="m0,16.35v-.14h2.18v.14c-.38,0-.53.11-.53.32,0,.1.02.2.12.48l1.92,5.65c.08.24.2.36.32.36s.21-.05.32-.37l1.83-5.51c.08-.25.12-.42.12-.55,0-.34-.38-.38-.67-.38v-.14h1.68v.14c-.41,0-.67.24-.86.8l-.49,1.46,1.43,4.19c.08.24.21.36.32.36s.22-.05.32-.37l1.83-5.51c.08-.25.12-.42.12-.55,0-.28-.17-.38-.55-.38v-.14h1.56v.14c-.41,0-.67.24-.87.8l-2.54,7.62h-.32l-1.74-4.87-1.62,4.87h-.32l-2.71-7.62c-.21-.56-.47-.8-.86-.8Z"/>
  <path class="cls-1" d="m11.04,23.11l2.7-7.08h.35l3.37,7.93c.14.35.41.49.73.49v.14h-2.06v-.14c.38,0,.52-.24.31-.73l-.79-1.92-3.92.06-.52,1.34c-.44,1.16.22,1.25.58,1.25v.14h-2.05v-.14c.47,0,.86-.18,1.31-1.34Zm1.86-1.75l2.67.28-1.81-4.37c-.08-.22-.2-.22-.29,0l-1.34,3.53c-.16.41.17.5.77.56Z"/>
  <path class="cls-1" d="m18.58,22.33l.14-.02c.66,1.45,1.68,2.28,2.83,2.28s1.98-.8,1.98-1.94c0-.88-.49-1.43-1.61-1.88l-.95-.38c-1.28-.52-2.06-1.14-2.06-2.24,0-1.33,1.05-2.11,2.88-2.11.45,0,.9.05,1.76.17l.48,1.44-.13.02c-.52-.92-1.39-1.46-2.38-1.46-1.08,0-1.78.64-1.78,1.59,0,.83.47,1.38,1.62,1.85l.95.38c1.41.58,2.11,1.31,2.11,2.35,0,1.38-1.2,2.39-2.96,2.39-.72,0-1.7-.17-2.39-.4l-.5-2.03Z"/>
  <path class="cls-1" d="m25.31,22.33l.14-.02c.66,1.45,1.68,2.28,2.83,2.28s1.98-.8,1.98-1.94c0-.88-.49-1.43-1.61-1.88l-.95-.38c-1.28-.52-2.06-1.14-2.06-2.24,0-1.33,1.05-2.11,2.88-2.11.44,0,.9.05,1.76.17l.48,1.44-.13.02c-.52-.92-1.39-1.46-2.38-1.46-1.08,0-1.78.64-1.78,1.59,0,.83.47,1.38,1.62,1.85l.95.38c1.42.58,2.11,1.31,2.11,2.35,0,1.38-1.2,2.39-2.96,2.39-.72,0-1.7-.17-2.39-.4l-.5-2.03Z"/>
  <path class="cls-1" d="m38.26,17.64l-.13.02c-.43-.79-1.29-1.29-2.53-1.29h-1.69c-.41,0-.58.22-.58.78v2.21c0,.6.29.71.95.77l2.62.22v.14l-3.56.1v2.58c0,.91.36,1.27,1.29,1.27h1.32c1.64,0,2.3-.5,2.78-1.87l.14.02-.38,2.01h-4.43c-.4,0-.64-.06-.86-.24l-.38-.3c-.28-.22-.35-.43-.35-.96v-5.95c0-.56-.17-.8-.58-.8v-.14h5.89l.48,1.44Z"/>
  <path class="cls-1" d="m40.06,23.65v-5.95c0-.53.07-.74.35-.96l.38-.3c.23-.18.47-.24.86-.24h1.25c2.11,0,3.15,1.12,3.15,2.38s-1.04,2.54-3.39,2.54h-.07l2.21,2.28c.76.78,1.1,1.04,1.68,1.06v.14h-2.03l-3.53-4.88v3.93c0,.56.17.8.58.8v.14h-2.02v-.14c.41,0,.58-.24.58-.8Zm2.36-2.7h.04c2.03,0,2.59-1.19,2.59-2.36s-.73-2.22-2.15-2.22h-.68c-.94,0-1.29.36-1.29,1.27v1.76l1.5,1.55Z"/>
  <path class="cls-1" d="m46.94,22.33l.14-.02c.66,1.45,1.68,2.28,2.83,2.28s1.98-.8,1.98-1.94c0-.88-.49-1.43-1.61-1.88l-.95-.38c-1.28-.52-2.06-1.14-2.06-2.24,0-1.33,1.05-2.11,2.88-2.11.45,0,.9.05,1.76.17l.48,1.44-.13.02c-.52-.92-1.39-1.46-2.38-1.46-1.08,0-1.78.64-1.78,1.59,0,.83.47,1.38,1.62,1.85l.95.38c1.41.58,2.11,1.31,2.11,2.35,0,1.38-1.2,2.39-2.96,2.39-.72,0-1.7-.17-2.39-.4l-.5-2.03Z"/>
  <path class="cls-1" d="m57.94,16.04c.67,0,1.57.1,2.06.17l.48,1.44-.13.02c-.53-.96-1.49-1.46-2.48-1.46-1.61,0-3.29,1.32-3.29,4.2,0,2.67,1.61,3.9,3.23,3.9,1.39,0,2.79-.92,3.14-2.63l.18.02c-.4,2.1-1.89,3.06-3.46,3.06-2,0-4.11-1.6-4.11-4.39,0-2.58,1.92-4.33,4.38-4.33Z"/>
  <path class="cls-1" d="m67.85,23.65v-3.39h.16v.16l-4.95.18v3.06c0,.56.17.8.58.8v.14h-2.02v-.14c.41,0,.58-.24.58-.8v-6.5c0-.56-.17-.8-.58-.8v-.14h2.02v.14c-.41,0-.58.24-.58.8v2.17c0,.6.29.74.95.77l3.85.17v-3.11c0-.56-.17-.8-.57-.8v-.14h2.01v.14c-.41,0-.57.24-.57.8v6.5c0,.56.17.8.57.8v.14h-2.01v-.14c.41,0,.57-.24.57-.8Z"/>
  <path class="cls-1" d="m70.19,16.35v-.14h2.01v.14c-.41,0-.57.24-.57.8v6.37c0,.67.24.91.94.91h1.39c1.64,0,2.3-.5,2.78-1.87l.14.02-.38,2.01h-4.14c-.39,0-.63-.06-.86-.24l-.38-.3c-.28-.22-.35-.43-.35-.96v-5.95c0-.56-.17-.8-.58-.8Z"/>
  <path class="cls-1" d="m85.68,20.37c0,2.58-1.92,4.4-4.14,4.4s-4.14-1.82-4.14-4.4,1.92-4.33,4.14-4.33,4.14,1.75,4.14,4.33Zm-7.26.04c0,2.18,1.2,4.2,3.12,4.2s3.12-2.01,3.12-4.2-1.2-4.2-3.12-4.2-3.12,2.03-3.12,4.2Z"/>
  <path class="cls-1" d="m86.38,22.33l.14-.02c.66,1.45,1.68,2.28,2.83,2.28s1.98-.8,1.98-1.94c0-.88-.49-1.43-1.61-1.88l-.95-.38c-1.28-.52-2.06-1.14-2.06-2.24,0-1.33,1.05-2.11,2.88-2.11.45,0,.9.05,1.76.17l.48,1.44-.13.02c-.52-.92-1.39-1.46-2.38-1.46-1.08,0-1.78.64-1.78,1.59,0,.83.47,1.38,1.62,1.85l.95.38c1.41.58,2.11,1.31,2.11,2.35,0,1.38-1.2,2.39-2.96,2.39-.72,0-1.7-.17-2.39-.4l-.5-2.03Z"/>
  <path class="cls-1" d="m93.11,22.33l.14-.02c.66,1.45,1.68,2.28,2.83,2.28s1.98-.8,1.98-1.94c0-.88-.49-1.43-1.61-1.88l-.95-.38c-1.28-.52-2.06-1.14-2.06-2.24,0-1.33,1.05-2.11,2.88-2.11.45,0,.9.05,1.76.17l.48,1.44-.13.02c-.52-.92-1.39-1.46-2.38-1.46-1.08,0-1.78.64-1.78,1.59,0,.83.47,1.38,1.62,1.85l.95.38c1.41.58,2.11,1.31,2.11,2.35,0,1.38-1.2,2.39-2.96,2.39-.72,0-1.7-.17-2.39-.4l-.5-2.03Z"/>
  <path class="cls-1" d="m15.26,38.05v-3.39h.16v.16l-4.95.18v3.06c0,.56.17.8.58.8v.14h-2.02v-.14c.41,0,.58-.24.58-.8v-6.5c0-.56-.17-.8-.58-.8v-.14h2.02v.14c-.41,0-.58.24-.58.8v2.17c0,.6.29.74.95.77l3.85.17v-3.11c0-.56-.17-.8-.57-.8v-.14h2.01v.14c-.41,0-.57.24-.57.8v6.5c0,.56.17.8.57.8v.14h-2.01v-.14c.41,0,.57-.24.57-.8Z"/>
  <path class="cls-1" d="m18.66,37.51l2.7-7.08h.35l3.37,7.93c.14.35.41.49.73.49v.14h-2.06v-.14c.38,0,.52-.24.31-.73l-.79-1.92-3.92.06-.52,1.34c-.45,1.16.21,1.25.57,1.25v.14h-2.05v-.14c.47,0,.86-.18,1.31-1.34Zm1.86-1.75l2.68.28-1.81-4.37c-.08-.22-.2-.22-.29,0l-1.34,3.53c-.15.41.17.5.77.56Z"/>
  <path class="cls-1" d="m29.96,30.44c.67,0,1.57.1,2.06.17l.48,1.44-.13.02c-.53-.96-1.49-1.46-2.48-1.46-1.61,0-3.29,1.32-3.29,4.2,0,2.67,1.61,3.9,3.23,3.9,1.39,0,2.79-.92,3.14-2.63l.18.02c-.4,2.1-1.89,3.06-3.46,3.06-2,0-4.11-1.6-4.11-4.39,0-2.58,1.92-4.33,4.38-4.33Z"/>
  <path class="cls-1" d="m40.84,39h-1.97l-2.65-4.46-1.15,1.1v2.41c0,.56.17.8.58.8v.14h-2.02v-.14c.41,0,.58-.24.58-.8v-6.5c0-.56-.17-.8-.58-.8v-.14h2.02v.14c-.41,0-.58.24-.58.8v3.83l3.14-3.02c.76-.73,1.02-1.58-.26-1.58h-.36v-.17h2.55v.17l-3.51,3.38,2.65,3.65c.62.85.98,1.04,1.56,1.06v.14Z"/>
  <path class="cls-1" d="m47.68,38.05v-3.39h.16v.16l-4.95.18v3.06c0,.56.17.8.57.8v.14h-2.01v-.14c.41,0,.58-.24.58-.8v-6.5c0-.56-.17-.8-.58-.8v-.14h2.01v.14c-.41,0-.57.24-.57.8v2.17c0,.6.29.74.95.77l3.85.17v-3.11c0-.56-.17-.8-.58-.8v-.14h2.02v.14c-.41,0-.58.24-.58.8v6.5c0,.56.17.8.58.8v.14h-2.02v-.14c.41,0,.58-.24.58-.8Z"/>
  <path class="cls-1" d="m51.08,37.51l2.7-7.08h.35l3.37,7.93c.14.35.41.49.73.49v.14h-2.06v-.14c.38,0,.52-.24.31-.73l-.79-1.92-3.92.06-.52,1.34c-.44,1.16.22,1.25.58,1.25v.14h-2.05v-.14c.47,0,.86-.18,1.31-1.34Zm1.86-1.75l2.67.28-1.81-4.37c-.08-.22-.2-.22-.29,0l-1.34,3.53c-.16.41.17.5.77.56Z"/>
  <path class="cls-1" d="m57.97,30.75v-.14h2.01v.14c-.41,0-.57.24-.57.8v4.21c0,1.91,1.09,2.83,2.53,2.83,1.58,0,2.59-.97,2.59-2.83v-4.21c0-.56-.17-.8-.58-.8v-.14h1.37v.14c-.41,0-.58.24-.58.8v4.21c0,2.33-1.33,3.41-3.01,3.41-1.78,0-3.19-1.2-3.19-3.41v-4.21c0-.56-.17-.8-.58-.8Z"/>
  <path class="cls-1" d="m65.95,36.73l.14-.02c.66,1.45,1.68,2.28,2.83,2.28s1.98-.8,1.98-1.94c0-.88-.49-1.43-1.61-1.88l-.95-.38c-1.28-.52-2.06-1.14-2.06-2.24,0-1.33,1.05-2.11,2.88-2.11.44,0,.9.05,1.76.17l.48,1.44-.13.02c-.52-.92-1.39-1.46-2.38-1.46-1.08,0-1.78.64-1.78,1.59,0,.83.47,1.38,1.62,1.85l.95.38c1.42.58,2.11,1.31,2.11,2.35,0,1.38-1.2,2.39-2.96,2.39-.72,0-1.7-.17-2.39-.4l-.5-2.03Z"/>
  <path class="cls-1" d="m78.9,32.04l-.13.02c-.43-.79-1.29-1.29-2.53-1.29h-1.69c-.41,0-.57.22-.57.78v2.21c0,.6.29.71.95.77l2.62.22v.14l-3.56.1v2.58c0,.91.36,1.27,1.29,1.27h1.32c1.64,0,2.3-.5,2.78-1.87l.14.02-.38,2.01h-4.43c-.39,0-.63-.06-.86-.24l-.38-.3c-.28-.22-.35-.43-.35-.96v-5.95c0-.56-.17-.8-.58-.8v-.14h5.89l.48,1.44Z"/>
  <path class="cls-1" d="m80.67,38.05v-6.5c0-.56-.17-.8-.57-.8v-.14h1.21l5.48,7.33c.1.12.19.11.19-.04v-6.34c0-.56-.17-.8-.57-.8v-.14h1.37v.14c-.41,0-.58.24-.58.8v7.45h-.66l-5.46-7.24c-.1-.12-.19.01-.19.16v6.14c0,.56.17.8.58.8v.14h-1.37v-.14c.41,0,.57-.24.57-.8Z"/>
  <path class="cls-1" d="m89.5,39.19c-.35,0-.63-.29-.63-.64s.29-.62.63-.62c.41,0,.66.35.66.79,0,.56-.38,1.28-1.32,1.7l-.08-.14c.47-.2.78-.67.74-1.09Z"/>
  <path class="cls-1" d="m13.28,52.45v-3.39h.16v.16l-4.95.18v3.06c0,.56.17.8.58.8v.14h-2.02v-.14c.41,0,.58-.24.58-.8v-6.5c0-.56-.17-.8-.58-.8v-.14h2.02v.14c-.41,0-.58.24-.58.8v2.17c0,.6.29.74.95.77l3.85.17v-3.11c0-.56-.17-.8-.57-.8v-.14h2.01v.14c-.41,0-.57.24-.57.8v6.5c0,.56.17.8.57.8v.14h-2.01v-.14c.41,0,.57-.24.57-.8Z"/>
  <path class="cls-1" d="m16.69,51.91l2.7-7.08h.35l3.37,7.93c.14.35.41.49.73.49v.14h-2.06v-.14c.38,0,.52-.24.31-.73l-.79-1.92-3.92.06-.52,1.34c-.45,1.16.21,1.25.57,1.25v.14h-2.05v-.14c.47,0,.86-.18,1.31-1.34Zm1.86-1.75l2.68.28-1.81-4.37c-.08-.22-.2-.22-.29,0l-1.34,3.53c-.15.41.17.5.77.56Z"/>
  <path class="cls-1" d="m27.98,44.84c.67,0,1.57.1,2.06.17l.48,1.44-.13.02c-.53-.96-1.49-1.46-2.48-1.46-1.61,0-3.29,1.32-3.29,4.2,0,2.67,1.61,3.9,3.23,3.9,1.39,0,2.79-.92,3.14-2.63l.18.02c-.4,2.1-1.89,3.06-3.46,3.06-2,0-4.11-1.6-4.11-4.39,0-2.58,1.92-4.33,4.38-4.33Z"/>
  <path class="cls-1" d="m38.87,53.4h-1.97l-2.65-4.46-1.15,1.1v2.41c0,.56.17.8.58.8v.14h-2.02v-.14c.41,0,.58-.24.58-.8v-6.5c0-.56-.17-.8-.58-.8v-.14h2.02v.14c-.41,0-.58.24-.58.8v3.83l3.14-3.02c.76-.73,1.02-1.58-.26-1.58h-.36v-.17h2.55v.17l-3.51,3.38,2.65,3.65c.62.85.98,1.04,1.56,1.06v.14Z"/>
  <path class="cls-1" d="m45.7,52.45v-3.39h.16v.16l-4.95.18v3.06c0,.56.17.8.57.8v.14h-2.01v-.14c.41,0,.58-.24.58-.8v-6.5c0-.56-.17-.8-.58-.8v-.14h2.01v.14c-.41,0-.57.24-.57.8v2.17c0,.6.29.74.95.77l3.85.17v-3.11c0-.56-.17-.8-.58-.8v-.14h2.02v.14c-.41,0-.58.24-.58.8v6.5c0,.56.17.8.58.8v.14h-2.02v-.14c.41,0,.58-.24.58-.8Z"/>
  <path class="cls-1" d="m49.1,51.91l2.7-7.08h.35l3.37,7.93c.14.35.41.49.73.49v.14h-2.06v-.14c.38,0,.52-.24.31-.73l-.79-1.92-3.92.06-.52,1.34c-.44,1.16.22,1.25.58,1.25v.14h-2.05v-.14c.47,0,.86-.18,1.31-1.34Zm1.86-1.75l2.67.28-1.81-4.37c-.08-.22-.2-.22-.29,0l-1.34,3.53c-.16.41.17.5.77.56Z"/>
  <path class="cls-1" d="m56,45.15v-.14h2.01v.14c-.41,0-.57.24-.57.8v4.21c0,1.91,1.09,2.83,2.53,2.83,1.58,0,2.59-.97,2.59-2.83v-4.21c0-.56-.17-.8-.58-.8v-.14h1.37v.14c-.41,0-.58.24-.58.8v4.21c0,2.33-1.33,3.41-3.01,3.41-1.78,0-3.19-1.2-3.19-3.41v-4.21c0-.56-.17-.8-.58-.8Z"/>
  <path class="cls-1" d="m63.97,51.13l.14-.02c.66,1.45,1.68,2.28,2.83,2.28s1.98-.8,1.98-1.94c0-.88-.49-1.43-1.61-1.88l-.95-.38c-1.28-.52-2.06-1.14-2.06-2.24,0-1.33,1.05-2.11,2.88-2.11.44,0,.9.05,1.76.17l.48,1.44-.13.02c-.52-.92-1.39-1.46-2.38-1.46-1.08,0-1.78.64-1.78,1.59,0,.83.47,1.38,1.62,1.85l.95.38c1.42.58,2.11,1.31,2.11,2.35,0,1.38-1.2,2.39-2.96,2.39-.72,0-1.7-.17-2.39-.4l-.5-2.03Z"/>
  <path class="cls-1" d="m76.92,46.44l-.13.02c-.43-.79-1.29-1.29-2.53-1.29h-1.69c-.41,0-.57.22-.57.78v2.21c0,.6.29.71.95.77l2.62.22v.14l-3.56.1v2.58c0,.91.36,1.27,1.29,1.27h1.32c1.64,0,2.3-.5,2.78-1.87l.14.02-.38,2.01h-4.43c-.39,0-.63-.06-.86-.24l-.38-.3c-.28-.22-.35-.43-.35-.96v-5.95c0-.56-.17-.8-.58-.8v-.14h5.89l.48,1.44Z"/>
  <path class="cls-1" d="m78.69,52.45v-6.5c0-.56-.17-.8-.57-.8v-.14h1.21l5.48,7.33c.1.12.19.11.19-.04v-6.34c0-.56-.17-.8-.57-.8v-.14h1.37v.14c-.41,0-.58.24-.58.8v7.45h-.66l-5.46-7.24c-.1-.12-.19.01-.19.16v6.14c0,.56.17.8.58.8v.14h-1.37v-.14c.41,0,.57-.24.57-.8Z"/>
  <path class="cls-1" d="m90.39,52.45v-6.14c0-.56-.17-.82-1.01-.56l-.05-.14,1.7-.6h.22v7.45c0,.56.17.8.57.8v.14h-2.01v-.14c.41,0,.58-.24.58-.8Z"/>
  <path class="cls-1" d="m6.48,66.85v-.74H2.23v-.35l4.47-6.36h.65v6.06c.67-.04,1.04-.34,1.36-1.4l.13.02-.36,2.03h-1.13v.74c0,.56.17.8.58.8v.14h-2.02v-.14c.41,0,.58-.24.58-.8Zm0-1.38v-4.71c0-.37-.25-.37-.44-.11l-3.38,4.82h3.83Z"/>
  <path class="cls-1" d="m9.12,67.8v-.43l3.27-3.43c.8-.84,1.16-1.58,1.16-2.34,0-1.27-.89-1.96-1.86-1.96s-1.92.62-2.34,1.94l-.15-.05c.36-1.55,1.67-2.3,2.89-2.3,1.38,0,2.47.91,2.47,2.36,0,1.09-.58,1.89-1.26,2.61l-2.83,2.95c-.21.2-.16.47.2.47h1.32c1.92,0,2.63-.42,3.14-1.87l.14.02-.38,2.01h-5.78Z"/>
  <path class="cls-1" d="m19.77,59.42c-1.83,0-2.88,1.78-2.82,4.67h.05c.35-1.49,1.47-2.2,2.59-2.2,1.39,0,2.77,1.07,2.77,3.05,0,1.54-1.2,3.06-3.03,3.06-2.27,0-3.38-2.1-3.38-4.23,0-2.24,1.22-4.54,3.65-4.54.94,0,1.71.35,2.33,1.03l-.14.11c-.58-.64-1.25-.94-2-.94Zm1.58,5.53c0-1.74-1.04-2.58-2.09-2.58s-2.2.9-2.2,2.64c0,3.77,4.28,3.77,4.28-.06Z"/>
  <path class="cls-1" d="m25.58,67.78c1.84,0,2.88-1.77,2.82-4.67h-.05c-.35,1.49-1.48,2.2-2.59,2.2-1.39,0-2.77-1.07-2.77-3.05,0-1.54,1.2-3.06,3.03-3.06,2.27,0,3.38,2.1,3.38,4.23,0,2.24-1.22,4.54-3.65,4.54-.94,0-1.71-.35-2.33-1.03l.14-.11c.57.63,1.25.93,2,.93Zm.5-2.95c1.09,0,2.2-.9,2.2-2.64,0-3.77-4.28-3.77-4.28.06,0,1.74,1.04,2.58,2.09,2.58Z"/>
  <path class="cls-1" d="m33.92,59.57h-1.4c-1.18,0-2.07.46-2.53,1.29l-.13-.02.48-1.44h3.67c.5,0,.72.08,1.08.48l.37.42c.46.52.04.83-.42,1.76l-2.33,4.79c-.28.56-.13.8.4.8v.14h-2.53v-.14c.41,0,.7-.26.97-.8l2.7-5.24c.68-1.33.84-2.04-.32-2.04Z"/>
  <path class="cls-1" d="m38.83,65.53l.14-.02c.66,1.45,1.68,2.28,2.83,2.28s1.98-.8,1.98-1.94c0-.88-.49-1.43-1.61-1.88l-.95-.38c-1.28-.52-2.06-1.14-2.06-2.24,0-1.33,1.05-2.11,2.88-2.11.45,0,.9.05,1.76.17l.48,1.44-.13.02c-.52-.92-1.39-1.46-2.38-1.46-1.08,0-1.78.64-1.78,1.59,0,.83.47,1.38,1.62,1.85l.95.38c1.41.58,2.11,1.31,2.11,2.35,0,1.38-1.2,2.39-2.96,2.39-.72,0-1.7-.17-2.39-.4l-.5-2.03Z"/>
  <path class="cls-1" d="m53.72,63.57c0,2.58-1.92,4.4-4.14,4.4s-4.14-1.82-4.14-4.4,1.92-4.33,4.14-4.33,4.14,1.75,4.14,4.33Zm-7.26.04c0,2.18,1.2,4.2,3.12,4.2s3.12-2.01,3.12-4.2-1.2-4.2-3.12-4.2-3.12,2.03-3.12,4.2Z"/>
  <path class="cls-1" d="m54.49,59.55v-.14h2.01v.14c-.41,0-.57.24-.57.8v6.37c0,.67.24.91.94.91h1.39c1.64,0,2.3-.5,2.78-1.87l.14.02-.38,2.01h-4.14c-.39,0-.63-.06-.86-.24l-.38-.3c-.28-.22-.35-.43-.35-.96v-5.95c0-.56-.17-.8-.58-.8Z"/>
  <path class="cls-1" d="m62.45,66.85v-6.5c0-.56-.17-.8-.58-.8v-.14h2.02v.14c-.41,0-.58.24-.58.8v6.5c0,.56.17.8.58.8v.14h-2.02v-.14c.41,0,.58-.24.58-.8Z"/>
  <path class="cls-1" d="m65.38,66.85v-6.5c0-.56-.17-.8-.57-.8v-.14h1.21l5.48,7.33c.1.12.19.11.19-.04v-6.34c0-.56-.17-.8-.57-.8v-.14h1.37v.14c-.41,0-.58.24-.58.8v7.45h-.66l-5.46-7.24c-.1-.12-.19.01-.19.16v6.14c0,.56.17.8.58.8v.14h-1.37v-.14c.41,0,.57-.24.57-.8Z"/>
  <path class="cls-1" d="m77.58,59.24c.67,0,1.57.1,2.06.17l.48,1.44-.13.02c-.43-.79-1.29-1.46-2.65-1.46-1.92,0-3.12,2.03-3.12,4.16,0,2.9,1.7,4.2,3.26,4.2,1.3,0,2.48-.9,2.48-2.53s-.44-1.96-1.82-2.08l-1.15-.1v-.17h3.81v2.94c-.67,1.42-2,2.13-3.38,2.13-2.06,0-4.22-1.56-4.22-4.4,0-2.58,1.92-4.33,4.38-4.33Z"/>
  <path class="cls-1" d="m88.07,60.84l-.13.02c-.43-.79-1.29-1.29-2.53-1.29h-1.69c-.41,0-.58.22-.58.78v2.21c0,.6.29.71.95.77l2.62.22v.14l-3.56.1v2.58c0,.91.36,1.27,1.29,1.27h1.32c1.64,0,2.3-.5,2.78-1.87l.14.02-.38,2.01h-4.43c-.4,0-.64-.06-.86-.24l-.38-.3c-.28-.22-.35-.43-.35-.96v-5.95c0-.56-.17-.8-.58-.8v-.14h5.89l.48,1.44Z"/>
  <path class="cls-1" d="m89.85,66.85v-6.5c0-.56-.17-.8-.58-.8v-.14h1.21l5.48,7.33c.1.12.19.11.19-.04v-6.34c0-.56-.17-.8-.58-.8v-.14h1.37v.14c-.41,0-.58.24-.58.8v7.45h-.66l-5.46-7.24c-.1-.12-.19.01-.19.16v6.14c0,.56.17.8.58.8v.14h-1.37v-.14c.41,0,.58-.24.58-.8Z"/>
</svg>