<?xml version="1.0" encoding="UTF-8"?>
<svg id="Layout" xmlns="http://www.w3.org/2000/svg" viewBox="0 0 93.49 70.2">
  <defs>
    <style>
      .cls-1 {
        fill: #f42c04;
      }
    </style>
  </defs>
  <path class="cls-1" d="m13.54,8.71l2.7-7.08h.35l3.37,7.93c.14.35.41.49.73.49v.14h-2.06v-.14c.38,0,.52-.24.31-.73l-.79-1.92-3.92.06-.52,1.34c-.44,1.16.22,1.25.58,1.25v.14h-2.05v-.14c.47,0,.86-.18,1.31-1.34Zm1.86-1.75l2.67.28-1.81-4.37c-.08-.22-.2-.22-.29,0l-1.34,3.53c-.16.41.17.5.77.56Z"/>
  <path class="cls-1" d="m24.76,7.96l.53-.79-2.96-4.21c-.08-.12-.19-.11-.19.04v6.26c0,.56.17.8.58.8v.14h-1.37v-.14c.41,0,.58-.24.58-.8V2.75c0-.56-.17-.8-.58-.8v-.14h1.31l3.15,4.59,3.07-4.59h1.34v.14c-.41,0-.58.24-.58.8v6.5c0,.56.17.8.58.8v.14h-2.01v-.14c.41,0,.58-.24.58-.8V2.99c0-.14-.1-.17-.19-.04l-3.68,5.08-.14-.08Z"/>
  <path class="cls-1" d="m40.96,5.97c0,2.4-1.58,4.4-3.72,4.4s-3.72-2-3.72-4.4,1.57-4.33,3.72-4.33,3.72,1.94,3.72,4.33Zm-6.42.04c0,2.34,1.12,4.2,2.7,4.2s2.7-1.86,2.7-4.2-1.13-4.2-2.7-4.2-2.7,1.87-2.7,4.2Z"/>
  <path class="cls-1" d="m41.59,10.2v-.43l3.27-3.43c.8-.84,1.16-1.58,1.16-2.34,0-1.27-.89-1.96-1.86-1.96s-1.92.62-2.34,1.94l-.16-.05c.36-1.55,1.67-2.3,2.89-2.3,1.38,0,2.47.91,2.47,2.36,0,1.09-.58,1.89-1.26,2.61l-2.83,2.95c-.2.2-.16.47.2.47h1.32c1.92,0,2.63-.42,3.14-1.87l.14.02-.38,2.01h-5.78Z"/>
  <path class="cls-1" d="m49.01,9.76c0-.34.29-.62.64-.62s.62.29.62.62-.29.63-.62.63-.64-.29-.64-.63Z"/>
  <path class="cls-1" d="m52.36,9.25V3.11c0-.56-.17-.82-1.01-.56l-.05-.14,1.7-.6h.22v7.45c0,.56.17.8.58.8v.14h-2.01v-.14c.41,0,.58-.24.58-.8Z"/>
  <path class="cls-1" d="m62.32,5.97c0,2.4-1.58,4.4-3.72,4.4s-3.72-2-3.72-4.4,1.57-4.33,3.72-4.33,3.72,1.94,3.72,4.33Zm-6.42.04c0,2.34,1.12,4.2,2.7,4.2s2.7-1.86,2.7-4.2-1.13-4.2-2.7-4.2-2.7,1.87-2.7,4.2Z"/>
  <path class="cls-1" d="m63.11,9.76c0-.34.29-.62.64-.62s.62.29.62.62-.29.63-.62.63-.64-.29-.64-.63Z"/>
  <path class="cls-1" d="m65.54,10.2v-.43l3.27-3.43c.8-.84,1.16-1.58,1.16-2.34,0-1.27-.89-1.96-1.86-1.96s-1.92.62-2.34,1.94l-.16-.05c.36-1.55,1.67-2.3,2.89-2.3,1.38,0,2.47.91,2.47,2.36,0,1.09-.58,1.89-1.26,2.61l-2.83,2.95c-.2.2-.16.47.2.47h1.32c1.92,0,2.63-.42,3.14-1.87l.14.02-.38,2.01h-5.78Z"/>
  <path class="cls-1" d="m77.31,2.46h-2.88c-.82,0-1.22.24-1.57.82l-.13-.02.36-1.45h4.7v.35l-2.03,2.5c1.81.3,2.65,1.58,2.65,2.88,0,1.44-1.04,2.87-2.93,2.87-1.27,0-2.57-.74-3.01-2.3l.16-.05c.46,1.32,1.52,1.96,2.54,1.96,1.44,0,2.23-1.15,2.23-2.36,0-1.08-.62-2.2-1.98-2.58l-1.09,1.34-.16-.1,3.13-3.84Z"/>
  <path class="cls-1" d="m10.7,23.11l2.7-7.08h.35l3.37,7.93c.14.35.41.49.73.49v.14h-2.06v-.14c.38,0,.52-.24.31-.73l-.79-1.92-3.92.06-.52,1.34c-.44,1.16.22,1.25.58,1.25v.14h-2.05v-.14c.47,0,.86-.18,1.31-1.34Zm1.86-1.75l2.67.28-1.81-4.37c-.08-.22-.2-.22-.29,0l-1.34,3.53c-.16.41.17.5.77.56Z"/>
  <path class="cls-1" d="m17.96,16.21h2.7c2.33,0,3.27,1.03,3.27,2.04,0,.68-.42,1.36-1.17,1.68,1.55.34,2.25,1.28,2.25,2.24,0,1.21-1.18,2.42-3.75,2.42h-1.13c-.38,0-.62-.06-.86-.24l-.38-.3c-.28-.22-.35-.43-.35-.96v-5.94c0-.56-.17-.8-.58-.8v-.14Zm2.47,3.96c1.92,0,2.54-.88,2.54-1.89s-.62-1.9-2.31-1.9h-.68c-.41,0-.58.22-.58.78v3.01h1.03Zm-.3,4.26h1.13c1.83,0,2.73-1.06,2.73-2.27,0-.95-.59-1.8-1.39-2.12-.52.2-1.14.3-1.82.3h-1.38v3.18c0,.67.25.91.73.91Z"/>
  <path class="cls-1" d="m29.58,23.65v-6.14c0-.56-.17-.82-1.01-.56l-.05-.14,1.7-.6h.22v7.45c0,.56.17.8.58.8v.14h-2.01v-.14c.41,0,.58-.24.58-.8Z"/>
  <path class="cls-1" d="m32.9,16.21h3.95l.36,1.45-.13.02c-.35-.58-.76-.82-1.57-.82h-2.47l-.14,3.21c.46-.53,1.19-.85,2.01-.85,1.94,0,2.93,1.38,2.93,2.73s-1.07,2.83-2.89,2.83c-1.32,0-2.6-.74-3.05-2.3l.16-.05c.46,1.32,1.52,1.96,2.54,1.96,1.44,0,2.23-1.15,2.23-2.35s-.76-2.34-2.27-2.34c-.65,0-1.33.26-1.67.58h-.19l.2-4.08Z"/>
  <path class="cls-1" d="m39.52,19.94c.34,0,.62.29.62.62s-.29.64-.62.64-.64-.29-.64-.64.29-.62.64-.62Zm-.64,4.22c0-.34.29-.62.64-.62s.62.29.62.62-.29.63-.62.63-.64-.29-.64-.63Z"/>
  <path class="cls-1" d="m48.58,20.37c0,2.4-1.58,4.4-3.72,4.4s-3.72-2-3.72-4.4,1.57-4.33,3.72-4.33,3.72,1.94,3.72,4.33Zm-6.42.04c0,2.34,1.12,4.2,2.7,4.2s2.7-1.86,2.7-4.2-1.13-4.2-2.7-4.2-2.7,1.87-2.7,4.2Z"/>
  <path class="cls-1" d="m56.88,20.37c0,2.4-1.58,4.4-3.72,4.4s-3.72-2-3.72-4.4,1.57-4.33,3.72-4.33,3.72,1.94,3.72,4.33Zm-6.42.04c0,2.34,1.12,4.2,2.7,4.2s2.7-1.86,2.7-4.2-1.13-4.2-2.7-4.2-2.7,1.87-2.7,4.2Z"/>
  <path class="cls-1" d="m60.19,16.35v-.14h2.02v.14c-.41,0-.58.24-.58.8v4.21c0,1.91,1.09,2.83,2.53,2.83,1.58,0,2.59-.97,2.59-2.83v-4.21c0-.56-.17-.8-.58-.8v-.14h1.37v.14c-.41,0-.58.24-.58.8v4.21c0,2.33-1.33,3.41-3.01,3.41-1.78,0-3.19-1.2-3.19-3.41v-4.21c0-.56-.17-.8-.58-.8Z"/>
  <path class="cls-1" d="m74.62,23.65v-3.39h.16v.16l-4.95.18v3.06c0,.56.17.8.58.8v.14h-2.01v-.14c.41,0,.58-.24.58-.8v-6.5c0-.56-.17-.8-.58-.8v-.14h2.01v.14c-.41,0-.58.24-.58.8v2.17c0,.6.29.74.95.77l3.85.17v-3.11c0-.56-.17-.8-.58-.8v-.14h2.01v.14c-.41,0-.58.24-.58.8v6.5c0,.56.17.8.58.8v.14h-2.01v-.14c.41,0,.58-.24.58-.8Z"/>
  <path class="cls-1" d="m77.53,23.65v-5.95c0-.53.07-.74.35-.96l.38-.3c.23-.18.47-.24.86-.24h1.25c2.11,0,3.15,1.12,3.15,2.38s-1.04,2.54-3.39,2.54h-.07l2.21,2.28c.76.78,1.1,1.04,1.68,1.06v.14h-2.03l-3.53-4.88v3.93c0,.56.17.8.58.8v.14h-2.02v-.14c.41,0,.58-.24.58-.8Zm2.36-2.7h.04c2.03,0,2.59-1.19,2.59-2.36s-.73-2.22-2.15-2.22h-.68c-.94,0-1.29.36-1.29,1.27v1.76l1.5,1.55Z"/>
  <path class="cls-1" d="m11.44,30.6h2.7c2.33,0,3.27,1.03,3.27,2.04,0,.68-.42,1.36-1.17,1.68,1.55.34,2.25,1.28,2.25,2.24,0,1.21-1.18,2.42-3.75,2.42h-1.13c-.38,0-.62-.06-.86-.24l-.38-.3c-.28-.22-.35-.43-.35-.96v-5.94c0-.56-.17-.8-.58-.8v-.14Zm2.47,3.96c1.92,0,2.54-.88,2.54-1.9s-.62-1.89-2.31-1.89h-.68c-.41,0-.58.22-.58.78v3.01h1.03Zm-.3,4.26h1.13c1.83,0,2.73-1.06,2.73-2.27,0-.95-.59-1.8-1.39-2.12-.52.2-1.14.3-1.82.3h-1.38v3.18c0,.67.25.91.73.91Z"/>
  <path class="cls-1" d="m25.49,32.04l-.13.02c-.43-.79-1.3-1.29-2.53-1.29h-1.69c-.41,0-.58.22-.58.78v2.21c0,.6.29.71.95.77l2.62.22v.14l-3.56.1v2.58c0,.91.36,1.27,1.29,1.27h1.32c1.64,0,2.3-.5,2.78-1.87l.14.02-.38,2.01h-4.43c-.4,0-.64-.06-.86-.24l-.38-.3c-.28-.22-.35-.43-.35-.96v-5.95c0-.56-.17-.8-.58-.8v-.14h5.89l.48,1.44Z"/>
  <path class="cls-1" d="m30.99,30.44c.67,0,1.57.1,2.06.17l.48,1.44-.13.02c-.43-.79-1.29-1.46-2.65-1.46-1.92,0-3.12,2.03-3.12,4.16,0,2.9,1.7,4.2,3.26,4.2,1.3,0,2.48-.9,2.48-2.53s-.44-1.96-1.82-2.08l-1.15-.1v-.17h3.81v2.94c-.67,1.42-2,2.13-3.38,2.13-2.06,0-4.22-1.56-4.22-4.4,0-2.58,1.92-4.33,4.38-4.33Z"/>
  <path class="cls-1" d="m35.78,38.05v-6.5c0-.56-.17-.8-.58-.8v-.14h2.01v.14c-.41,0-.58.24-.58.8v6.5c0,.56.17.8.58.8v.14h-2.01v-.14c.41,0,.58-.24.58-.8Z"/>
  <path class="cls-1" d="m38.71,38.05v-6.5c0-.56-.17-.8-.58-.8v-.14h1.21l5.48,7.33c.1.12.19.11.19-.04v-6.34c0-.56-.17-.8-.58-.8v-.14h1.37v.14c-.41,0-.58.24-.58.8v7.45h-.66l-5.46-7.24c-.1-.12-.19.01-.19.16v6.14c0,.56.17.8.58.8v.14h-1.37v-.14c.41,0,.58-.24.58-.8Z"/>
  <path class="cls-1" d="m47.22,38.05v-6.5c0-.56-.17-.8-.58-.8v-.14h1.21l5.48,7.33c.1.12.19.11.19-.04v-6.34c0-.56-.17-.8-.58-.8v-.14h1.37v.14c-.41,0-.58.24-.58.8v7.45h-.66l-5.46-7.24c-.1-.12-.19.01-.19.16v6.14c0,.56.17.8.58.8v.14h-1.37v-.14c.41,0,.58-.24.58-.8Z"/>
  <path class="cls-1" d="m57.62,30.75v-.14h2.02v.14c-.41,0-.58.24-.58.8v4.21c0,1.91,1.09,2.83,2.53,2.83,1.58,0,2.59-.97,2.59-2.83v-4.21c0-.56-.17-.8-.58-.8v-.14h1.37v.14c-.41,0-.58.24-.58.8v4.21c0,2.33-1.33,3.41-3.01,3.41-1.78,0-3.19-1.2-3.19-3.41v-4.21c0-.56-.17-.8-.58-.8Z"/>
  <path class="cls-1" d="m66.36,38.05v-6.5c0-.56-.17-.8-.58-.8v-.14h1.21l5.48,7.33c.1.12.19.11.19-.04v-6.34c0-.56-.17-.8-.58-.8v-.14h1.37v.14c-.41,0-.58.24-.58.8v7.45h-.66l-5.46-7.24c-.1-.12-.19.01-.19.16v6.14c0,.56.17.8.58.8v.14h-1.37v-.14c.41,0,.58-.24.58-.8Z"/>
  <path class="cls-1" d="m74.33,30.6h3.66c2.22,0,4.15,1.76,4.15,4.17s-1.93,4.22-4.15,4.22h-1.49c-.4,0-.64-.06-.86-.24l-.38-.3c-.28-.22-.35-.43-.35-.96v-5.95c0-.56-.17-.8-.58-.8v-.14Zm2.38,8.23h1.28c1.92,0,3.09-2.03,3.09-4.05s-1.18-4.01-3.09-4.01h-1.64c-.41,0-.58.22-.58.78v6.37c0,.67.24.91.94.91Z"/>
  <path class="cls-1" d="m2.5,53.26v.14H.48v-.14c.41,0,.58-.24.58-.8v-6.5c0-.56-.17-.8-.58-.8v-.14h5.72l.48,1.44-.13.02c-.43-.79-1.3-1.29-2.53-1.29h-1.52c-.41,0-.58.22-.58.78v2.33c0,.6.29.71.95.77l2.45.22v.14l-3.39.1v2.95c0,.56.17.8.58.8Z"/>
  <path class="cls-1" d="m7.67,52.45v-5.95c0-.53.07-.74.35-.96l.38-.3c.23-.18.47-.24.86-.24h1.25c2.11,0,3.15,1.12,3.15,2.38s-1.04,2.54-3.39,2.54h-.07l2.21,2.28c.76.78,1.1,1.04,1.68,1.06v.14h-2.03l-3.53-4.88v3.93c0,.56.17.8.58.8v.14h-2.01v-.14c.41,0,.58-.24.58-.8Zm2.36-2.7h.04c2.03,0,2.59-1.19,2.59-2.36s-.73-2.22-2.15-2.22h-.68c-.94,0-1.29.36-1.29,1.27v1.76l1.5,1.55Z"/>
  <path class="cls-1" d="m20.79,46.44l-.13.02c-.43-.79-1.3-1.29-2.53-1.29h-1.69c-.41,0-.58.22-.58.78v2.21c0,.6.29.71.95.77l2.62.22v.14l-3.56.1v2.58c0,.91.36,1.27,1.29,1.27h1.32c1.64,0,2.3-.5,2.78-1.87l.14.02-.38,2.01h-4.43c-.4,0-.64-.06-.86-.24l-.38-.3c-.28-.22-.35-.43-.35-.96v-5.95c0-.56-.17-.8-.58-.8v-.14h5.89l.48,1.44Z"/>
  <path class="cls-1" d="m22.65,52.45v-6.5c0-.56-.17-.8-.58-.8v-.14h2.01v.14c-.41,0-.58.24-.58.8v6.5c0,.56.17.8.58.8v.14h-2.01v-.14c.41,0,.58-.24.58-.8Z"/>
  <path class="cls-1" d="m31.4,46.44l-.13.02c-.43-.79-1.29-1.29-2.53-1.29h-1.69c-.41,0-.58.22-.58.78v2.21c0,.6.29.71.95.77l2.62.22v.14l-3.56.1v2.58c0,.91.36,1.27,1.29,1.27h1.32c1.64,0,2.3-.5,2.78-1.87l.14.02-.38,2.01h-4.43c-.4,0-.64-.06-.86-.24l-.38-.3c-.28-.22-.35-.43-.35-.96v-5.95c0-.56-.17-.8-.58-.8v-.14h5.89l.48,1.44Z"/>
  <path class="cls-1" d="m37.99,52.45v-7.28h-.55c-1.24,0-2.1.5-2.53,1.29l-.13-.02.48-1.44h6.33l.48,1.44-.13.02c-.43-.79-1.3-1.29-2.53-1.29h-.55v7.28c0,.56.17.8.58.8v.14h-2.01v-.14c.41,0,.58-.24.58-.8Z"/>
  <path class="cls-1" d="m43.07,52.45v-5.95c0-.53.07-.74.35-.96l.38-.3c.23-.18.47-.24.86-.24h1.25c2.11,0,3.15,1.12,3.15,2.38s-1.04,2.54-3.39,2.54h-.07l2.21,2.28c.76.78,1.1,1.04,1.68,1.06v.14h-2.03l-3.53-4.88v3.93c0,.56.17.8.58.8v.14h-2.01v-.14c.41,0,.58-.24.58-.8Zm2.36-2.7h.04c2.03,0,2.59-1.19,2.59-2.36s-.73-2.22-2.15-2.22h-.68c-.94,0-1.29.36-1.29,1.27v1.76l1.5,1.55Z"/>
  <path class="cls-1" d="m51.29,51.91l2.7-7.08h.35l3.37,7.93c.14.35.41.49.73.49v.14h-2.06v-.14c.38,0,.52-.24.31-.73l-.79-1.92-3.92.06-.52,1.34c-.44,1.16.22,1.25.58,1.25v.14h-2.05v-.14c.47,0,.86-.18,1.31-1.34Zm1.86-1.75l2.67.28-1.81-4.37c-.08-.22-.2-.22-.29,0l-1.34,3.53c-.16.41.17.5.77.56Z"/>
  <path class="cls-1" d="m58.18,45.15v-.14h2.01v.14c-.41,0-.58.24-.58.8v4.21c0,1.91,1.09,2.83,2.53,2.83,1.58,0,2.59-.97,2.59-2.83v-4.21c0-.56-.17-.8-.58-.8v-.14h1.37v.14c-.41,0-.58.24-.58.8v4.21c0,2.33-1.33,3.41-3.01,3.41-1.78,0-3.19-1.2-3.19-3.41v-4.21c0-.56-.17-.8-.58-.8Z"/>
  <path class="cls-1" d="m66.37,45.15v-.14h2.01v.14c-.41,0-.58.24-.58.8v4.21c0,1.91,1.09,2.83,2.53,2.83,1.58,0,2.59-.97,2.59-2.83v-4.21c0-.56-.17-.8-.58-.8v-.14h1.37v.14c-.41,0-.58.24-.58.8v4.21c0,2.33-1.33,3.41-3.01,3.41-1.78,0-3.19-1.2-3.19-3.41v-4.21c0-.56-.17-.8-.58-.8Z"/>
  <path class="cls-1" d="m75.11,52.45v-6.5c0-.56-.17-.8-.58-.8v-.14h1.21l5.48,7.33c.1.12.19.11.19-.04v-6.34c0-.56-.17-.8-.58-.8v-.14h1.37v.14c-.41,0-.58.24-.58.8v7.45h-.66l-5.46-7.24c-.1-.12-.19.01-.19.16v6.14c0,.56.17.8.58.8v.14h-1.37v-.14c.41,0,.58-.24.58-.8Z"/>
  <path class="cls-1" d="m87.32,44.84c.67,0,1.57.1,2.06.17l.48,1.44-.13.02c-.43-.79-1.29-1.46-2.65-1.46-1.92,0-3.12,2.03-3.12,4.16,0,2.9,1.7,4.2,3.26,4.2,1.3,0,2.48-.9,2.48-2.53s-.44-1.96-1.82-2.08l-1.15-.1v-.17h3.81v2.94c-.67,1.42-2,2.13-3.38,2.13-2.06,0-4.22-1.56-4.22-4.4,0-2.58,1.92-4.33,4.38-4.33Z"/>
</svg>