<?xml version="1.0" encoding="utf-8"?>
<svg id="Raster" viewBox="0 3.034 267.725 68.718" xmlns="http://www.w3.org/2000/svg">
  <defs>
    <style>
      .cls-1 {
        fill: #AD9862;
      }
    </style>
  </defs>
  <path class="cls-1" d="m13.71,6.48l-.26.05c-.86-1.58-2.59-2.59-5.06-2.59h-3.38c-.82,0-1.15.43-1.15,1.56v4.42c0,1.2.58,1.42,1.9,1.54l5.23.43v.29l-7.13.19v5.16c0,1.82.72,2.54,2.59,2.54h2.64c3.29,0,4.61-1.01,5.57-3.74l.29.05-.77,4.03H5.3c-.79,0-1.27-.12-1.73-.48l-.77-.6c-.55-.43-.7-.86-.7-1.92V5.49c0-1.13-.34-1.61-1.15-1.61v-.29h11.79l.96,2.88Z"/>
  <path class="cls-1" d="m16.31,15.86l.29-.05c1.32,2.9,3.36,4.56,5.67,4.56s3.96-1.61,3.96-3.89c0-1.75-.98-2.86-3.22-3.77l-1.9-.77c-2.57-1.03-4.13-2.28-4.13-4.49,0-2.66,2.11-4.22,5.76-4.22.89,0,1.8.1,3.53.34l.96,2.88-.26.05c-1.03-1.85-2.78-2.93-4.75-2.93-2.16,0-3.55,1.27-3.55,3.19,0,1.66.94,2.76,3.24,3.7l1.9.77c2.83,1.15,4.22,2.62,4.22,4.7,0,2.76-2.4,4.78-5.93,4.78-1.44,0-3.41-.34-4.78-.79l-1.01-4.06Z"/>
  <path class="cls-1" d="m33.86,3.89v-.29h4.37v.29c-.77,0-1.06.22-1.06.65,0,.19.05.41.24.96l3.84,11.3c.17.48.41.72.65.72s.43-.1.65-.74l3.67-11.02c.17-.5.24-.84.24-1.1,0-.67-.77-.77-1.34-.77v-.29h3.36v.29c-.82,0-1.34.48-1.73,1.61l-.98,2.93,2.86,8.38c.17.48.41.72.65.72s.43-.1.65-.74l3.67-11.02c.17-.5.24-.84.24-1.1,0-.55-.34-.77-1.1-.77v-.29h3.12v.29c-.82,0-1.34.48-1.73,1.61l-5.09,15.24h-.65l-3.48-9.75-3.24,9.75h-.65l-5.42-15.24c-.41-1.13-.94-1.61-1.73-1.61Z"/>
  <path class="cls-1" d="m58.25,18.5V5.49c0-1.13-.34-1.61-1.15-1.61v-.29h4.03v.29c-.82,0-1.15.48-1.15,1.61v13.01c0,1.13.34,1.61,1.15,1.61v.29h-4.03v-.29c.82,0,1.15-.48,1.15-1.61Z"/>
  <path class="cls-1" d="m78.21,20.11v.29h-4.03l-8.26-10.61v8.71c0,1.13.34,1.61,1.15,1.61v.29h-4.03v-.29c.82,0,1.15-.48,1.15-1.61V7.58l-1.39-1.8.12-.12c1.75-1.68,3.5-2.45,5.62-2.45,3.43,0,6.07,2.06,6.07,5.09,0,2.54-1.54,4.42-4.08,5.16l4.32,4.54c1.49,1.58,2.21,2.09,3.36,2.11Zm-7.82-6.79c1.66-.86,2.42-2.74,2.42-4.61,0-2.81-1.46-4.99-4.73-4.99-1.66,0-2.78.36-4.3,1.7-.41.36-.46.53-.07.96l6.67,6.94Z"/>
  <path class="cls-1" d="m78.49,3.6h7.32c4.44,0,8.3,3.53,8.3,8.35s-3.86,8.45-8.3,8.45h-2.98c-.79,0-1.27-.12-1.73-.48l-.77-.6c-.55-.43-.7-.86-.7-1.92V5.49c0-1.13-.34-1.61-1.15-1.61v-.29Zm4.75,16.47h2.57c3.84,0,6.19-4.06,6.19-8.11s-2.35-8.02-6.19-8.02h-3.29c-.82,0-1.15.43-1.15,1.56v12.75c0,1.34.48,1.82,1.87,1.82Z"/>
  <path class="cls-1" d="m113.39,6.48l-.26.05c-.86-1.58-2.59-2.59-5.06-2.59h-3.38c-.82,0-1.15.43-1.15,1.56v4.42c0,1.2.58,1.42,1.9,1.54l5.23.43v.29l-7.13.19v5.16c0,1.82.72,2.54,2.59,2.54h2.64c3.29,0,4.61-1.01,5.57-3.74l.29.05-.77,4.03h-8.86c-.79,0-1.27-.12-1.73-.48l-.77-.6c-.55-.43-.7-.86-.7-1.92V5.49c0-1.13-.34-1.61-1.15-1.61v-.29h11.79l.96,2.88Z"/>
  <path class="cls-1" d="m117.02,18.5V5.49c0-1.13-.34-1.61-1.15-1.61v-.29h4.03v.29c-.82,0-1.15.48-1.15,1.61v13.01c0,1.13.34,1.61,1.15,1.61v.29h-4.03v-.29c.82,0,1.15-.48,1.15-1.61Z"/>
  <path class="cls-1" d="m122.78,18.5V5.49c0-1.13-.34-1.61-1.15-1.61v-.29h2.42l10.97,14.67c.19.24.38.22.38-.07V5.49c0-1.13-.34-1.61-1.15-1.61v-.29h2.74v.29c-.82,0-1.15.48-1.15,1.61v14.91h-1.32l-10.92-14.5c-.19-.24-.38.02-.38.31v12.29c0,1.13.34,1.61,1.15,1.61v.29h-2.74v-.29c.82,0,1.15-.48,1.15-1.61Z"/>
  <path class="cls-1" d="m145.48,15.91l1.06-1.58-5.93-8.42c-.17-.24-.38-.22-.38.07v12.53c0,1.13.34,1.61,1.15,1.61v.29h-2.74v-.29c.82,0,1.15-.48,1.15-1.61V5.49c0-1.13-.34-1.61-1.15-1.61v-.29h2.62l6.31,9.19,6.14-9.19h2.69v.29c-.82,0-1.15.48-1.15,1.61v13.01c0,1.13.34,1.61,1.15,1.61v.29h-4.03v-.29c.82,0,1.15-.48,1.15-1.61V5.97c0-.29-.19-.34-.38-.07l-7.37,10.18-.29-.17Z"/>
  <path class="cls-1" d="m160.25,17.42l5.4-14.16h.7l6.74,15.87c.29.7.82.98,1.46.98v.29h-4.13v-.29c.77,0,1.03-.48.62-1.46l-1.58-3.84-7.85.12-1.03,2.69c-.89,2.33.43,2.5,1.15,2.5v.29h-4.1v-.29c.94,0,1.73-.36,2.62-2.69Zm3.72-3.5l5.35.55-3.62-8.74c-.17-.43-.41-.43-.58,0l-2.69,7.06c-.31.82.34,1.01,1.54,1.13Z"/>
  <path class="cls-1" d="m174.7,3.89v-.29h4.03v.29c-.82,0-1.15.48-1.15,1.61v12.75c0,1.34.48,1.82,1.87,1.82h2.78c3.29,0,4.61-1.01,5.57-3.74l.29.05-.77,4.03h-8.28c-.79,0-1.27-.12-1.73-.48l-.77-.6c-.55-.43-.7-.86-.7-1.92V5.49c0-1.13-.34-1.61-1.15-1.61Z"/>
  <path class="cls-1" d="m58.09,30.48l-.26.05c-.86-1.58-2.59-2.59-5.06-2.59h-3.38c-.82,0-1.15.43-1.15,1.56v4.42c0,1.2.58,1.42,1.9,1.54l5.23.43v.29l-7.13.19v5.16c0,1.82.72,2.54,2.59,2.54h2.64c3.29,0,4.61-1.01,5.57-3.74l.29.05-.77,4.03h-8.86c-.79,0-1.27-.12-1.73-.48l-.77-.6c-.55-.43-.7-.86-.7-1.92v-11.91c0-1.13-.34-1.61-1.15-1.61v-.29h11.79l.96,2.88Z"/>
  <path class="cls-1" d="m61.72,42.5v-13.01c0-1.13-.34-1.61-1.15-1.61v-.29h4.03v.29c-.82,0-1.15.48-1.15,1.61v13.01c0,1.13.34,1.61,1.15,1.61v.29h-4.03v-.29c.82,0,1.15-.48,1.15-1.61Z"/>
  <path class="cls-1" d="m67.48,42.5v-13.01c0-1.13-.34-1.61-1.15-1.61v-.29h2.42l10.97,14.67c.19.24.38.22.38-.07v-12.7c0-1.13-.34-1.61-1.15-1.61v-.29h2.74v.29c-.82,0-1.15.48-1.15,1.61v14.91h-1.32l-10.92-14.5c-.19-.24-.38.02-.38.31v12.29c0,1.13.34,1.61,1.15,1.61v.29h-2.74v-.29c.82,0,1.15-.48,1.15-1.61Z"/>
  <path class="cls-1" d="m87.33,27.89v-.29h4.37v.29c-.77,0-1.06.22-1.06.65,0,.19.05.41.24.96l3.84,11.3c.17.48.41.72.65.72s.43-.1.65-.74l3.67-11.02c.17-.5.24-.84.24-1.1,0-.67-.77-.77-1.34-.77v-.29h3.36v.29c-.82,0-1.34.48-1.73,1.61l-.98,2.93,2.86,8.38c.17.48.41.72.65.72s.43-.1.65-.74l3.67-11.02c.17-.5.24-.84.24-1.1,0-.55-.34-.77-1.1-.77v-.29h3.12v.29c-.82,0-1.34.48-1.73,1.61l-5.09,15.24h-.65l-3.48-9.75-3.24,9.75h-.65l-5.42-15.24c-.41-1.13-.94-1.61-1.73-1.61Z"/>
  <path class="cls-1" d="m110.45,27.89v-.29h4.03v.29c-.82,0-1.15.48-1.15,1.61v8.42c0,3.82,2.18,5.66,5.06,5.66,3.17,0,5.18-1.94,5.18-5.66v-8.42c0-1.13-.34-1.61-1.15-1.61v-.29h2.74v.29c-.82,0-1.15.48-1.15,1.61v8.42c0,4.66-2.66,6.82-6.02,6.82-3.55,0-6.38-2.4-6.38-6.82v-8.42c0-1.13-.34-1.61-1.15-1.61Z"/>
  <path class="cls-1" d="m127.84,42.5v-13.01c0-1.13-.34-1.61-1.15-1.61v-.29h2.42l10.97,14.67c.19.24.38.22.38-.07v-12.7c0-1.13-.34-1.61-1.15-1.61v-.29h2.74v.29c-.82,0-1.15.48-1.15,1.61v14.91h-1.32l-10.92-14.5c-.19-.24-.38.02-.38.31v12.29c0,1.13.34,1.61,1.15,1.61v.29h-2.74v-.29c.82,0,1.15-.48,1.15-1.61Z"/>
  <path class="cls-1" d="m143.69,27.6h7.32c4.44,0,8.3,3.53,8.3,8.35s-3.86,8.45-8.3,8.45h-2.98c-.79,0-1.27-.12-1.73-.48l-.77-.6c-.55-.43-.7-.86-.7-1.92v-11.91c0-1.13-.34-1.61-1.15-1.61v-.29Zm4.75,16.47h2.57c3.84,0,6.19-4.06,6.19-8.11s-2.35-8.02-6.19-8.02h-3.29c-.82,0-1.15.43-1.15,1.56v12.75c0,1.34.48,1.82,1.87,1.82Z"/>
  <path class="cls-1" d="m173.38,30.48l-.26.05c-.86-1.58-2.59-2.59-5.06-2.59h-3.38c-.82,0-1.15.43-1.15,1.56v4.42c0,1.2.58,1.42,1.9,1.54l5.23.43v.29l-7.13.19v5.16c0,1.82.72,2.54,2.59,2.54h2.64c3.29,0,4.61-1.01,5.57-3.74l.29.05-.77,4.03h-8.86c-.79,0-1.27-.12-1.73-.48l-.77-.6c-.55-.43-.7-.86-.7-1.92v-11.91c0-1.13-.34-1.61-1.15-1.61v-.29h11.79l.96,2.88Z"/>
  <path class="cls-1" d="m176.89,42.5v-11.9c0-1.06.14-1.49.7-1.92l.77-.6c.46-.36.94-.48,1.73-.48h2.5c4.22,0,6.31,2.23,6.31,4.75s-2.09,5.09-6.79,5.09h-.14l4.42,4.56c1.51,1.56,2.21,2.09,3.36,2.11v.29h-4.06l-7.06-9.77v7.87c0,1.13.34,1.61,1.15,1.61v.29h-4.03v-.29c.82,0,1.15-.48,1.15-1.61Zm4.73-5.4h.07c4.06,0,5.18-2.38,5.18-4.73s-1.46-4.44-4.3-4.44h-1.37c-1.87,0-2.59.72-2.59,2.54v3.53l3,3.1Z"/>
  <path class="cls-1" d="m190.55,39.86l.29-.05c1.32,2.9,3.36,4.56,5.67,4.56s3.96-1.61,3.96-3.89c0-1.75-.98-2.86-3.22-3.77l-1.9-.77c-2.57-1.03-4.13-2.28-4.13-4.49,0-2.66,2.11-4.22,5.76-4.22.89,0,1.8.1,3.53.34l.96,2.88-.26.05c-1.03-1.85-2.78-2.93-4.75-2.93-2.16,0-3.55,1.27-3.55,3.19,0,1.66.94,2.76,3.24,3.7l1.9.77c2.83,1.15,4.22,2.62,4.22,4.7,0,2.76-2.4,4.78-5.93,4.78-1.44,0-3.41-.34-4.78-.79l-1.01-4.06Z"/>
  <path class="cls-1" d="m205.18,41.42l5.4-14.16h.7l6.74,15.87c.29.7.82.98,1.46.98v.29h-4.13v-.29c.77,0,1.03-.48.62-1.46l-1.58-3.84-7.85.12-1.03,2.69c-.89,2.33.43,2.5,1.15,2.5v.29h-4.1v-.29c.94,0,1.73-.36,2.62-2.69Zm3.72-3.5l5.35.55-3.62-8.74c-.17-.43-.41-.43-.58,0l-2.69,7.06c-.31.82.34,1.01,1.54,1.13Z"/>
  <path class="cls-1" d="m227.55,39.91l1.06-1.58-5.93-8.42c-.17-.24-.38-.22-.38.07v12.53c0,1.13.34,1.61,1.15,1.61v.29h-2.74v-.29c.82,0,1.15-.48,1.15-1.61v-13.01c0-1.13-.34-1.61-1.15-1.61v-.29h2.62l6.31,9.19,6.14-9.19h2.69v.29c-.82,0-1.15.48-1.15,1.61v13.01c0,1.13.34,1.61,1.15,1.61v.29h-4.03v-.29c.82,0,1.15-.48,1.15-1.61v-12.53c0-.29-.19-.34-.38-.07l-7.37,10.18-.29-.17Z"/>
  <path class="cls-1" d="m252.93,30.48l-.26.05c-.86-1.58-2.59-2.59-5.06-2.59h-3.38c-.82,0-1.15.43-1.15,1.56v4.42c0,1.2.58,1.42,1.9,1.54l5.23.43v.29l-7.13.19v5.16c0,1.82.72,2.54,2.59,2.54h2.64c3.29,0,4.61-1.01,5.57-3.74l.29.05-.77,4.03h-8.86c-.79,0-1.27-.12-1.73-.48l-.77-.6c-.55-.43-.7-.86-.7-1.92v-11.91c0-1.13-.34-1.61-1.15-1.61v-.29h11.79l.96,2.88Z"/>
  <path class="cls-1" d="m255.54,39.86l.29-.05c1.32,2.9,3.36,4.56,5.67,4.56s3.96-1.61,3.96-3.89c0-1.75-.98-2.86-3.22-3.77l-1.9-.77c-2.57-1.03-4.13-2.28-4.13-4.49,0-2.66,2.11-4.22,5.76-4.22.89,0,1.8.1,3.53.34l.96,2.88-.26.05c-1.03-1.85-2.78-2.93-4.75-2.93-2.16,0-3.55,1.27-3.55,3.19,0,1.66.94,2.76,3.24,3.7l1.9.77c2.83,1.15,4.22,2.62,4.22,4.7,0,2.76-2.4,4.78-5.93,4.78-1.44,0-3.41-.34-4.78-.79l-1.01-4.06Z"/>
  <path class="cls-1" d="m158.4,63.86l.29-.05c1.32,2.9,3.36,4.56,5.67,4.56s3.96-1.61,3.96-3.89c0-1.75-.98-2.86-3.22-3.77l-1.9-.77c-2.57-1.03-4.13-2.28-4.13-4.49,0-2.66,2.11-4.22,5.76-4.22.89,0,1.8.1,3.53.34l.96,2.88-.26.05c-1.03-1.85-2.78-2.93-4.75-2.93-2.16,0-3.55,1.27-3.55,3.19,0,1.66.94,2.76,3.24,3.7l1.9.77c2.83,1.15,4.22,2.62,4.22,4.7,0,2.76-2.4,4.78-5.93,4.78-1.44,0-3.41-.34-4.78-.79l-1.01-4.06Z"/>
  <path class="cls-1" d="m180.32,51.26c1.34,0,3.14.19,4.13.34l.96,2.88-.26.05c-1.06-1.92-2.98-2.93-4.97-2.93-3.22,0-6.58,2.64-6.58,8.4,0,5.35,3.22,7.8,6.46,7.8,2.78,0,5.59-1.85,6.29-5.26l.36.05c-.79,4.2-3.79,6.12-6.91,6.12-4.01,0-8.23-3.19-8.23-8.79,0-5.16,3.84-8.67,8.76-8.67Z"/>
  <path class="cls-1" d="m187.24,55.58v-1.01l3.36.07v.86l-1.73.02v-2.04c0-1.13-.34-1.61-1.15-1.61v-.29h4.03v.29c-.82,0-1.15.48-1.15,1.61v1.15l11.33.24v.36l-1.73.05v-1.8c0-1.13-.34-1.61-1.15-1.61v-.29h4.03v.29c-.82,0-1.15.48-1.15,1.61v1.39l1.63.05v.29l-1.63.02v11.26c0,1.13.34,1.61,1.15,1.61v.29h-4.03v-.29c.82,0,1.15-.48,1.15-1.61v-6.79l.31.02v.29l-9.91.36v6.12c0,1.13.34,1.61,1.15,1.61v.29h-4.03v-.29c.82,0,1.15-.48,1.15-1.61v-10.97l-1.63.05Zm3.36,2.26c0,1.2.58,1.49,1.9,1.54l7.71.34v-4.42l-9.6.22v2.33Z"/>
  <path class="cls-1" d="m204.78,51.89v-.29h4.03v.29c-.82,0-1.15.48-1.15,1.61v12.75c0,1.34.48,1.82,1.87,1.82h2.78c3.29,0,4.61-1.01,5.57-3.74l.29.05-.77,4.03h-8.28c-.79,0-1.27-.12-1.73-.48l-.77-.6c-.55-.43-.7-.86-.7-1.92v-11.91c0-1.13-.34-1.61-1.15-1.61Z"/>
  <path class="cls-1" d="m235.68,59.93c0,5.16-3.84,8.81-8.28,8.81s-8.28-3.65-8.28-8.81,3.84-8.67,8.28-8.67,8.28,3.5,8.28,8.67Zm-14.52.07c0,4.37,2.4,8.4,6.24,8.4s6.24-4.03,6.24-8.4-2.4-8.4-6.24-8.4-6.24,4.06-6.24,8.4Z"/>
  <path class="cls-1" d="m236.98,63.86l.29-.05c1.32,2.9,3.36,4.56,5.67,4.56s3.96-1.61,3.96-3.89c0-1.75-.98-2.86-3.22-3.77l-1.9-.77c-2.57-1.03-4.13-2.28-4.13-4.49,0-2.66,2.11-4.22,5.76-4.22.89,0,1.8.1,3.53.34l.05.14,3.62,11.45c.96,3.22,3.38,5.21,5.69,5.21s3.96-1.61,3.96-3.89c0-1.75-.98-2.86-3.22-3.77l-1.9-.77c-2.57-1.03-4.13-2.28-4.13-4.49,0-2.66,2.11-4.22,5.76-4.22.89,0,1.8.1,3.53.34l.96,2.88-.26.05c-1.03-1.85-2.78-2.93-4.75-2.93-2.16,0-3.55,1.27-3.55,3.19,0,1.66.94,2.76,3.24,3.7l1.9.77c2.83,1.15,4.22,2.62,4.22,4.7,0,2.76-2.4,4.78-5.93,4.78-1.44,0-3.1-.34-4.46-.79l-1.15-4.06-2.54-8.07c-.94-2.93-3.12-4.22-5.09-4.22-2.16,0-3.55,1.27-3.55,3.19,0,1.66.94,2.76,3.24,3.7l1.9.77c2.83,1.15,4.22,2.62,4.22,4.7,0,2.76-2.4,4.78-5.93,4.78-1.44,0-3.41-.34-4.78-.79l-1.01-4.06Z"/>
  <path class="cls-1" d="m265.4,68.78c-.7,0-1.27-.58-1.27-1.27s.58-1.25,1.27-1.25c.82,0,1.32.7,1.32,1.58,0,1.13-.77,2.57-2.64,3.41l-.17-.29c.94-.41,1.56-1.34,1.49-2.18Z"/>
</svg>