<?xml version="1.0" encoding="UTF-8"?>
<svg id="Layout" xmlns="http://www.w3.org/2000/svg" viewBox="0 0 198.09 383.15">
  <defs>
    <style>
      .cls-1 {
        fill: #f42c04;
      }
    </style>
  </defs>
  <path class="cls-1" d="m36.41,232.09l4.22,10.54-.38.35-11.73-5.4c-.51-.24-.94-.14-1.3.19l-.15-.16,2.26-2.07.15.16c-.42.38-.32.78.4,1.12l2.81,1.33,4.23-4-.8-2c-.69-1.73-1.5-1.16-1.89-.8l-.15-.16,2.24-2.06.15.16c-.51.47-.76,1.07-.07,2.8Zm-.26,3.8l-3.21,2.38,6.41,3.02c.31.15.44.03.31-.29l-2.11-5.25c-.24-.61-.69-.39-1.41.15Z"/>
  <path class="cls-1" d="m35.75,246.51l.16.14-1.98,2.24-.16-.14c.4-.45.3-.88-.34-1.44l-7.15-6.34c-.75-.67-1.26-.64-1.94.13l-1.37,1.54c-1.62,1.83-1.7,3.06-.63,4.95l-.17.14-1.89-2.43,4.07-4.6c.39-.44.69-.65,1.12-.72l.71-.13c.51-.09.83.04,1.42.57l6.68,5.92c.63.56,1.07.61,1.47.16Z"/>
  <path class="cls-1" d="m21.51,249.22l-.09.2c-2.35-.43-4.23.1-5.2,1.51-.96,1.39-.68,3.1.73,4.07,1.08.75,2.18.62,3.68-.35l1.27-.83c1.72-1.13,3.15-1.54,4.51-.6,1.64,1.14,1.71,3.09.18,5.31-.37.54-.82,1.06-1.69,2.01l-2.18-.64.08-.18c1.58.16,2.98-.45,3.81-1.65.91-1.32.71-2.71-.47-3.53-1.02-.71-2.1-.61-3.65.4l-1.27.83c-1.9,1.24-3.39,1.46-4.68.57-1.7-1.18-1.93-3.5-.45-5.65.61-.88,1.64-1.93,2.5-2.57l2.93,1.12Z"/>
  <path class="cls-1" d="m12.92,270.16c-3.49-1.66-4.74-5.4-3.33-8.38,1.41-2.97,5.1-4.37,8.6-2.71,3.49,1.66,4.65,5.36,3.23,8.33-1.41,2.97-5,4.42-8.5,2.76Zm4.57-9.74c-2.96-1.41-6.45-1.1-7.67,1.47-1.22,2.57.75,5.47,3.7,6.88,2.94,1.4,6.45,1.1,7.67-1.47,1.22-2.57-.76-5.48-3.7-6.88Z"/>
  <path class="cls-1" d="m4.93,277.05l-.21-.04.52-2.94.21.04c-.11.6.21.9,1.04,1.05l9.61,1.7c.83.15,1.23-.04,1.34-.63l.21.04-1.48,8.36-2.25.33v-.2c1.28-.42,2.25-1.55,2.57-3.36l.39-2.22c.11-.6-.17-.9-1-1.04l-3.44-.61c-.89-.16-1.12.24-1.38,1.18l-.95,3.52-.21-.04.73-4.98-4.36-.77c-.83-.15-1.23.04-1.34.63Z"/>
  <path class="cls-1" d="m10.28,297.11c-3.86.18-6.73-2.53-6.89-5.82-.16-3.29,2.44-6.26,6.31-6.45,3.87-.18,6.62,2.54,6.78,5.82.16,3.29-2.33,6.26-6.2,6.44Zm-.56-10.75c-3.27.16-6.21,2.08-6.07,4.92.13,2.84,3.24,4.48,6.51,4.32,3.25-.16,6.21-2.08,6.07-4.92-.13-2.84-3.26-4.48-6.51-4.32Z"/>
  <path class="cls-1" d="m16.42,297.24l.21-.04.59,2.93-.21.04c-.12-.59-.52-.77-1.35-.6l-9.37,1.89c-.99.2-1.27.62-1.07,1.63l.41,2.02c.48,2.39,1.42,3.2,3.57,3.49v.22s-3.07.04-3.07.04l-1.21-6.02c-.12-.58-.1-.94.1-1.33l.33-.65c.24-.47.53-.63,1.31-.79l8.75-1.76c.83-.17,1.13-.48,1.01-1.08Z"/>
  <path class="cls-1" d="m20.99,312.99c.33.94.64,2.25.79,2.97l-1.8,1.39-.1-.17c.91-1,1.43-2.55.75-4.44-.95-2.68-4.42-3.34-7.43-2.27-4.11,1.46-5.09,4.49-4.32,6.67.64,1.81,2.5,3.02,4.81,2.2,2.21-.78,2.55-1.6,2.03-3.59l-.44-1.66.24-.08,1.89,5.33-4.16,1.48c-2.33-.23-4.01-1.73-4.7-3.66-1.02-2.88.11-6.69,4.13-8.12,3.65-1.3,7.08.51,8.3,3.95Z"/>
  <path class="cls-1" d="m14.56,326.81l9.71-5.01-.38-.73c-.84-1.63-2.1-2.42-3.45-2.44l-.06-.19,2.25-.36,4.31,8.35-1.59,1.62-.12-.16c.76-1.11.85-2.6,0-4.23l-.38-.73-9.71,5.01c-.75.39-.96.77-.68,1.31l-.19.1-1.37-2.66.19-.1c.28.54.71.59,1.46.21Z"/>
  <path class="cls-1" d="m29.13,330.05l3.3,4.3c2,2.61,1.65,6.49-1.22,8.7-2.88,2.21-6.77,1.58-8.78-1.03l-1.34-1.75c-.36-.47-.5-.8-.5-1.24v-.73c.02-.52.21-.8.84-1.29l7.08-5.43c.67-.51.81-.93.44-1.41l.17-.13Zm-7.65,10.31l1.16,1.51c1.73,2.26,5.21,1.79,7.62-.06,2.38-1.83,3.71-5.04,1.97-7.3l-1.48-1.93c-.37-.48-.78-.48-1.45.04l-7.58,5.82c-.8.61-.87,1.11-.24,1.93Z"/>
  <path class="cls-1" d="m41.61,347.61l-.16-.11c.38-1.29,0-2.73-1.3-4.02l-1.78-1.77c-.43-.43-.83-.37-1.43.23l-2.33,2.35c-.63.64-.44,1.05.19,1.81l2.53,2.96-.15.15-3.85-3.62-2.72,2.75c-.96.97-.96,1.73.02,2.71l1.39,1.38c1.73,1.72,2.96,1.87,4.91.91l.13.18-2.53,1.75-4.66-4.62c-.42-.41-.61-.73-.66-1.16l-.09-.72c-.06-.52.09-.82.65-1.39l6.28-6.34c.6-.6.67-1.03.24-1.46l.15-.15,6.2,6.15-1.01,2.04Z"/>
  <path class="cls-1" d="m42.44,357.3l1.33-.49.2-7.69c0-.22-.13-.3-.26-.12l-5.56,7.58c-.5.68-.51,1.12-.02,1.48l-.13.17-1.64-1.2.13-.17c.49.36.9.21,1.4-.47l5.77-7.87c.5-.68.51-1.12.03-1.48l.13-.17,1.56,1.15-.31,8.33,7.75-2.86,1.61,1.18-.13.17c-.49-.36-.9-.21-1.4.47l-5.77,7.87c-.5.68-.51,1.12-.03,1.48l-.13.17-2.41-1.77.13-.17c.49.36.9.21,1.4-.47l5.56-7.58c.13-.17.04-.29-.2-.21l-8.92,2.92-.1-.23Z"/>
  <path class="cls-1" d="m57.01,356.58l.09-.2,2.96,1.31-.09.2c-.52-.23-.78-.17-.91.13-.06.13-.09.29-.13.73l-.83,8.91c-.03.38.06.62.22.69.16.07.32.06.67-.32l5.83-6.46c.27-.3.42-.5.5-.69.2-.46-.29-.76-.68-.93l.09-.2,2.28,1.01-.09.2c-.55-.25-1.06-.07-1.66.58l-1.55,1.71-.6,6.6c-.03.38.06.62.22.69.16.07.32.06.66-.32l5.83-6.46c.27-.29.42-.5.5-.69.17-.38,0-.63-.51-.86l.09-.2,2.11.94-.09.2c-.55-.24-1.06-.07-1.66.58l-8.07,8.93-.44-.19.6-7.73-5.15,5.71-.44-.19.95-12.08c.07-.9-.15-1.38-.68-1.62Z"/>
  <path class="cls-1" d="m80.74,367.24h-.2c-.32-1.33-1.36-2.38-3.13-2.85l-2.42-.64c-.58-.15-.91.1-1.12.91l-.84,3.2c-.23.87.14,1.14,1.06,1.47l3.67,1.3-.05.21-5.14-1.21-.99,3.74c-.35,1.32.03,1.98,1.37,2.33l1.89.5c2.36.62,3.5.14,4.71-1.67l.2.09-1.32,2.78-6.35-1.67c-.57-.15-.89-.33-1.15-.67l-.44-.58c-.31-.42-.33-.76-.13-1.52l2.28-8.64c.22-.82.07-1.23-.52-1.38l.06-.21,8.44,2.22.14,2.27Z"/>
  <path class="cls-1" d="m81.62,376.49l1.68-9.61c.15-.83-.04-1.23-.63-1.33l.04-.21,2.95.51-.04.21c-.6-.1-.9.21-1.05,1.04l-1.68,9.61c-.15.83.04,1.23.63,1.33l-.04.21-2.95-.52.04-.21c.6.1.9-.21,1.05-1.04Z"/>
  <path class="cls-1" d="m85.52,375.22h.22c.76,2.25,2.14,3.63,3.84,3.8,1.68.17,3.04-.91,3.21-2.61.13-1.31-.51-2.2-2.09-3.05l-1.34-.71c-1.82-.96-2.88-2-2.71-3.65.2-1.99,1.87-3,4.56-2.73.65.06,1.32.2,2.58.51l.5,2.22-.2.02c-.62-1.46-1.84-2.39-3.29-2.53-1.59-.16-2.71.69-2.86,2.12-.12,1.24.49,2.13,2.12,3l1.34.71c2,1.07,2.92,2.26,2.77,3.82-.2,2.06-2.12,3.39-4.72,3.13-1.06-.1-2.49-.5-3.46-.94l-.44-3.1Z"/>
  <path class="cls-1" d="m95.75,376.09l.21-.03c.95,2.19,2.44,3.46,4.15,3.49,1.69.03,2.95-1.16,2.98-2.87.02-1.31-.7-2.15-2.34-2.86l-1.4-.6c-1.89-.8-3.03-1.76-3.01-3.41.03-2,1.61-3.14,4.32-3.1.66.01,1.33.09,2.61.29l.68,2.17-.2.03c-.74-1.4-2.03-2.23-3.49-2.25-1.6-.02-2.65.91-2.67,2.35-.02,1.24.66,2.08,2.36,2.81l1.4.6c2.09.9,3.1,2.01,3.08,3.58-.03,2.07-1.83,3.56-4.45,3.51-1.07-.02-2.52-.29-3.53-.65l-.7-3.05Z"/>
  <path class="cls-1" d="m114.61,368.09l-.19.06c-.77-1.11-2.12-1.72-3.94-1.52l-2.49.27c-.6.07-.81.42-.72,1.26l.36,3.29c.1.9.54,1.01,1.52.99l3.89-.1.02.21-5.24.72.42,3.85c.15,1.36.74,1.84,2.12,1.69l1.95-.21c2.42-.27,3.31-1.12,3.8-3.24h.22s-.23,3.08-.23,3.08l-6.53.71c-.58.06-.95.01-1.31-.22l-.62-.39c-.44-.28-.58-.59-.67-1.38l-.98-8.88c-.09-.84-.38-1.17-.98-1.11l-.02-.21,8.68-.95.94,2.07Z"/>
  <path class="cls-1" d="m118.94,376.5l-2.34-9.47c-.2-.82-.53-1.11-1.12-.97l-.05-.21,1.74-.43,10.53,8.73c.18.14.32.09.26-.12l-2.28-9.24c-.2-.82-.53-1.11-1.12-.97l-.05-.21,1.97-.49.05.21c-.59.14-.74.55-.54,1.38l2.68,10.85-.95.23-10.47-8.62c-.18-.14-.27.09-.22.29l2.21,8.95c.2.82.53,1.11,1.12.97l.05.21-1.97.49-.05-.21c.59-.14.74-.55.54-1.38Z"/>
  <path class="cls-1" d="m145.08,368.92l-2.67,1.19-6.32-4.51-.88,2.21,1.48,3.3c.34.77.72,1,1.27.75l.09.2-2.73,1.22-.09-.2c.55-.25.63-.68.29-1.45l-3.98-8.91c-.34-.77-.72-1-1.27-.75l-.09-.2,2.73-1.22.09.2c-.55.25-.63.68-.29,1.45l2.34,5.24,2.41-6.04c.58-1.46.41-2.79-1.33-2.01l-.49.22-.1-.23,3.46-1.55.1.23-2.69,6.76,5.82,3.39c1.37.79,1.97.83,2.76.5l.09.2Z"/>
  <path class="cls-1" d="m146.96,365.26l-2.33-11.11.43-.28,10.61,7.35c.46.33.91.3,1.31.04l.12.18-2.58,1.65-.12-.18c.48-.31.45-.71-.2-1.17l-2.54-1.8-4.86,3.2.44,2.11c.38,1.83,1.28,1.41,1.73,1.12l.12.18-2.56,1.64-.12-.18c.58-.37.93-.92.55-2.74Zm.91-3.7l3.57-1.78-5.79-4.08c-.28-.21-.43-.11-.36.23l1.17,5.54c.13.64.62.5,1.41.1Z"/>
  <path class="cls-1" d="m158.4,358.56l-6.42-7.34c-.56-.64-.98-.74-1.44-.35l-.14-.16,1.35-1.18,13.36,2.93c.23.04.32-.06.18-.23l-6.26-7.17c-.56-.64-.98-.74-1.44-.35l-.14-.16,1.53-1.33.14.16c-.46.4-.41.83.15,1.47l7.35,8.42-.74.64-13.25-2.86c-.23-.04-.2.2-.06.36l6.06,6.94c.56.64.98.74,1.44.35l.14.16-1.53,1.33-.14-.16c.46-.4.41-.83-.15-1.47Z"/>
  <path class="cls-1" d="m168.16,349.52l-7.11-6.67c-.62-.58-1.05-.64-1.46-.2l-.16-.15,2.05-2.18.16.15c-.41.44-.32.87.29,1.45l7.11,6.67c.62.58,1.05.64,1.46.2l.16.15-2.05,2.18-.16-.15c.41-.44.32-.87-.29-1.45Z"/>
  <path class="cls-1" d="m171.53,345.96l-7.74-5.94c-.67-.52-1.11-.54-1.48-.06l-.17-.13,1.09-1.43,13.68.24c.23,0,.3-.13.13-.26l-7.56-5.8c-.67-.51-1.11-.54-1.48-.06l-.17-.13,1.24-1.61.17.13c-.37.48-.23.9.44,1.41l8.87,6.8-.6.78-13.56-.2c-.23,0-.16.24.01.37l7.31,5.61c.67.51,1.11.54,1.48.06l.17.13-1.24,1.61-.17-.13c.37-.48.23-.9-.44-1.41Z"/>
  <path class="cls-1" d="m172.2,324.75c.49-.87,1.27-1.96,1.72-2.54l2.23.44-.07.19c-1.64-.02-3,.84-3.72,2.13-1.17,2.08-.67,5.22,3.1,7.34,3.5,1.97,6.27.79,7.45-1.3,1.01-1.8.83-4.29-1.15-6l.16-.21c2.46,2.06,2.62,4.7,1.49,6.72-1.46,2.59-5.08,4.14-8.73,2.08-3.37-1.9-4.27-5.67-2.48-8.85Z"/>
  <path class="cls-1" d="m188.48,316.22l-4.75-1.84.1-.21.2.08-2.4,6.95,4.28,1.66c.79.31,1.21.2,1.43-.36l.2.08-1.08,2.79-.2-.08c.22-.56-.03-.93-.82-1.23l-9.1-3.52c-.79-.31-1.21-.2-1.43.36l-.2-.08,1.08-2.79.2.08c-.22.56.03.93.82,1.23l3.04,1.18c.84.33,1.19,0,1.58-.89l2.3-5.23-4.35-1.68c-.79-.31-1.21-.2-1.43.36l-.2-.08,1.08-2.79.2.08c-.22.56.03.93.82,1.23l9.1,3.52c.79.31,1.21.2,1.43-.36l.2.08-1.08,2.79-.2-.08c.22-.56-.03-.93-.82-1.23Z"/>
  <path class="cls-1" d="m183.14,300.92v.2c-1.31.36-2.33,1.44-2.74,3.23l-.56,2.45c-.13.59.13.91.95,1.09l3.23.74c.88.2,1.13-.18,1.44-1.12l1.18-3.71.21.05-1.03,5.18,3.77.86c1.33.3,1.98-.1,2.29-1.45l.43-1.91c.54-2.38.02-3.5-1.82-4.65l.08-.2,2.82,1.23-1.46,6.4c-.13.57-.3.9-.63,1.17l-.57.46c-.41.33-.75.36-1.52.18l-8.7-1.98c-.83-.19-1.23-.02-1.37.57l-.21-.05,1.94-8.52,2.26-.21Z"/>
  <path class="cls-1" d="m192.5,299.47l-9.73-.75c-.84-.07-1.22.16-1.27.76l-.21-.02.14-1.79,11.59-7.26c.19-.13.18-.27-.03-.29l-9.49-.74c-.84-.06-1.22.16-1.27.76l-.22-.02.16-2.02.21.02c-.05.6.29.88,1.14.94l11.14.86-.08.98-11.46,7.24c-.19.13,0,.29.21.3l9.19.71c.84.07,1.22-.16,1.27-.76l.22.02-.16,2.02-.21-.02c.05-.6-.29-.88-1.14-.95Z"/>
  <path class="cls-1" d="m192.84,282.02l-9.71.96c-.84.08-1.18.37-1.12.97l-.21.02-.29-2.97.21-.02c.06.6.44.81,1.28.73l9.71-.96c.84-.08,1.18-.37,1.12-.97l.21-.02.29,2.97-.21.02c-.06-.6-.44-.81-1.28-.73Z"/>
  <path class="cls-1" d="m192.36,276.92l-9.49,2.24c-.82.19-1.12.52-.98,1.11l-.21.05-.41-1.75,8.83-10.44c.14-.18.09-.31-.12-.26l-9.27,2.19c-.82.19-1.12.52-.98,1.11l-.21.05-.47-1.97.21-.05c.14.59.55.75,1.37.55l10.88-2.57.23.95-8.72,10.38c-.14.18.08.27.29.22l8.97-2.12c.82-.19,1.12-.52.98-1.11l.21-.05.47,1.97-.21.05c-.14-.59-.55-.75-1.37-.55Z"/>
  <path class="cls-1" d="m187.34,265.47l-.12-.18c1.62-1.75,2.18-3.63,1.51-5.2-.66-1.56-2.26-2.23-3.83-1.56-1.21.51-1.69,1.51-1.67,3.3l.02,1.52c.03,2.05-.38,3.48-1.9,4.13-1.84.78-3.53-.2-4.58-2.69-.26-.61-.45-1.26-.79-2.5l1.71-1.5.11.17c-.98,1.25-1.22,2.76-.65,4.1.62,1.47,1.91,2.05,3.23,1.49,1.14-.49,1.63-1.45,1.62-3.29l-.02-1.52c-.02-2.27.58-3.65,2.03-4.26,1.91-.81,3.99.24,5.01,2.64.42.98.75,2.42.83,3.49l-2.51,1.88Z"/>
  <path class="cls-1" d="m174.35,257.95l-.18.12-1.85-2.66.18-.12c.33.47.58.55.85.36.12-.08.23-.2.49-.56l5.32-7.19c.22-.31.27-.56.17-.7-.1-.15-.24-.22-.73-.07l-8.33,2.5c-.38.12-.62.22-.78.33-.41.29-.15.8.1,1.15l-.18.12-1.43-2.04.18-.12c.35.5.87.61,1.72.36l2.22-.66,3.94-5.34c.22-.31.27-.56.17-.7-.1-.15-.24-.22-.73-.07l-8.33,2.5c-.38.11-.62.21-.78.33-.34.24-.33.53,0,1l-.18.12-1.33-1.9.18-.12c.35.5.87.61,1.72.36l11.53-3.46.28.39-4.51,6.3,7.37-2.22.28.39-7.07,9.85c-.52.73-.59,1.26-.25,1.74Z"/>
  <path class="cls-1" d="m164.69,244.56l-.16.15-2.02-2.21.16-.15c.41.45.84.39,1.47-.19l4.66-4.27c2.11-1.93,2.04-4.06.6-5.64-1.59-1.73-3.67-1.85-5.73.04l-4.66,4.27c-.62.57-.72,1-.31,1.44l-.16.15-1.37-1.5.16-.15c.41.45.84.39,1.47-.18l4.66-4.27c2.58-2.36,5.1-2,6.79-.16,1.78,1.94,1.87,4.71-.57,6.94l-4.66,4.27c-.62.57-.72,1-.31,1.44Z"/>
  <path class="cls-1" d="m163.6,227.38l-6.62,7.16c-.58.62-.64,1.05-.19,1.46l-.15.16-1.32-1.22,1.5-13.6c.02-.23-.1-.31-.25-.15l-6.47,6.99c-.57.62-.64,1.05-.19,1.46l-.15.16-1.49-1.38.15-.16c.44.41.87.32,1.45-.3l7.59-8.21.72.67-1.44,13.48c-.02.23.22.18.37.02l6.26-6.77c.58-.62.64-1.05.19-1.47l.15-.16,1.49,1.38-.15.16c-.44-.41-.87-.32-1.45.31Z"/>
  <path class="cls-1" d="m147.58,227.85l-4.2-3.43c-2.55-2.08-3.09-5.95-.81-8.75,2.3-2.82,6.23-3.1,8.77-1.01l1.71,1.4c.45.37.67.67.76,1.09l.16.71c.11.51-.01.83-.51,1.44l-5.65,6.92c-.54.66-.57,1.09-.1,1.47l-.14.17Zm5.08-11.8l-1.47-1.21c-2.2-1.8-5.48-.55-7.4,1.81-1.9,2.33-2.45,5.76-.25,7.56l1.89,1.54c.47.38.87.29,1.4-.37l6.04-7.41c.64-.78.59-1.29-.21-1.94Z"/>
  <path class="cls-1" d="m131.82,212.75l.18.09c-.2,1.33.37,2.71,1.84,3.81l2.01,1.5c.48.36.88.25,1.38-.42l1.99-2.65c.54-.72.29-1.11-.43-1.76l-2.91-2.58.13-.17,4.31,3.05,2.32-3.1c.82-1.09.72-1.85-.39-2.68l-1.57-1.17c-1.95-1.46-3.19-1.44-4.99-.23l-.15-.16,2.27-2.08,5.25,3.94c.47.35.7.64.81,1.06l.19.7c.13.5.02.83-.45,1.46l-5.35,7.14c-.51.68-.52,1.11-.04,1.48l-.13.17-6.99-5.24.73-2.15Z"/>
  <path class="cls-1" d="m135.2,204.08l-5.15,7.3c-.46.65-.73.85-1.25.88l-.72.04c-.43.03-.77-.11-1.25-.45l-1.51-1.07c-2.56-1.81-2.85-4.07-1.76-5.61,1.09-1.54,3.47-2.22,6.31-.21l.09.06-.7-4.68c-.24-1.6-.43-2.22-1.12-2.73l.12-.18,2.46,1.74.04,9.01,3.41-4.83c.49-.69.49-1.13,0-1.48l.12-.18,2.44,1.72-.12.18c-.49-.35-.91-.2-1.39.49Zm-5.2,1.29l-.04-.03c-2.46-1.74-4.17-.76-5.18.68-1.02,1.44-1.04,3.35.68,4.56l.83.59c1.13.8,1.88.67,2.67-.45l1.53-2.16-.48-3.18Z"/>
  <path class="cls-1" d="m121,207.49l-.12.18-2.47-1.68.12-.18c.5.34.91.18,1.38-.52l5.36-7.91c.57-.83.47-1.33-.38-1.91l-1.71-1.16c-2.02-1.37-3.25-1.29-4.99,0l-.16-.15,2.17-2.18,5.08,3.45c.49.33.73.6.86,1.02l.22.69c.16.5.06.83-.38,1.48l-5.01,7.39c-.47.7-.47,1.14.03,1.48Z"/>
  <path class="cls-1" d="m116.5,192.21l-9.19,6.65-.43-.28,2.38-12.68c.11-.55-.1-.95-.5-1.21l.12-.18,2.55,1.68-.12.18c-.48-.31-.84-.12-.99.66l-.61,3.05,4.91,3.13,1.75-1.26c1.51-1.09.76-1.74.32-2.03l.12-.18,2.54,1.67-.12.18c-.58-.38-1.22-.48-2.73.61Zm-3.75.67l-3.08-2.53-1.37,6.95c-.07.34.07.44.36.23l4.58-3.32c.53-.38.21-.77-.48-1.33Z"/>
  <path class="cls-1" d="m106.67,184.77l-5.34,8.16c-.46.71-.45,1.14.05,1.48l-.12.18-1.5-.98-.78-13.65c-.02-.23-.15-.29-.27-.11l-5.21,7.97c-.46.71-.45,1.15.05,1.48l-.12.18-1.7-1.11.12-.18c.51.33.91.17,1.38-.54l6.12-9.35.82.54.82,13.53c.02.23.25.14.37-.04l5.05-7.71c.46-.71.45-1.14-.05-1.48l.12-.18,1.7,1.11-.12.18c-.51-.33-.91-.17-1.38.54Z"/>
  <path class="cls-1" d="m90.67,187.67l-4.53-2.99c-2.75-1.81-3.68-5.6-1.68-8.62,2.01-3.03,5.89-3.71,8.63-1.89l1.84,1.22c.49.32.74.59.87,1.01l.23.69c.16.5.07.83-.36,1.49l-4.93,7.45c-.47.71-.46,1.14.05,1.48l-.12.18Zm3.87-12.24l-1.59-1.05c-2.38-1.57-5.51,0-7.19,2.54-1.66,2.51-1.86,5.98.51,7.55l2.03,1.34c.5.33.89.2,1.36-.5l5.27-7.97c.56-.84.46-1.34-.4-1.91Z"/>
  <path class="cls-1" d="m77.01,178.33l-.12.18-2.46-1.7.12-.18c.5.34.91.19,1.39-.51l3.59-5.2c1.63-2.35,1.08-4.41-.67-5.63-1.93-1.33-3.99-.99-5.58,1.31l-3.59,5.2c-.48.7-.48,1.13.02,1.48l-.12.18-1.67-1.15.12-.18c.5.34.91.19,1.39-.51l3.59-5.2c1.99-2.87,4.53-3.08,6.58-1.66,2.17,1.5,2.87,4.17.99,6.89l-3.59,5.19c-.48.7-.48,1.13.02,1.48Z"/>
  <path class="cls-1" d="m72.7,161.99l-5.78,7.86c-.5.68-.51,1.12-.03,1.48l-.13.17-1.45-1.07-.03-13.67c0-.23-.13-.3-.26-.13l-5.64,7.67c-.5.68-.51,1.12-.03,1.48l-.13.17-1.63-1.2.13-.17c.49.36.9.22,1.4-.47l6.62-9,.79.58.08,13.55c0,.23.24.15.37-.02l5.46-7.42c.5-.68.51-1.12.03-1.48l.13-.17,1.63,1.2-.13.17c-.49-.36-.9-.22-1.4.47Z"/>
  <path class="cls-1" d="m56.29,163.77l-4.23-3.4c-2.56-2.06-3.13-5.92-.87-8.74,2.28-2.83,6.21-3.14,8.77-1.08l1.72,1.38c.46.37.68.66.77,1.08l.16.71c.12.51,0,.83-.5,1.45l-5.6,6.96c-.53.66-.56,1.1-.09,1.47l-.13.17Zm5-11.83l-1.48-1.19c-2.22-1.78-5.48-.51-7.39,1.86-1.89,2.34-2.41,5.78-.2,7.56l1.9,1.53c.47.38.87.28,1.4-.38l6-7.45c.63-.79.58-1.29-.22-1.94Z"/>
  <path class="cls-1" d="m37.71,144.8l.17.11c-.35,1.3.06,2.73,1.39,3.99l1.82,1.72c.44.42.84.35,1.42-.26l2.27-2.41c.62-.65.42-1.06-.23-1.8l-2.59-2.9.15-.16,3.94,3.53,2.66-2.81c.94-.99.92-1.75-.09-2.71l-1.42-1.34c-1.77-1.67-3-1.8-4.93-.8l-.13-.17,2.49-1.81,4.77,4.51c.43.4.62.71.68,1.14l.1.72c.08.52-.07.83-.61,1.4l-6.13,6.49c-.58.62-.65,1.05-.21,1.46l-.15.16-6.35-6,.97-2.06Z"/>
  <path class="cls-1" d="m42.16,136.48l-6.63,5.98c-.59.53-.9.67-1.42.58l-.72-.12c-.43-.07-.73-.27-1.12-.71l-1.24-1.37c-2.1-2.33-1.89-4.6-.49-5.86,1.4-1.27,3.87-1.41,6.21,1.18l.07.08.35-4.72c.12-1.62.07-2.26-.49-2.91l.16-.14,2.01,2.23-1.94,8.79,4.38-3.95c.63-.57.73-.99.32-1.44l.16-.15,2,2.22-.16.14c-.41-.45-.84-.39-1.47.17Zm-5.36.11l-.04-.04c-2.01-2.23-3.9-1.66-5.21-.48-1.31,1.18-1.75,3.04-.34,4.6l.68.75c.93,1.03,1.69,1.07,2.7.15l1.96-1.77.23-3.21Z"/>
  <path class="cls-1" d="m22.6,129.94l1.33,1.83c1.03,1.41,2.36,2.09,3.78,1.89l.09.18-2.17.7-3.31-4.55c-.44-.6-.53-.94-.36-1.72l.18-.82c.23-1,.94-1.15,2.51-1.05l9.91.62c.48.02.68-.25.34-.73l-1.75-2.4c-1.55-2.13-2.64-2.83-5.01-2.12l-.1-.19,2.78-1.32,5.63,7.74-.52.38-11.14-.63c-2.23-.13-3.21.79-2.19,2.19Z"/>
  <path class="cls-1" d="m13.37,119.62c-.19-.36-.04-.84.33-1.04s.87-.06,1.06.31c.2.38.05.86-.33,1.06-.37.19-.85.05-1.05-.33Zm1.83,3.46c-.19-.36-.04-.84.33-1.04.38-.2.87-.06,1.06.3.2.38.05.86-.33,1.06s-.85.05-1.05-.33Zm12.29-3.94l-11.25,1.43-.24-.46,8.17-9.98c.36-.43.37-.88.14-1.3l.19-.1,1.43,2.7-.19.1c-.27-.5-.68-.51-1.19.1l-1.99,2.38,2.8,5.1,2.14-.27c1.85-.24,1.5-1.16,1.25-1.63l.19-.1,1.42,2.69-.19.1c-.33-.61-.84-1.01-2.69-.77Zm-3.61-1.21l-1.49-3.7-4.53,5.44c-.23.26-.14.42.2.38l5.61-.72c.65-.08.55-.57.21-1.4Z"/>
  <path class="cls-1" d="m20.29,99.94l-4.87,1.5-.05-.23.21-.06,2.43,6.94,4.39-1.35c.81-.25,1.08-.59.9-1.17l.21-.06.88,2.86-.21.06c-.18-.58-.6-.71-1.4-.46l-9.32,2.88c-.81.25-1.08.59-.9,1.17l-.21.06-.88-2.86.21-.06c.18.58.6.71,1.4.46l3.11-.96c.86-.27.94-.74.69-1.68l-1.44-5.53-4.45,1.38c-.81.25-1.08.59-.9,1.17l-.21.06-.88-2.86.21-.06c.18.58.6.71,1.4.46l9.32-2.88c.81-.25,1.08-.59.9-1.17l.21-.06.88,2.86-.21.06c-.18-.58-.6-.71-1.4-.46Z"/>
  <path class="cls-1" d="m8.65,98.15l-.21.02-.33-2.97.21-.02c.07.6.45.81,1.29.72l9.5-1.05c1-.11,1.32-.5,1.21-1.53l-.23-2.05c-.27-2.42-1.13-3.31-3.25-3.79v-.22s3.08.23,3.08.23l.68,6.1c.06.58.01.95-.22,1.31l-.38.62c-.28.44-.59.58-1.37.67l-8.87.98c-.84.09-1.17.38-1.1.98Z"/>
  <path class="cls-1" d="m18.65,83.9l-10.92-.33-.03.82c-.06,1.83.66,3.13,1.83,3.81l-.04.19-2.14-.78.29-9.39,2.18-.65.03.2c-1.21.6-2,1.86-2.06,3.69l-.03.82,10.92.33c.84.03,1.21-.21,1.23-.82h.22s-.09,2.99-.09,2.99h-.22c.02-.61-.33-.87-1.18-.9Z"/>
  <path class="cls-1" d="m18.73,68.41l-.94-1.07-7.25,2.58c-.21.07-.23.23-.02.29l9.07,2.46c.82.22,1.23.08,1.39-.51l.21.06-.53,1.96-.21-.06c.16-.58-.12-.92-.94-1.14l-9.42-2.56c-.82-.22-1.23-.08-1.39.51l-.21-.06.51-1.87,7.88-2.71-5.46-6.2.52-1.92.21.06c-.16.58.12.92.94,1.14l9.42,2.55c.82.22,1.23.08,1.39-.51l.21.06-.78,2.88-.21-.06c.16-.58-.12-.92-.94-1.14l-9.07-2.46c-.21-.06-.28.07-.13.26l5.94,7.27-.18.17Z"/>
  <path class="cls-1" d="m23.77,59.35l-8.98-3.81c-.78-.33-1.21-.24-1.44.31l-.2-.08,1.17-2.75.2.08c-.24.56,0,.93.78,1.26l8.98,3.81c.78.33,1.21.24,1.44-.31l.2.08-1.17,2.75-.2-.08c.24-.56,0-.93-.78-1.26Z"/>
  <path class="cls-1" d="m27.01,52.59l-9.52-5.36-.4.71c-.9,1.6-.87,3.08-.15,4.23l-.13.15-1.53-1.68,4.61-8.19,2.23.44-.06.19c-1.35-.03-2.64.72-3.54,2.32l-.4.71,9.52,5.36c.74.42,1.17.38,1.47-.15l.19.11-1.47,2.6-.19-.11c.3-.53.11-.92-.63-1.34Z"/>
  <path class="cls-1" d="m33.2,43.26l-7.61-6.1c-.66-.53-1.1-.56-1.48-.09l-.17-.14,1.87-2.33.17.14c-.38.47-.25.89.41,1.42l7.61,6.1c.66.53,1.1.56,1.48.09l.17.13-1.87,2.33-.17-.13c.38-.47.25-.89-.41-1.42Z"/>
  <path class="cls-1" d="m41.72,34.09l-3.57-3.63.18-.15.15.15-5.05,5.34,3.22,3.27c.59.6,1.02.69,1.46.26l.15.15-2.13,2.09-.15-.15c.43-.42.36-.86-.24-1.46l-6.84-6.96c-.59-.6-1.02-.68-1.46-.26l-.15-.15,2.13-2.09.15.15c-.43.42-.36.86.24,1.46l2.28,2.32c.63.64,1.09.5,1.81-.16l4.25-3.82-3.27-3.32c-.59-.6-1.02-.69-1.46-.26l-.15-.15,2.13-2.09.15.15c-.43.42-.36.85.24,1.46l6.84,6.96c.59.6,1.02.69,1.46.26l.15.15-2.13,2.09-.15-.15c.43-.42.36-.85-.24-1.46Z"/>
  <path class="cls-1" d="m44.69,31.5l-5.57-8c-.48-.69-.89-.85-1.39-.5l-.12-.18,1.48-1.03,12.96,4.38c.22.07.33-.03.2-.21l-5.44-7.81c-.48-.69-.89-.85-1.39-.5l-.12-.18,1.66-1.16.12.18c-.5.35-.5.78-.01,1.48l6.39,9.17-.8.56-12.86-4.3c-.22-.07-.22.18-.1.35l5.27,7.56c.48.69.89.85,1.39.5l.12.18-1.67,1.16-.12-.18c.5-.35.5-.78.01-1.48Z"/>
  <path class="cls-1" d="m58.71,12.77l-.16.12c-1.1-.78-2.58-.9-4.23-.09l-2.25,1.11c-.54.27-.62.67-.25,1.43l1.46,2.97c.4.81.85.76,1.77.41l3.62-1.42.1.19-4.68,2.46,1.71,3.47c.6,1.23,1.32,1.48,2.57.86l1.76-.86c2.19-1.08,2.73-2.19,2.46-4.34l.21-.06.83,2.96-5.89,2.9c-.53.26-.89.33-1.31.24l-.71-.15c-.51-.11-.75-.35-1.1-1.06l-3.94-8.01c-.37-.76-.76-.97-1.3-.7l-.1-.19,7.84-3.86,1.59,1.62Z"/>
  <path class="cls-1" d="m64.88,19.95l-3.04-9.27c-.26-.8-.61-1.07-1.19-.88l-.07-.21,1.71-.56,11.15,7.92c.19.13.32.07.25-.14l-2.96-9.05c-.26-.8-.61-1.07-1.19-.88l-.07-.21,1.93-.63.07.21c-.58.19-.7.61-.44,1.41l3.48,10.62-.93.3-11.08-7.81c-.19-.13-.26.11-.2.31l2.87,8.76c.26.8.61,1.07,1.19.88l.07.21-1.93.63-.07-.21c.58-.19.7-.61.44-1.41Z"/>
  <path class="cls-1" d="m77.75,4.59l5.37-.76c3.26-.46,6.46,1.75,6.97,5.34.51,3.6-1.94,6.68-5.2,7.14l-2.18.31c-.58.08-.95.04-1.32-.18l-.63-.37c-.45-.26-.6-.57-.71-1.35l-1.26-8.84c-.12-.84-.42-1.16-1.01-1.07l-.03-.21Zm5.22,11.73l1.88-.27c2.82-.4,4.12-3.66,3.69-6.67-.42-2.98-2.57-5.71-5.39-5.31l-2.41.34c-.6.08-.8.44-.68,1.28l1.35,9.46c.14,1,.54,1.3,1.57,1.16Z"/>
  <path class="cls-1" d="m92.65,14.08l-.55-9.74c-.05-.84-.32-1.19-.92-1.16v-.22s2.97-.17,2.97-.17v.22c-.59.03-.82.41-.77,1.25l.55,9.74c.05.84.32,1.19.92,1.16v.22s-2.97.17-2.97.17v-.21c.59-.03.82-.41.77-1.25Z"/>
  <path class="cls-1" d="m105.58,4.92l-.2.03c-.62-1.2-1.9-1.97-3.73-2l-2.51-.03c-.6,0-.86.31-.87,1.16l-.04,3.31c-.01.9.41,1.07,1.39,1.17l3.87.38v.22s-5.29.07-5.29.07l-.05,3.87c-.02,1.37.51,1.92,1.9,1.93l1.96.03c2.44.03,3.43-.71,4.17-2.75l.21.04-.61,3.02-6.57-.09c-.59,0-.94-.1-1.28-.38l-.56-.46c-.41-.33-.51-.66-.5-1.45l.12-8.93c.01-.85-.23-1.21-.84-1.22v-.22s8.74.12,8.74.12l.68,2.17Z"/>
  <path class="cls-1" d="m118.75,3.91c.99.15,2.28.49,2.99.71l.38,2.24h-.2c-.46-1.26-1.57-2.45-3.56-2.75-2.82-.42-5.03,2.32-5.51,5.49-.65,4.31,1.56,6.61,3.84,6.95,1.9.29,3.84-.79,4.21-3.21.35-2.31-.21-3-2.21-3.48l-1.67-.4.04-.25,5.59.84-.66,4.36c-1.3,1.95-3.42,2.73-5.44,2.42-3.03-.46-5.84-3.25-5.21-7.47.58-3.83,3.79-6,7.39-5.46Z"/>
  <path class="cls-1" d="m134.31,9.99l-.2-.02c-.3-1.32-1.33-2.39-3.1-2.88l-2.42-.67c-.58-.16-.91.08-1.13.9l-.88,3.19c-.24.87.13,1.14,1.05,1.49l3.65,1.35-.06.21-5.13-1.27-1.03,3.73c-.36,1.32,0,1.98,1.34,2.35l1.89.52c2.35.65,3.49.18,4.73-1.61l.2.09-1.35,2.76-6.33-1.75c-.57-.16-.88-.34-1.14-.69l-.43-.59c-.31-.42-.33-.76-.11-1.53l2.38-8.61c.23-.82.08-1.23-.5-1.39l.06-.21,8.42,2.33.11,2.27Z"/>
  <path class="cls-1" d="m134.34,17.42l.21.05c.06,2.39.98,4.12,2.56,4.77,1.56.65,3.17.02,3.83-1.56.51-1.21.15-2.26-1.11-3.53l-1.08-1.07c-1.46-1.45-2.17-2.76-1.53-4.29.77-1.84,2.66-2.32,5.16-1.28.61.25,1.2.58,2.32,1.24l-.17,2.27-.2-.04c-.17-1.57-1.06-2.82-2.41-3.38-1.48-.62-2.8-.13-3.35,1.2-.48,1.15-.16,2.18,1.15,3.48l1.08,1.07c1.6,1.61,2.13,3.02,1.53,4.46-.8,1.91-3.02,2.62-5.43,1.62-.99-.41-2.23-1.21-3.04-1.91l.48-3.1Z"/>
  <path class="cls-1" d="m153.79,16.35c.86.51,1.93,1.31,2.51,1.77l-.49,2.22-.19-.07c.06-1.64-.78-3.01-2.05-3.76-2.05-1.21-5.2-.78-7.4,2.94-2.04,3.45-.92,6.25,1.15,7.47,1.78,1.05,4.27.92,6.02-1.02l.21.17c-2.11,2.41-4.76,2.52-6.75,1.34-2.56-1.51-4.04-5.16-1.9-8.77,1.97-3.33,5.76-4.14,8.9-2.29Z"/>
  <path class="cls-1" d="m159.42,34.82l3.3-3.88.16.16-.14.17-5.77-4.56-2.98,3.49c-.55.64-.59,1.08-.13,1.47l-.14.16-2.28-1.94.14-.16c.46.39.88.28,1.43-.36l6.33-7.43c.55-.64.59-1.08.13-1.47l.14-.16,2.28,1.94-.14.17c-.46-.39-.88-.28-1.43.36l-2.11,2.48c-.58.69-.4,1.13.32,1.79l4.19,3.9,3.02-3.55c.55-.64.59-1.08.13-1.47l.14-.16,2.28,1.94-.14.16c-.46-.39-.88-.28-1.43.36l-6.33,7.43c-.55.64-.59,1.08-.13,1.47l-.14.16-2.28-1.94.14-.16c.46.39.88.28,1.43-.36Z"/>
  <path class="cls-1" d="m162.26,37.83l7.22-6.57c.63-.57.73-1,.32-1.44l.16-.15,2.01,2.21-.16.15c-.41-.45-.84-.39-1.47.18l-7.22,6.57c-.63.57-.72,1-.32,1.44l-.16.15-2.01-2.21.16-.15c.41.45.84.39,1.47-.18Z"/>
  <path class="cls-1" d="m177.59,38.73c.58.81,1.23,1.99,1.56,2.64l-1.35,1.83-.14-.14c.72-1.47.52-3.07-.33-4.28-1.38-1.95-4.43-2.84-7.96-.34-3.28,2.32-3.4,5.32-2.01,7.28,1.19,1.69,3.52,2.58,5.91,1.53l.12.24c-2.91,1.34-5.37.35-6.71-1.53-1.71-2.43-1.57-6.36,1.86-8.79,3.16-2.23,6.95-1.43,9.05,1.55Z"/>
  <path class="cls-1" d="m175.07,57.94l4.62-2.14.08.22-.2.09-3.34-6.55-4.16,1.93c-.77.36-.99.73-.73,1.28l-.2.09-1.26-2.71.2-.09c.25.55.69.62,1.45.27l8.85-4.1c.77-.36.99-.73.73-1.28l.2-.09,1.26,2.71-.2.09c-.25-.55-.69-.62-1.45-.27l-2.96,1.37c-.82.38-.83.86-.45,1.76l2.18,5.29,4.23-1.96c.77-.36.99-.73.73-1.28l.2-.09,1.26,2.71-.2.09c-.25-.55-.69-.62-1.45-.27l-8.85,4.1c-.77.36-.99.73-.73,1.28l-.2.09-1.26-2.71.2-.09c.25.55.69.62,1.45.27Z"/>
  <path class="cls-1" d="m177.36,64.93l10.53-2.9-.22-.79c-.49-1.77-1.56-2.8-2.87-3.1l-.02-.2,2.27.11,2.5,9.06-1.89,1.26-.09-.18c.97-.93,1.36-2.37.88-4.13l-.22-.79-10.53,2.9c-.82.22-1.1.56-.94,1.14l-.21.06-.79-2.88.21-.06c.16.58.57.73,1.39.5Z"/>
  <path class="cls-1" d="m189.16,79.47l-.06-.19c1.1-.79,1.68-2.15,1.45-3.97l-.32-2.49c-.08-.6-.43-.81-1.27-.7l-3.29.42c-.89.11-1,.56-.96,1.54l.17,3.89-.21.03-.81-5.23-3.84.49c-1.36.17-1.83.77-1.65,2.15l.25,1.94c.31,2.42,1.18,3.29,3.31,3.74v.22s-3.08-.18-3.08-.18l-.83-6.51c-.07-.58-.03-.95.19-1.32l.37-.62c.27-.45.58-.59,1.36-.7l8.85-1.14c.84-.11,1.17-.4,1.09-1l.21-.03,1.11,8.67-2.05.98Z"/>
  <path class="cls-1" d="m191.72,86.03l.22.02-.29,3.22-.22-.02c.05-.57-.09-.79-.42-.82-.14-.01-.31,0-.73.11l-8.7,2.09c-.37.09-.56.25-.58.43-.02.18.04.33.51.53l7.99,3.44c.37.16.61.23.81.25.5.04.62-.52.66-.94l.22.02-.22,2.48-.21-.02c.05-.6-.27-1.02-1.09-1.38l-2.12-.92-6.44,1.55c-.37.09-.56.25-.58.43-.02.18.04.33.51.53l7.99,3.44c.37.16.61.23.81.25.41.04.6-.2.65-.76l.22.02-.21,2.3-.21-.02c.05-.6-.27-1.02-1.09-1.38l-11.05-4.76.04-.48,7.51-1.92-7.07-3.04.04-.48,11.74-3c.87-.23,1.26-.58,1.31-1.17Z"/>
  <path class="cls-1" d="m184.9,113.4l.02-.2c1.32-.28,2.41-1.3,2.92-3.05l.71-2.41c.17-.58-.07-.91-.88-1.15l-3.18-.94c-.86-.25-1.14.11-1.5,1.02l-1.41,3.63-.21-.06,1.35-5.11-3.71-1.09c-1.31-.39-1.98-.03-2.37,1.31l-.55,1.88c-.69,2.34-.24,3.49,1.53,4.75l-.09.19-2.74-1.4,1.85-6.3c.17-.56.35-.88.71-1.13l.59-.42c.43-.3.77-.31,1.53-.09l8.57,2.52c.81.24,1.23.1,1.4-.48l.21.06-2.46,8.38-2.27.07Z"/>
  <path class="cls-1" d="m175.22,113.2l9.04,3.66c.78.32,1.21.22,1.44-.34l.2.08-1.12,2.77-.2-.08c.23-.56-.01-.93-.8-1.24l-9.04-3.66c-.78-.32-1.21-.22-1.44.34l-.2-.08,1.12-2.77.2.08c-.23.56.01.93.8,1.24Z"/>
  <path class="cls-1" d="m172.13,120.07l9.72,4.97.37-.73c.83-1.63.75-3.12-.02-4.23l.12-.16,1.6,1.62-4.28,8.36-2.25-.35.06-.19c1.35-.03,2.61-.83,3.44-2.46l.37-.73-9.73-4.97c-.75-.38-1.19-.33-1.46.21l-.19-.1,1.36-2.66.19.1c-.28.54-.07.92.68,1.31Z"/>
  <path class="cls-1" d="m171.36,138.76l.08-.18c1.34.12,2.68-.53,3.7-2.05l1.39-2.09c.33-.5.2-.89-.5-1.36l-2.76-1.83c-.75-.5-1.12-.23-1.74.54l-2.42,3.05-.18-.12,2.8-4.48-3.22-2.14c-1.14-.76-1.89-.61-2.65.55l-1.08,1.63c-1.35,2.03-1.26,3.26.06,4.99l-.15.16-2.21-2.15,3.63-5.47c.32-.49.6-.74,1.01-.87l.69-.23c.5-.16.83-.07,1.49.37l7.44,4.93c.71.47,1.14.46,1.48-.05l.18.12-4.83,7.28-2.19-.6Z"/>
  <path class="cls-1" d="m162.37,135.73l6.93,5.64c.61.5.8.79.79,1.31v.73c-.01.43-.17.77-.54,1.22l-1.17,1.43c-1.98,2.43-4.25,2.57-5.72,1.38s-1.98-3.61.22-6.31l.07-.08-4.72.38c-1.62.13-2.25.28-2.8.93l-.17-.14,1.9-2.33,8.98.57-4.58-3.73c-.66-.53-1.09-.57-1.47-.1l-.17-.14,1.89-2.32.17.14c-.38.47-.26.89.4,1.42Zm.93,5.27l-.03.04c-1.9,2.33-1.04,4.1.33,5.22s3.27,1.26,4.59-.37l.64-.79c.88-1.08.79-1.83-.27-2.69l-2.05-1.67-3.21.26Z"/>
</svg>