<?xml version="1.0" encoding="utf-8"?>
<svg id="Raster" viewBox="0 2.924 267.7 162.258" preserveAspectRatio="xMinYMid" xmlns="http://www.w3.org/2000/svg">
  <defs>
    <style>
      .cls-1 {
        fill: #AD9862;
      }
    </style>
  </defs>
  <path class="cls-1" d="m2.35,18.5V5.49c0-1.13-.34-1.61-1.15-1.61v-.29h4.03v.29c-.82,0-1.15.48-1.15,1.61v13.01c0,1.13.34,1.61,1.15,1.61v.29H1.2v-.29c.82,0,1.15-.48,1.15-1.61Z"/>
  <path class="cls-1" d="m8.12,18.5V5.49c0-1.13-.34-1.61-1.15-1.61v-.29h2.42l10.97,14.67c.19.24.38.22.38-.07V5.49c0-1.13-.34-1.61-1.15-1.61v-.29h2.74v.29c-.82,0-1.15.48-1.15,1.61v14.91h-1.32L8.94,5.9c-.19-.24-.38.02-.38.31v12.29c0,1.13.34,1.61,1.15,1.61v.29h-2.74v-.29c.82,0,1.15-.48,1.15-1.61Z"/>
  <path class="cls-1" d="m28.93,3.6h7.32c4.44,0,8.3,3.53,8.3,8.35s-3.86,8.45-8.3,8.45h-2.98c-.79,0-1.27-.12-1.73-.48l-.77-.6c-.55-.43-.7-.86-.7-1.92V5.49c0-1.13-.34-1.61-1.15-1.61v-.29Zm4.75,16.47h2.57c3.84,0,6.19-4.06,6.19-8.11s-2.35-8.02-6.19-8.02h-3.29c-.82,0-1.15.43-1.15,1.56v12.75c0,1.34.48,1.82,1.87,1.82Z"/>
  <path class="cls-1" d="m58.61,6.48l-.26.05c-.86-1.58-2.59-2.59-5.06-2.59h-3.38c-.82,0-1.15.43-1.15,1.56v4.42c0,1.2.58,1.42,1.9,1.54l5.23.43v.29l-7.13.19v5.16c0,1.82.72,2.54,2.59,2.54h2.64c3.29,0,4.61-1.01,5.57-3.74l.29.05-.77,4.03h-8.86c-.79,0-1.27-.12-1.73-.48l-.77-.6c-.55-.43-.7-.86-.7-1.92V5.49c0-1.13-.34-1.61-1.15-1.61v-.29h11.79l.96,2.88Z"/>
  <path class="cls-1" d="m68.34,17.59l1.85-3.41-4.49-8.28c-.14-.24-.34-.22-.38.07l-2.4,12.55c-.22,1.13-.02,1.58.79,1.58v.29h-2.74v-.29c.82,0,1.3-.46,1.49-1.58l2.42-13.03c.22-1.13-.34-1.61-1.15-1.61v-.29h2.62l4.75,8.88,4.82-8.88h2.69v.29c-.82,0-1.3.48-1.15,1.61l1.68,13.03c.14,1.1.58,1.58,1.39,1.58v.29h-4.03v-.29c.82,0,1.06-.48.91-1.58l-1.68-12.55c-.05-.29-.24-.34-.38-.07l-6.72,11.86-.29-.17Z"/>
  <path class="cls-1" d="m15.39,44.4h-3.94l-5.3-8.93-2.3,2.21v4.82c0,1.13.34,1.61,1.15,1.61v.29H.96v-.29c.82,0,1.15-.48,1.15-1.61v-13.01c0-1.13-.34-1.61-1.15-1.61v-.29h4.03v.29c-.82,0-1.15.48-1.15,1.61v7.66l6.29-6.05c1.51-1.46,2.04-3.17-.53-3.17h-.72v-.34h5.11v.34l-7.03,6.77,5.3,7.3c1.25,1.7,1.97,2.09,3.12,2.11v.29Z"/>
  <path class="cls-1" d="m21.33,44.11v.29h-5.3v-.29c1.54,0,2.3-.58,3.7-2.69l5.3-8.02-4.78-5.47v-.34h11.54v.29c-.82,0-1.15.48-1.15,1.58v13.03c0,1.13.34,1.61,1.15,1.61v.29h-4.03v-.29c.82,0,1.15-.48,1.15-1.61v-4.66l-3.55-4.08-5.18,7.85c-1.25,1.9-.29,2.5,1.15,2.5Zm3.91-11.02l2.54-3.86c.58-.89.34-1.34-.65-1.34h-4.22c-1.1,0-1.49.82-.34,2.16l2.66,3.05Zm3.67,4.22v-7.7c0-.5-.36-.7-.72-.14l-2.64,3.98,3.36,3.86Z"/>
  <path class="cls-1" d="m39.18,42.5v-14.57h-1.1c-2.47,0-4.2,1.01-5.06,2.59l-.26-.05.96-2.88h12.67l.96,2.88-.26.05c-.86-1.58-2.59-2.59-5.06-2.59h-1.1v14.57c0,1.13.34,1.61,1.15,1.61v.29h-4.03v-.29c.82,0,1.15-.48,1.15-1.61Z"/>
  <path class="cls-1" d="m60.78,42.5v-6.79l.31.02v.29l-9.91.36v6.12c0,1.13.34,1.61,1.15,1.61v.29h-4.03v-.29c.82,0,1.15-.48,1.15-1.61v-13.01c0-1.13-.34-1.61-1.15-1.61v-.29h4.03v.29c-.82,0-1.15.48-1.15,1.61v4.34c0,1.2.58,1.49,1.9,1.54l7.71.34v-6.22c0-1.13-.34-1.61-1.15-1.61v-.29h4.03v.29c-.82,0-1.15.48-1.15,1.61v13.01c0,1.13.34,1.61,1.15,1.61v.29h-4.03v-.29c.82,0,1.15-.48,1.15-1.61Z"/>
  <path class="cls-1" d="m67.51,41.42l5.4-14.16h.7l6.74,15.87c.29.7.82.98,1.46.98v.29h-4.13v-.29c.77,0,1.03-.48.62-1.46l-1.58-3.84-7.85.12-1.03,2.69c-.89,2.33.43,2.5,1.15,2.5v.29h-4.1v-.29c.94,0,1.73-.36,2.62-2.69Zm3.72-3.5l5.35.55-3.62-8.74c-.17-.43-.41-.43-.58,0l-2.69,7.06c-.31.82.34,1.01,1.54,1.13Z"/>
  <path class="cls-1" d="m84.2,42.5v-11.9c0-1.06.14-1.49.7-1.92l.77-.6c.46-.36.94-.48,1.73-.48h2.5c4.22,0,6.31,2.23,6.31,4.75s-2.09,5.09-6.79,5.09h-.14l4.42,4.56c1.51,1.56,2.21,2.09,3.36,2.11v.29h-4.06l-7.06-9.77v7.87c0,1.13.34,1.61,1.15,1.61v.29h-4.03v-.29c.82,0,1.15-.48,1.15-1.61Zm4.73-5.4h.07c4.06,0,5.18-2.38,5.18-4.73s-1.46-4.44-4.3-4.44h-1.37c-1.87,0-2.59.72-2.59,2.54v3.53l3,3.1Z"/>
  <path class="cls-1" d="m99.68,42.5v-13.01c0-1.13-.34-1.61-1.15-1.61v-.29h4.03v.29c-.82,0-1.15.48-1.15,1.61v13.01c0,1.13.34,1.61,1.15,1.61v.29h-4.03v-.29c.82,0,1.15-.48,1.15-1.61Z"/>
  <path class="cls-1" d="m105.44,42.5v-13.01c0-1.13-.34-1.61-1.15-1.61v-.29h2.42l10.97,14.67c.19.24.38.22.38-.07v-12.7c0-1.13-.34-1.61-1.15-1.61v-.29h2.74v.29c-.82,0-1.15.48-1.15,1.61v14.91h-1.32l-10.92-14.5c-.19-.24-.38.02-.38.31v12.29c0,1.13.34,1.61,1.15,1.61v.29h-2.74v-.29c.82,0,1.15-.48,1.15-1.61Z"/>
  <path class="cls-1" d="m122.85,41.42l5.4-14.16h.7l6.74,15.87c.29.7.82.98,1.46.98v.29h-4.13v-.29c.77,0,1.03-.48.62-1.46l-1.58-3.84-7.85.12-1.03,2.69c-.89,2.33.43,2.5,1.15,2.5v.29h-4.1v-.29c.94,0,1.73-.36,2.62-2.69Zm3.72-3.5l5.35.55-3.62-8.74c-.17-.43-.41-.43-.58,0l-2.69,7.06c-.31.82.34,1.01,1.54,1.13Z"/>
  <path class="cls-1" d="m111.14,51.89v-.29h4.03v.29c-.82,0-1.15.48-1.15,1.61v8.42c0,3.82,2.18,5.66,5.06,5.66,3.17,0,5.18-1.94,5.18-5.66v-8.42c0-1.13-.34-1.61-1.15-1.61v-.29h2.74v.29c-.82,0-1.15.48-1.15,1.61v8.42c0,4.66-2.66,6.82-6.02,6.82-3.55,0-6.38-2.4-6.38-6.82v-8.42c0-1.13-.34-1.61-1.15-1.61Z"/>
  <path class="cls-1" d="m128.53,66.5v-13.01c0-1.13-.34-1.61-1.15-1.61v-.29h2.42l10.97,14.67c.19.24.38.22.38-.07v-12.7c0-1.13-.34-1.61-1.15-1.61v-.29h2.74v.29c-.82,0-1.15.48-1.15,1.61v14.91h-1.32l-10.92-14.5c-.19-.24-.38.02-.38.31v12.29c0,1.13.34,1.61,1.15,1.61v.29h-2.74v-.29c.82,0,1.15-.48,1.15-1.61Z"/>
  <path class="cls-1" d="m144.38,51.6h7.32c4.44,0,8.3,3.53,8.3,8.35s-3.86,8.45-8.3,8.45h-2.98c-.79,0-1.27-.12-1.73-.48l-.77-.6c-.55-.43-.7-.86-.7-1.92v-11.91c0-1.13-.34-1.61-1.15-1.61v-.29Zm4.75,16.47h2.57c3.84,0,6.19-4.06,6.19-8.11s-2.35-8.02-6.19-8.02h-3.29c-.82,0-1.15.43-1.15,1.56v12.75c0,1.34.48,1.82,1.87,1.82Z"/>
  <path class="cls-1" d="m107.4,91.32l-.77.6c-.46.36-.94.48-1.73.48h-4.44l-.77-4.03.29-.05c.96,2.74,2.04,3.74,3.65,3.74h.86c1.39,0,1.87-.48,1.87-1.82v-12.75c0-1.13-.34-1.61-1.15-1.61v-.29h4.03v.29c-.82,0-1.15.48-1.15,1.61v11.91c0,1.06-.14,1.49-.7,1.92Z"/>
  <path class="cls-1" d="m127.21,83.93c0,5.16-3.84,8.81-8.28,8.81s-8.28-3.65-8.28-8.81,3.84-8.67,8.28-8.67,8.28,3.5,8.28,8.67Zm-14.52.07c0,4.37,2.4,8.4,6.24,8.4s6.24-4.03,6.24-8.4-2.4-8.4-6.24-8.4-6.24,4.06-6.24,8.4Zm2.54-10.49c0,.58.48,1.06,1.06,1.06s1.03-.48,1.03-1.06-.48-1.03-1.03-1.03-1.06.48-1.06,1.03Zm5.28,0c0,.58.48,1.06,1.06,1.06s1.03-.48,1.03-1.06-.48-1.03-1.03-1.03-1.06.48-1.06,1.03Z"/>
  <path class="cls-1" d="m129.8,90.5v-11.9c0-1.06.14-1.49.7-1.92l.77-.6c.46-.36.94-.48,1.73-.48h2.5c4.22,0,6.31,2.23,6.31,4.75s-2.09,5.09-6.79,5.09h-.14l4.42,4.56c1.51,1.56,2.21,2.09,3.36,2.11v.29h-4.06l-7.06-9.77v7.87c0,1.13.34,1.61,1.15,1.61v.29h-4.03v-.29c.82,0,1.15-.48,1.15-1.61Zm4.73-5.4h.07c4.06,0,5.18-2.38,5.18-4.73s-1.46-4.44-4.3-4.44h-1.37c-1.87,0-2.59.72-2.59,2.54v3.53l3,3.1Z"/>
  <path class="cls-1" d="m152.11,75.26c1.34,0,3.14.19,4.13.34l.96,2.88-.26.05c-.86-1.58-2.59-2.93-5.3-2.93-3.84,0-6.24,4.06-6.24,8.33,0,2.4.58,4.27,1.49,5.62l4.78-7.3,4.51-.07c.74,0,1.42.1,1.85.5l.41.38c.74.7.94,1.06.94,1.94l-.02,6.19c0,.58.19.91.65.91v.29h-.77c-.38,0-.67-.1-.91-.31l-.24-.22c-.34-.31-.43-.67-.43-1.22v-2.11c-.67,2.23-2.54,4.2-5.83,4.2-1.9,0-3.82-.65-5.35-1.92l-1.37,1.92-.19-.14,1.3-1.99c-1.68-1.49-2.83-3.75-2.83-6.67,0-5.16,3.84-8.67,8.76-8.67Zm-.19,17.07c3.79,0,5.71-2.9,5.71-6.84v-.79c0-1.03-.12-2.18-1.73-2.18h-1.56c-1.82,0-2.69.98-7.22,7.34,1.27,1.68,3.07,2.47,4.8,2.47Z"/>
  <path class="cls-1" d="m20.79,114.5v-13.01c0-1.13-.34-1.61-1.15-1.61v-.29h4.03v.29c-.82,0-1.15.48-1.15,1.61v13.01c0,1.13.34,1.61,1.15,1.61v.29h-4.03v-.29c.82,0,1.15-.48,1.15-1.61Z"/>
  <path class="cls-1" d="m37.94,114.5v-6.79l.31.02v.29l-9.91.36v6.12c0,1.13.34,1.61,1.15,1.61v.29h-4.03v-.29c.82,0,1.15-.48,1.15-1.61v-13.01c0-1.13-.34-1.61-1.15-1.61v-.29h4.03v.29c-.82,0-1.15.48-1.15,1.61v4.34c0,1.2.58,1.49,1.9,1.54l7.71.34v-6.22c0-1.13-.34-1.61-1.15-1.61v-.29h4.03v.29c-.82,0-1.15.48-1.15,1.61v13.01c0,1.13.34,1.61,1.15,1.61v.29h-4.03v-.29c.82,0,1.15-.48,1.15-1.61Z"/>
  <path class="cls-1" d="m43.67,114.5v-11.9c0-1.06.14-1.49.7-1.92l.77-.6c.46-.36.94-.48,1.73-.48h2.5c4.22,0,6.31,2.23,6.31,4.75s-2.09,5.09-6.79,5.09h-.14l4.42,4.56c1.51,1.56,2.21,2.09,3.36,2.11v.29h-4.06l-7.06-9.77v7.87c0,1.13.34,1.61,1.15,1.61v.29h-4.03v-.29c.82,0,1.15-.48,1.15-1.61Zm4.73-5.4h.07c4.06,0,5.18-2.38,5.18-4.73s-1.46-4.44-4.3-4.44h-1.37c-1.87,0-2.59.72-2.59,2.54v3.53l3,3.1Z"/>
  <path class="cls-1" d="m69.82,102.48l-.26.05c-.86-1.58-2.59-2.59-5.06-2.59h-3.38c-.82,0-1.15.43-1.15,1.56v4.42c0,1.2.58,1.42,1.9,1.54l5.23.43v.29l-7.13.19v5.16c0,1.82.72,2.54,2.59,2.54h2.64c3.29,0,4.61-1.01,5.57-3.74l.29.05-.77,4.03h-8.86c-.79,0-1.27-.12-1.73-.48l-.77-.6c-.55-.43-.7-.86-.7-1.92v-11.91c0-1.13-.34-1.61-1.15-1.61v-.29h11.79l.96,2.88Z"/>
  <path class="cls-1" d="m77.29,99.89v-.29h4.03v.29c-.82,0-1.15.48-1.15,1.61v12.75c0,1.34.48,1.82,1.87,1.82h2.78c3.29,0,4.61-1.01,5.57-3.74l.29.05-.77,4.03h-8.28c-.79,0-1.27-.12-1.73-.48l-.77-.6c-.55-.43-.7-.86-.7-1.92v-11.91c0-1.13-.34-1.61-1.15-1.61Z"/>
  <path class="cls-1" d="m93.11,114.5v-13.01c0-1.13-.34-1.61-1.15-1.61v-.29h4.03v.29c-.82,0-1.15.48-1.15,1.61v13.01c0,1.13.34,1.61,1.15,1.61v.29h-4.03v-.29c.82,0,1.15-.48,1.15-1.61Z"/>
  <path class="cls-1" d="m110.53,102.48l-.26.05c-.86-1.58-2.59-2.59-5.06-2.59h-3.38c-.82,0-1.15.43-1.15,1.56v4.42c0,1.2.58,1.42,1.9,1.54l5.23.43v.29l-7.13.19v5.16c0,1.82.72,2.54,2.59,2.54h2.64c3.29,0,4.61-1.01,5.57-3.74l.29.05-.77,4.03h-8.86c-.79,0-1.27-.12-1.73-.48l-.77-.6c-.55-.43-.7-.86-.7-1.92v-11.91c0-1.13-.34-1.61-1.15-1.61v-.29h11.79l.96,2.88Z"/>
  <path class="cls-1" d="m112.63,99.6h5.4c4.66,0,6.55,2.06,6.55,4.08,0,1.37-.84,2.71-2.35,3.36,3.1.67,4.51,2.57,4.51,4.49,0,2.42-2.35,4.85-7.51,4.85h-2.26c-.77,0-1.25-.12-1.73-.48l-.77-.6c-.55-.43-.7-.86-.7-1.92v-11.88c0-1.13-.34-1.61-1.15-1.61v-.29Zm4.94,7.92c3.84,0,5.09-1.75,5.09-3.79s-1.25-3.79-4.63-3.79h-1.37c-.82,0-1.15.43-1.15,1.56v6.02h2.06Zm-.6,8.52h2.26c3.67,0,5.47-2.11,5.47-4.54,0-1.9-1.18-3.6-2.78-4.25-1.03.41-2.28.6-3.65.6h-2.76v6.36c0,1.34.5,1.82,1.46,1.82Z"/>
  <path class="cls-1" d="m140.64,102.48l-.26.05c-.86-1.58-2.59-2.59-5.06-2.59h-3.38c-.82,0-1.15.43-1.15,1.56v4.42c0,1.2.58,1.42,1.9,1.54l5.23.43v.29l-7.13.19v5.16c0,1.82.72,2.54,2.59,2.54h2.64c3.29,0,4.61-1.01,5.57-3.74l.29.05-.77,4.03h-8.86c-.79,0-1.27-.12-1.73-.48l-.77-.6c-.55-.43-.7-.86-.7-1.92v-11.91c0-1.13-.34-1.61-1.15-1.61v-.29h11.79l.96,2.88Z"/>
  <path class="cls-1" d="m15.39,140.4h-3.96l-7.58-9.75v7.85c0,1.13.34,1.61,1.15,1.61v.29H.96v-.29c.82,0,1.15-.48,1.15-1.61v-13.01c0-1.13-.34-1.61-1.15-1.61v-.29h4.03v.29c-.82,0-1.15.48-1.15,1.61v4.51l2.95,2.88,4.75-6c.5-.65.77-1.25.77-1.68,0-.84-.96-1.27-2.47-1.27h-.48v-.34h5.11v.34l-7.39,9.24,4.94,4.82c1.54,1.49,2.21,2.09,3.36,2.11v.29Z"/>
  <path class="cls-1" d="m17.65,138.5v-11.9c0-1.06.14-1.49.7-1.92l.77-.6c.46-.36.94-.48,1.73-.48h2.5c4.22,0,6.31,2.23,6.31,4.75s-2.09,5.09-6.79,5.09h-.14l4.42,4.56c1.51,1.56,2.21,2.09,3.36,2.11v.29h-4.06l-7.06-9.77v7.87c0,1.13.34,1.61,1.15,1.61v.29h-4.03v-.29c.82,0,1.15-.48,1.15-1.61Zm4.73-5.4h.07c4.06,0,5.18-2.38,5.18-4.73s-1.46-4.44-4.3-4.44h-1.37c-1.87,0-2.59.72-2.59,2.54v3.53l3,3.1Z"/>
  <path class="cls-1" d="m47.76,131.93c0,5.16-3.84,8.81-8.28,8.81s-8.28-3.65-8.28-8.81,3.84-8.67,8.28-8.67,8.28,3.5,8.28,8.67Zm-14.52.07c0,4.37,2.4,8.4,6.24,8.4s6.24-4.03,6.24-8.4-2.4-8.4-6.24-8.4-6.24,4.06-6.24,8.4Zm2.54-10.49c0,.58.48,1.06,1.06,1.06s1.03-.48,1.03-1.06-.48-1.03-1.03-1.03-1.06.48-1.06,1.03Zm5.28,0c0,.58.48,1.06,1.06,1.06s1.03-.48,1.03-1.06-.48-1.03-1.03-1.03-1.06.48-1.06,1.03Z"/>
  <path class="cls-1" d="m50.29,138.5v-13.01c0-1.13-.34-1.61-1.15-1.61v-.29h2.42l10.97,14.67c.19.24.38.22.38-.07v-12.7c0-1.13-.34-1.61-1.15-1.61v-.29h2.74v.29c-.82,0-1.15.48-1.15,1.61v14.91h-1.32l-10.92-14.5c-.19-.24-.38.02-.38.31v12.29c0,1.13.34,1.61,1.15,1.61v.29h-2.74v-.29c.82,0,1.15-.48,1.15-1.61Z"/>
  <path class="cls-1" d="m78.89,126.48l-.26.05c-.86-1.58-2.59-2.59-5.06-2.59h-3.38c-.82,0-1.15.43-1.15,1.56v4.42c0,1.2.58,1.42,1.9,1.54l5.23.43v.29l-7.13.19v5.16c0,1.82.72,2.54,2.59,2.54h2.64c3.29,0,4.61-1.01,5.57-3.74l.29.05-.77,4.03h-8.86c-.79,0-1.27-.12-1.73-.48l-.77-.6c-.55-.43-.7-.86-.7-1.92v-11.91c0-1.13-.34-1.61-1.15-1.61v-.29h11.79l.96,2.88Z"/>
  <path class="cls-1" d="m82.34,138.5v-13.01c0-1.13-.34-1.61-1.15-1.61v-.29h2.42l10.97,14.67c.19.24.38.22.38-.07v-12.7c0-1.13-.34-1.61-1.15-1.61v-.29h2.74v.29c-.82,0-1.15.48-1.15,1.61v14.91h-1.32l-10.92-14.5c-.19-.24-.38.02-.38.31v12.29c0,1.13.34,1.61,1.15,1.61v.29h-2.74v-.29c.82,0,1.15-.48,1.15-1.61Z"/>
  <path class="cls-1" d="m27.22,147.89v-.29h4.37v.29c-.77,0-1.06.22-1.06.65,0,.19.05.41.24.96l3.84,11.3c.17.48.41.72.65.72s.43-.1.65-.74l3.67-11.02c.17-.5.24-.84.24-1.1,0-.67-.77-.77-1.34-.77v-.29h3.36v.29c-.82,0-1.34.48-1.73,1.61l-.98,2.93,2.86,8.38c.17.48.41.72.65.72s.43-.1.65-.74l3.67-11.02c.17-.5.24-.84.24-1.1,0-.55-.34-.77-1.1-.77v-.29h3.12v.29c-.82,0-1.34.48-1.73,1.61l-5.09,15.24h-.65l-3.48-9.75-3.24,9.75h-.65l-5.42-15.24c-.41-1.13-.94-1.61-1.73-1.61Z"/>
  <path class="cls-1" d="m63.09,150.48l-.26.05c-.86-1.58-2.59-2.59-5.06-2.59h-3.38c-.82,0-1.15.43-1.15,1.56v4.42c0,1.2.58,1.42,1.9,1.54l5.23.43v.29l-7.13.19v5.16c0,1.82.72,2.54,2.59,2.54h2.64c3.29,0,4.61-1.01,5.57-3.74l.29.05-.77,4.03h-8.86c-.79,0-1.27-.12-1.73-.48l-.77-.6c-.55-.43-.7-.86-.7-1.92v-11.91c0-1.13-.34-1.61-1.15-1.61v-.29h11.79l.96,2.88Z"/>
  <path class="cls-1" d="m66.6,162.5v-11.9c0-1.06.14-1.49.7-1.92l.77-.6c.46-.36.94-.48,1.73-.48h2.5c4.22,0,6.31,2.23,6.31,4.75s-2.09,5.09-6.79,5.09h-.14l4.42,4.56c1.51,1.56,2.21,2.09,3.36,2.11v.29h-4.06l-7.06-9.77v7.87c0,1.13.34,1.61,1.15,1.61v.29h-4.03v-.29c.82,0,1.15-.48,1.15-1.61Zm4.73-5.4h.07c4.06,0,5.18-2.38,5.18-4.73s-1.46-4.44-4.3-4.44h-1.37c-1.87,0-2.59.72-2.59,2.54v3.53l3,3.1Z"/>
  <path class="cls-1" d="m80,147.6h7.32c4.44,0,8.3,3.53,8.3,8.35s-3.86,8.45-8.3,8.45h-2.98c-.79,0-1.27-.12-1.73-.48l-.77-.6c-.55-.43-.7-.86-.7-1.92v-11.91c0-1.13-.34-1.61-1.15-1.61v-.29Zm4.75,16.47h2.57c3.84,0,6.19-4.06,6.19-8.11s-2.35-8.02-6.19-8.02h-3.29c-.82,0-1.15.43-1.15,1.56v12.75c0,1.34.48,1.82,1.87,1.82Z"/>
  <path class="cls-1" d="m109.68,150.48l-.26.05c-.86-1.58-2.59-2.59-5.06-2.59h-3.38c-.82,0-1.15.43-1.15,1.56v4.42c0,1.2.58,1.42,1.9,1.54l5.23.43v.29l-7.13.19v5.16c0,1.82.72,2.54,2.59,2.54h2.64c3.29,0,4.61-1.01,5.57-3.74l.29.05-.77,4.03h-8.86c-.79,0-1.27-.12-1.73-.48l-.77-.6c-.55-.43-.7-.86-.7-1.92v-11.91c0-1.13-.34-1.61-1.15-1.61v-.29h11.79l.96,2.88Z"/>
  <path class="cls-1" d="m113.14,162.5v-13.01c0-1.13-.34-1.61-1.15-1.61v-.29h2.42l10.97,14.67c.19.24.38.22.38-.07v-12.7c0-1.13-.34-1.61-1.15-1.61v-.29h2.74v.29c-.82,0-1.15.48-1.15,1.61v14.91h-1.32l-10.92-14.5c-.19-.24-.38.02-.38.31v12.29c0,1.13.34,1.61,1.15,1.61v.29h-2.74v-.29c.82,0,1.15-.48,1.15-1.61Z"/>
  <path class="cls-1" d="m129.48,163.51c0-.67.58-1.25,1.27-1.25s1.25.58,1.25,1.25-.58,1.27-1.25,1.27-1.27-.58-1.27-1.27Z"/>
</svg>