<?xml version="1.0" encoding="UTF-8"?>
<svg id="Layout" xmlns="http://www.w3.org/2000/svg" viewBox="0 0 48.93 18.9">
  <defs>
    <style>
      .cls-1 {
        fill: #f42c04;
      }
    </style>
  </defs>
  <path class="cls-1" d="m6.05,14.49l-.58.45c-.34.27-.7.36-1.3.36H.85l-.58-3.02.22-.04c.72,2.05,1.53,2.81,2.74,2.81h.65c1.04,0,1.4-.36,1.4-1.37V4.12c0-.85-.25-1.21-.86-1.21v-.22h3.03v.22c-.61,0-.86.36-.86,1.21v8.93c0,.79-.11,1.12-.52,1.44Z"/>
  <path class="cls-1" d="m20.94,8.94c0,3.87-2.88,6.61-6.21,6.61s-6.21-2.74-6.21-6.61,2.88-6.5,6.21-6.5,6.21,2.63,6.21,6.5Zm-10.89.05c0,3.28,1.8,6.3,4.68,6.3s4.68-3.02,4.68-6.3-1.8-6.3-4.68-6.3-4.68,3.04-4.68,6.3Zm1.91-7.87c0,.43.36.79.79.79s.77-.36.77-.79-.36-.77-.77-.77-.79.36-.79.77Zm3.96,0c0,.43.36.79.79.79s.77-.36.77-.79-.36-.77-.77-.77-.79.36-.79.77Z"/>
  <path class="cls-1" d="m22.91,13.88V4.95c0-.79.11-1.12.52-1.44l.58-.45c.34-.27.7-.36,1.3-.36h1.87c3.17,0,4.74,1.67,4.74,3.56s-1.57,3.82-5.1,3.82h-.11l3.31,3.42c1.13,1.17,1.66,1.57,2.52,1.58v.22h-3.04l-5.29-7.33v5.91c0,.85.25,1.21.86,1.21v.22h-3.03v-.22c.61,0,.87-.36.87-1.21Zm3.55-4.05h.05c3.04,0,3.89-1.78,3.89-3.55s-1.1-3.33-3.22-3.33h-1.03c-1.4,0-1.94.54-1.94,1.91v2.65l2.25,2.32Z"/>
  <path class="cls-1" d="m39.68,2.44c1.01,0,2.36.14,3.1.25l.72,2.16-.2.04c-.65-1.19-1.94-2.2-3.98-2.2-2.88,0-4.68,3.04-4.68,6.25,0,4.36,2.56,6.3,4.9,6.3,1.95,0,3.73-1.35,3.73-3.8s-.67-2.93-2.74-3.11l-1.73-.14v-.25h5.73v4.41c-1.01,2.12-3.01,3.21-5.08,3.21-3.1,0-6.34-2.34-6.34-6.61,0-3.87,2.88-6.5,6.57-6.5Z"/>
</svg>