<?xml version="1.0" encoding="UTF-8"?>
<svg id="Raster" xmlns="http://www.w3.org/2000/svg" viewBox="0 0 268.28 88.17">
  <defs>
    <style>
      .cls-1 {
        fill: #f42c04;
      }
    </style>
  </defs>
  <path class="cls-1" d="m.96,3.6h7.32c4.44,0,8.3,3.53,8.3,8.35s-3.86,8.45-8.3,8.45h-2.98c-.79,0-1.27-.12-1.73-.48l-.77-.6c-.55-.43-.7-.86-.7-1.92V5.49c0-1.13-.34-1.61-1.15-1.61v-.29Zm4.75,16.47h2.57c3.84,0,6.19-4.06,6.19-8.11S12.12,3.93,8.28,3.93h-3.29c-.82,0-1.15.43-1.15,1.56v12.75c0,1.34.48,1.82,1.87,1.82Z"/>
  <path class="cls-1" d="m20.98,20.11v.29h-5.3v-.29c1.54,0,2.3-.58,3.7-2.69l5.3-8.02-4.78-5.47v-.34h11.54v.29c-.82,0-1.15.48-1.15,1.58v13.03c0,1.13.34,1.61,1.15,1.61v.29h-4.03v-.29c.82,0,1.15-.48,1.15-1.61v-4.66l-3.55-4.08-5.18,7.85c-1.25,1.9-.29,2.5,1.15,2.5Zm3.91-11.02l2.54-3.86c.58-.89.34-1.34-.65-1.34h-4.22c-1.1,0-1.49.82-.34,2.16l2.66,3.05Zm3.67,4.22v-7.7c0-.5-.36-.7-.72-.14l-2.64,3.98,3.36,3.86Z"/>
  <path class="cls-1" d="m32.94,15.86l.29-.05c1.32,2.9,3.36,4.56,5.67,4.56s3.96-1.61,3.96-3.89c0-1.75-.98-2.86-3.22-3.77l-1.9-.77c-2.57-1.03-4.13-2.28-4.13-4.49,0-2.66,2.11-4.22,5.76-4.22.89,0,1.8.1,3.53.34l.96,2.88-.26.05c-1.03-1.85-2.78-2.93-4.75-2.93-2.16,0-3.55,1.27-3.55,3.19,0,1.66.94,2.76,3.24,3.7l1.9.77c2.83,1.15,4.22,2.62,4.22,4.7,0,2.76-2.4,4.78-5.93,4.78-1.44,0-3.41-.34-4.78-.79l-1.01-4.06Z"/>
  <path class="cls-1" d="m128.22,41.59l1.85-3.41-4.49-8.28c-.14-.24-.34-.22-.38.07l-2.4,12.55c-.22,1.13-.02,1.58.79,1.58v.29h-2.74v-.29c.82,0,1.3-.46,1.49-1.58l2.42-13.03c.22-1.13-.34-1.61-1.15-1.61v-.29h2.62l4.75,8.88,4.82-8.88h2.69v.29c-.82,0-1.3.48-1.15,1.61l1.68,13.03c.14,1.1.58,1.58,1.39,1.58v.29h-4.03v-.29c.82,0,1.06-.48.91-1.58l-1.68-12.55c-.05-.29-.24-.34-.38-.07l-6.72,11.86-.29-.17Z"/>
  <path class="cls-1" d="m157.92,35.93c0,5.16-3.84,8.81-8.28,8.81s-8.28-3.65-8.28-8.81,3.84-8.67,8.28-8.67,8.28,3.5,8.28,8.67Zm-14.52.07c0,4.37,2.4,8.4,6.24,8.4s6.24-4.03,6.24-8.4-2.4-8.4-6.24-8.4-6.24,4.06-6.24,8.4Zm2.54-10.49c0,.58.48,1.06,1.06,1.06s1.03-.48,1.03-1.06-.48-1.03-1.03-1.03-1.06.48-1.06,1.03Zm5.28,0c0,.58.48,1.06,1.06,1.06s1.03-.48,1.03-1.06-.48-1.03-1.03-1.03-1.06.48-1.06,1.03Z"/>
  <path class="cls-1" d="m159.51,35.93c0-5.16,3.84-8.67,8.76-8.67,1.34,0,3.14.19,4.13.34l.96,2.88-.26.05c-1.06-1.92-2.98-2.93-4.97-2.93-3.22,0-6.58,2.64-6.58,8.4,0,5.35,3.22,7.8,6.46,7.8,2.78,0,5.59-1.85,6.29-5.26l.36.05c-.79,4.2-3.79,6.12-6.91,6.12-4.01,0-8.23-3.19-8.23-8.79Zm6.6,5.47c.82,0,1.15-.48,1.15-1.61v-7.92c0-1.13-.34-1.61-1.15-1.61v-.29h3.86v.29c-.82,0-1.15.48-1.15,1.61v1.97c0,1.2.58,1.49,1.9,1.54l7.73.34v-6.22c0-1.13-.34-1.61-1.15-1.61v-.29h4.03v.29c-.82,0-1.15.48-1.15,1.61v13.01c0,1.13.34,1.61,1.15,1.61v.29h-4.03v-.29c.82,0,1.15-.48,1.15-1.61v-6.48l-9.62.36v3.41c0,1.13.34,1.61,1.15,1.61v.29h-3.86v-.29Z"/>
  <path class="cls-1" d="m188.74,42.5v-14.57h-1.1c-2.47,0-4.2,1.01-5.06,2.59l-.26-.05.96-2.88h12.67l.96,2.88-.26.05c-.86-1.58-2.59-2.59-5.06-2.59h-1.1v14.57c0,1.13.34,1.61,1.15,1.61v.29h-4.03v-.29c.82,0,1.15-.48,1.15-1.61Z"/>
  <path class="cls-1" d="m210.61,30.48l-.26.05c-.86-1.58-2.59-2.59-5.06-2.59h-3.38c-.82,0-1.15.43-1.15,1.56v4.42c0,1.2.58,1.42,1.9,1.54l5.23.43v.29l-7.13.19v5.16c0,1.82.72,2.54,2.59,2.54h2.64c3.29,0,4.61-1.01,5.57-3.74l.29.05-.77,4.03h-8.86c-.79,0-1.27-.12-1.73-.48l-.77-.6c-.55-.43-.7-.86-.7-1.92v-11.91c0-1.13-.34-1.61-1.15-1.61v-.29h11.79l.96,2.88Z"/>
  <path class="cls-1" d="m214.06,42.5v-13.01c0-1.13-.34-1.61-1.15-1.61v-.29h2.42l10.97,14.67c.19.24.38.22.38-.07v-12.7c0-1.13-.34-1.61-1.15-1.61v-.29h2.74v.29c-.82,0-1.15.48-1.15,1.61v14.91h-1.32l-10.92-14.5c-.19-.24-.38.02-.38.31v12.29c0,1.13.34,1.61,1.15,1.61v.29h-2.74v-.29c.82,0,1.15-.48,1.15-1.61Z"/>
  <path class="cls-1" d="m234.75,39.86l.29-.05c1.32,2.9,3.36,4.56,5.67,4.56s3.96-1.61,3.96-3.89c0-1.75-.98-2.86-3.22-3.77l-1.9-.77c-2.57-1.03-4.13-2.28-4.13-4.49,0-2.66,2.11-4.22,5.76-4.22.89,0,1.8.1,3.53.34l.96,2.88-.26.05c-1.03-1.85-2.78-2.93-4.75-2.93-2.16,0-3.55,1.27-3.55,3.19,0,1.66.94,2.76,3.24,3.7l1.9.77c2.83,1.15,4.22,2.62,4.22,4.7,0,2.76-2.4,4.78-5.93,4.78-1.44,0-3.41-.34-4.78-.79l-1.01-4.06Z"/>
  <path class="cls-1" d="m249.16,42.5v-13.01c0-1.13-.34-1.61-1.15-1.61v-.29h4.03v.29c-.82,0-1.15.48-1.15,1.61v13.01c0,1.13.34,1.61,1.15,1.61v.29h-4.03v-.29c.82,0,1.15-.48,1.15-1.61Z"/>
  <path class="cls-1" d="m266.58,30.48l-.26.05c-.86-1.58-2.59-2.59-5.06-2.59h-3.38c-.82,0-1.15.43-1.15,1.56v4.42c0,1.2.58,1.42,1.9,1.54l5.23.43v.29l-7.13.19v5.16c0,1.82.72,2.54,2.59,2.54h2.64c3.29,0,4.61-1.01,5.57-3.74l.29.05-.77,4.03h-8.86c-.79,0-1.27-.12-1.73-.48l-.77-.6c-.55-.43-.7-.86-.7-1.92v-11.91c0-1.13-.34-1.61-1.15-1.61v-.29h11.79l.96,2.88Z"/>
  <path class="cls-1" d="m74.52,63.91l1.06-1.58-5.93-8.42c-.17-.24-.38-.22-.38.07v12.53c0,1.13.34,1.61,1.15,1.61v.29h-2.74v-.29c.82,0,1.15-.48,1.15-1.61v-13.01c0-1.13-.34-1.61-1.15-1.61v-.29h2.62l6.31,9.19,6.14-9.19h2.69v.29c-.82,0-1.15.48-1.15,1.61v13.01c0,1.13.34,1.61,1.15,1.61v.29h-4.03v-.29c.82,0,1.15-.48,1.15-1.61v-12.53c0-.29-.19-.34-.38-.07l-7.37,10.18-.29-.17Z"/>
  <path class="cls-1" d="m88.42,66.5v-13.01c0-1.13-.34-1.61-1.15-1.61v-.29h4.03v.29c-.82,0-1.15.48-1.15,1.61v13.01c0,1.13.34,1.61,1.15,1.61v.29h-4.03v-.29c.82,0,1.15-.48,1.15-1.61Z"/>
  <path class="cls-1" d="m98.79,66.5v-14.57h-1.1c-2.47,0-4.2,1.01-5.06,2.59l-.26-.05.96-2.88h12.67l.96,2.88-.26.05c-.86-1.58-2.59-2.59-5.06-2.59h-1.1v14.57c0,1.13.34,1.61,1.15,1.61v.29h-4.03v-.29c.82,0,1.15-.48,1.15-1.61Z"/>
  <path class="cls-1" d="m125.69,54.48l-.26.05c-.86-1.58-2.59-2.59-5.06-2.59h-3.38c-.82,0-1.15.43-1.15,1.56v4.42c0,1.2.58,1.42,1.9,1.54l5.23.43v.29l-7.13.19v5.16c0,1.82.72,2.54,2.59,2.54h2.64c3.29,0,4.61-1.01,5.57-3.74l.29.05-.77,4.03h-8.86c-.79,0-1.27-.12-1.73-.48l-.77-.6c-.55-.43-.7-.86-.7-1.92v-11.91c0-1.13-.34-1.61-1.15-1.61v-.29h11.79l.96,2.88Z"/>
  <path class="cls-1" d="m127.66,51.89v-.29h4.03v.29c-.82,0-1.15.48-1.15,1.61v8.42c0,3.82,2.18,5.66,5.06,5.66,3.17,0,5.18-1.94,5.18-5.66v-8.42c0-1.13-.34-1.61-1.15-1.61v-.29h2.74v.29c-.82,0-1.15.48-1.15,1.61v8.42c0,4.66-2.66,6.82-6.02,6.82-3.55,0-6.38-2.4-6.38-6.82v-8.42c0-1.13-.34-1.61-1.15-1.61Z"/>
  <path class="cls-1" d="m152.36,51.26c1.34,0,3.14.19,4.13.34l.96,2.88-.26.05c-1.06-1.92-2.98-2.93-4.97-2.93-3.22,0-6.58,2.64-6.58,8.4,0,5.35,3.22,7.8,6.46,7.8,2.78,0,5.59-1.85,6.29-5.26l.36.05c-.79,4.2-3.79,6.12-6.91,6.12-4.01,0-8.23-3.19-8.23-8.79,0-5.16,3.84-8.67,8.76-8.67Z"/>
  <path class="cls-1" d="m172.09,66.5v-6.79l.31.02v.29l-9.91.36v6.12c0,1.13.34,1.61,1.15,1.61v.29h-4.03v-.29c.82,0,1.15-.48,1.15-1.61v-13.01c0-1.13-.34-1.61-1.15-1.61v-.29h4.03v.29c-.82,0-1.15.48-1.15,1.61v4.34c0,1.2.58,1.49,1.9,1.54l7.71.34v-6.22c0-1.13-.34-1.61-1.15-1.61v-.29h4.03v.29c-.82,0-1.15.48-1.15,1.61v13.01c0,1.13.34,1.61,1.15,1.61v.29h-4.03v-.29c.82,0,1.15-.48,1.15-1.61Z"/>
  <path class="cls-1" d="m185.72,68.11v.29h-4.03v-.29c.82,0,1.15-.48,1.15-1.61v-13.01c0-1.13-.34-1.61-1.15-1.61v-.29h11.45l.96,2.88-.26.05c-.86-1.58-2.59-2.59-5.06-2.59h-3.05c-.82,0-1.15.43-1.15,1.56v4.66c0,1.2.58,1.42,1.9,1.54l4.9.43v.29l-6.79.19v5.9c0,1.13.34,1.61,1.15,1.61Z"/>
  <path class="cls-1" d="m207.77,54.48l-.26.05c-.86-1.58-2.59-2.59-5.06-2.59h-3.38c-.82,0-1.15.43-1.15,1.56v4.42c0,1.2.58,1.42,1.9,1.54l5.23.43v.29l-7.13.19v5.16c0,1.82.72,2.54,2.59,2.54h2.64c3.29,0,4.61-1.01,5.57-3.74l.29.05-.77,4.03h-8.86c-.79,0-1.27-.12-1.73-.48l-.77-.6c-.55-.43-.7-.86-.7-1.92v-11.91c0-1.13-.34-1.61-1.15-1.61v-.29h11.79l.96,2.88Z"/>
  <path class="cls-1" d="m211.4,66.5v-13.01c0-1.13-.34-1.61-1.15-1.61v-.29h4.03v.29c-.82,0-1.15.48-1.15,1.61v13.01c0,1.13.34,1.61,1.15,1.61v.29h-4.03v-.29c.82,0,1.15-.48,1.15-1.61Z"/>
  <path class="cls-1" d="m228.82,54.48l-.26.05c-.86-1.58-2.59-2.59-5.06-2.59h-3.38c-.82,0-1.15.43-1.15,1.56v4.42c0,1.2.58,1.42,1.9,1.54l5.23.43v.29l-7.13.19v5.16c0,1.82.72,2.54,2.59,2.54h2.64c3.29,0,4.61-1.01,5.57-3.74l.29.05-.77,4.03h-8.86c-.79,0-1.27-.12-1.73-.48l-.77-.6c-.55-.43-.7-.86-.7-1.92v-11.91c0-1.13-.34-1.61-1.15-1.61v-.29h11.79l.96,2.88Z"/>
  <path class="cls-1" d="m232.33,66.5v-11.9c0-1.06.14-1.49.7-1.92l.77-.6c.46-.36.94-.48,1.73-.48h2.5c4.22,0,6.31,2.23,6.31,4.75s-2.09,5.09-6.79,5.09h-.14l4.42,4.56c1.51,1.56,2.21,2.09,3.36,2.11v.29h-4.06l-7.06-9.77v7.87c0,1.13.34,1.61,1.15,1.61v.29h-4.03v-.29c.82,0,1.15-.48,1.15-1.61Zm4.73-5.4h.07c4.06,0,5.18-2.38,5.18-4.73s-1.46-4.44-4.3-4.44h-1.37c-1.87,0-2.59.72-2.59,2.54v3.53l3,3.1Z"/>
  <path class="cls-1" d="m247.63,66.5v-13.01c0-1.13-.34-1.61-1.15-1.61v-.29h2.42l10.97,14.67c.19.24.38.22.38-.07v-12.7c0-1.13-.34-1.61-1.15-1.61v-.29h2.74v.29c-.82,0-1.15.48-1.15,1.61v14.91h-1.32l-10.92-14.5c-.19-.24-.38.02-.38.31v12.29c0,1.13.34,1.61,1.15,1.61v.29h-2.74v-.29c.82,0,1.15-.48,1.15-1.61Z"/>
  <path class="cls-1" d="m265.23,66.26c.67,0,1.25.58,1.25,1.25s-.58,1.27-1.25,1.27-1.27-.58-1.27-1.27.58-1.25,1.27-1.25Zm1.08-14.67l-.91,11.88h-.34l-.91-11.88h2.16Z"/>
</svg>