<?xml version="1.0" encoding="utf-8"?>
<svg id="Layout" viewBox="0 0 111.31 120.3" xmlns="http://www.w3.org/2000/svg">
  <defs>
    <style>
      .cls-1 {
        fill: #FF002D;
      }
    </style>
  </defs>
  <path class="cls-1" d="m3.27,64.59c0-20.09,14.95-33.74,32.24-33.74,7.48,0,14.58,2.52,20.19,7.1,5.51-4.58,12.62-7.1,20.09-7.1,17.29,0,32.24,13.65,32.24,33.74s-14.95,34.3-32.24,34.3c-7.48,0-14.58-2.71-20.19-7.29-5.51,4.58-12.62,7.29-20.09,7.29-17.29,0-32.24-14.21-32.24-34.3Zm7.94.28c0,17.01,9.35,32.71,24.3,32.71,7.1,0,12.9-3.46,17.01-8.97-5.51-5.98-8.97-14.3-8.97-24.02s3.46-17.76,8.88-23.55c-4.21-5.42-9.91-8.88-16.92-8.88-14.95,0-24.3,15.79-24.3,32.71Zm40.28,0c0,6.73,1.5,13.27,4.21,18.69,2.62-5.42,4.11-11.96,4.11-18.69s-1.5-13.18-4.21-18.69c-2.62,5.51-4.11,11.96-4.11,18.69Zm16.26-.28c0,9.72-3.46,18.04-8.97,24.02-1.03,1.03-2.06,2.06-3.18,2.99-1.03-.93-2.06-1.96-3.08-2.99,1.21-1.59,2.24-3.27,3.18-5.05.84,1.78,1.87,3.46,3.08,5.05,4.11,5.51,9.91,8.97,17.01,8.97,14.95,0,24.3-15.7,24.3-32.71s-9.35-32.71-24.3-32.71c-7.01,0-12.71,3.46-16.92,8.88-1.21,1.59-2.24,3.27-3.27,5.14-.93-1.87-1.96-3.55-3.18-5.14,1.03-1.12,2.06-2.15,3.27-3.08,1.12.93,2.15,1.96,3.18,3.08,5.42,5.79,8.88,13.93,8.88,23.55Z" style="fill: rgb(224, 212, 180);"/>
  <polygon class="cls-1" points="13.51 25.09 22.74 27.53 26.19 16.04 25.15 6.63 19.15 .2 50.13 0 43.85 10.24 44.47 23.31 47.04 28.02 56.66 26.32 47.5 32.69 33.43 31.21 22.4 33.15 13.51 25.09" style="fill: rgb(224, 212, 180);"/>
  <polygon class="cls-1" points="94.43 112.95 84.56 97.58 70.28 97.58 60.07 113.94 68.94 106.2 76.39 120.3 85.23 105.33 94.43 112.95" style="fill: rgb(224, 212, 180);"/>
</svg>