<?xml version="1.0" encoding="UTF-8"?>
<svg id="Layout" xmlns="http://www.w3.org/2000/svg" viewBox="0 0 78.5 27.29">
  <defs>
    <style>
      .cls-1 {
        fill: #aa6453;
      }
    </style>
  </defs>
  <path class="cls-1" d="m43.57,16.05c.21.16.46.24.71.3.28.07.56.11.85.14.27.03.55.02.78-.16-.05-.03-.1-.04-.12-.1q.13-.04.11.11c.19.01.34-.06.52-.12.46-.16.94-.2,1.41-.03.08.03.15.05.23.08.57.26,1.14.19,1.7-.02.23-.08.46-.13.7-.17.24-.05.46.05.66.15.36.17.72.29,1.13.11.1.36.37.43.67.41.15,0,.27-.06.32-.21.13-.36.44-.56.74-.73.3-.18.64-.14.95.04.11.06.18.16.22.29.08.26.44.51.7.51.26,0,.4-.19.54-.38.04-.05.05-.13.17-.21,1.41-.02,2.88-.02,4.39.07-.09,1.34.01,2.66-.11,3.96-.11.1-.24.04-.35.07.21.11.32.12.72.05.04-.67,0-1.35.03-2.03.03-.67.05-1.34.07-2.05.22-.03.44-.04.69,0,.07,1.38-.1,2.74-.06,4.15,1.17.03,2.3.03,3.42.1.13.3.12,1.14-.01,1.62-1.13-.04-2.27-.11-3.46-.07-.05.89-.04,1.77-.17,2.64-.22.05-.38.04-.57-.06,0-.43.02-.88,0-1.32-.02-.43.07-.86,0-1.31-.46.01-.9-.1-1.34.03-.08.2.01.34.13.47h0c0-.1.05-.18.17-.17.21.03.44,0,.64.09.07.37.04,2.02-.04,2.29-.21.12-.46.03-.74.09.28.16.56.02.86.2-.34.12-.62.01-.86.05-.13-.09-.04-.23-.13-.3-.02.01-.05.02-.05.04,0,.08-.01.16-.01.24,0,.42,0,.84.03,1.27.16-.35-.06-.75.12-1.12,1.17.02,2.35.14,3.58.11-.18-.13-.18-.12-.77-.13-.26,0-.52-.03-.76-.04-.1-.09-.08-.16-.02-.23h0c-.02-.34-.01-.68.03-1.06.55.08,1.1-.01,1.6.05.1.09.1.17.09.25-.02.46,0,.91-.05,1.37-.01.11-.03.23.05.35.24.16.55,0,.87.14-.3.12-.54-.03-.77,0-.25.04-.5,0-.76,0-.25,0-.5,0-.76,0-.24,0-.48,0-.72-.01-.25,0-.5-.03-.75-.04-.25,0-.5,0-.75.02.88.16,1.78.17,2.66.17.89,0,1.78.09,2.75,0-.27-.13-.51-.03-.7-.15-.02-.12.07-.14.15-.13.63.05,1.26-.02,1.89.05.14.01.27.03.42-.02.04.19.03.35-.03.53-.21-.07-.44.08-.66-.12.2-.14.41-.03.59-.11-.2-.13-1.07-.2-1.53-.11-.12.23,0,.52-.12.78-.51,0-1.01,0-1.5,0-.5.01-1-.11-1.57.05,1.06.03,2.04.06,3.04.09-.04.12-.12.14-.21.13-.75-.06-1.51-.03-2.26-.06-.36-.02-.72-.03-1.09,0-.04,0-.09,0-.14.09,1.34.02,2.65.04,4,.06.09-.33.05-.67.12-1.01.14-.06.29-.04.46,0,.14.29.06.62.16.96.35.12.72.06,1.12.08.06-.9.06-1.78.08-2.69-.96-.04-1.9-.01-2.85,0-.12.31-.07.63-.11.91-.19.12-.37.1-.55.07-.11-.26-.12-1.59-.01-1.94.19-.07.4-.04.6-.02.66.04,1.33.05,1.99.06.21,0,.41.02.62.03.27.01.35-.06.35-.33,0-.51,0-1.03.02-1.54.03-.85.06-1.69.1-2.54,0-.1.03-.2-.04-.33-1.19-.05-2.39-.1-3.63-.15.02-.87.04-1.69.06-2.54h.66c.07.53.03,1.07,0,1.62.28.13.56.05.83.07.27.02.55.01.82,0,.26,0,.53.05.79-.07-.73-.11-1.47-.02-2.19-.1-.08-.15-.1-.28-.06-.42.8,0,1.59,0,2.35,0,.1.11.09.18.04.26h0c.02.09,0,.2.08.29.08.06.17.06.29,0,.1-.51.07-1.04.11-1.58.3-.08.58-.01.9-.03v1.57c.1.11.18.13.26.13.8,0,1.6,0,2.4,0,.03,0,.06-.02.11-.04.1-.52.1-1.06.07-1.6h.74c.13.42-.01.83,0,1.24.01.4,0,.79,0,1.19.58.05,1.11.08,1.65.04-.04-.14-.13-.11-.21-.11-.31,0-.62,0-.93-.01-.11,0-.23.04-.33-.1.26-.1.52-.02.77-.04.24-.02.49.03.73-.05-.47-.23-.99-.02-1.48-.13,0-.16.11-.13.18-.13.37,0,.73,0,1.1.01.11,0,.24.03.29-.12-.26-.01-.52-.03-.79-.04-.27-.01-.53.03-.8-.05.25-.11.51-.05.76-.06.25-.01.51.05.82-.05-.31-.16-.58-.06-.83-.1-.24-.04-.5.07-.77-.08.29-.08,1.36-.06,1.61.03.07.12.06.24,0,.36.08.1.07.22.06.33-.07.53-.03,1.07-.04,1.61,0,.09.01.18-.06.28-.13.08-.3.05-.45.05-.65-.01-1.3-.04-1.96-.05-.4,0-.79.02-1.22.03-.11.65.03,1.31-.16,1.97-.48,0-.96,0-1.47,0,0-.53-.05-1.03.03-1.57.46-.11.94.11,1.41-.04-.22-.09-.46-.06-.68-.07-.24-.01-.48-.04-.73-.06-.04-.4-.05-.79.03-1.22,1.71-.05,3.41.03,5.1-.01-.48-.15-.98-.05-1.42-.15-.13-.07-.07-.2-.16-.28-1.21-.06-2.43,0-3.68-.03-.08,1.56.02,3.07-.07,4.56.07.11.16.12.26.13.21,0,.41.03.62.02.72-.02,1.44.04,2.16.07.1,0,.21.03.31-.06-.05-.12-.15-.11-.25-.11-.82-.01-1.65-.02-2.47-.03-.12,0-.25,0-.42-.13,1.04-.04,2.02.01,3,0-.1-.12-.25-.12-.38-.12-.37-.01-.73-.02-1.1-.02-.42,0-.85,0-1.27-.01-.09,0-.18.02-.25-.06,0-.09.05-.09.11-.09.86.04,1.72,0,2.57.06.71.05,1.42.05,2.13.08.07,0,.13.02.21-.06-.18-.1-.36-.08-.54-.09-.49-.02-.99,0-1.48-.05-.96-.07-1.92,0-2.88-.1-.05,0-.12.01-.15-.07.05-.09.14-.09.23-.08,1.42.07,2.84.09,4.26.13.22,0,.43.04.67.06,0,.6,0,1.19,0,1.81h-1.44c.21.16.44.14.67.14.24,0,.48,0,.66,0,.14.09.1.21.27.29.29,0,.65.04.99-.01.15-.18.04-.38.13-.57.21-.03.44.05.69-.06-.23-.16-.49,0-.75-.18.31-.08.55-.04.81,0,.07.42.03.83.03,1.26-1.18.07-2.34-.12-3.52.01.06.08.14.06.21.07.97.08,1.94.05,2.92.07.11,0,.25-.04.36.12-.19.05-.36.08-.52.07-1.04-.1-2.09-.01-3.16-.08.15-.64.01-1.24.09-1.86h1.41c-.2-.15-.43-.1-.64-.14-.23-.05-.46.04-.63,0-.17-.06-.12-.24-.25-.29-.13.04-.12.15-.1.25.12.54-.02,1.07-.01,1.61,0,.03-.02.06-.04.11-.22.08-.44,0-.67-.04-.12-.28.08-.57-.05-.84-.09-.09-.2-.12-.31-.12-.79.01-1.57-.09-2.34-.02-.1.3-.12,2.4-.03,2.72.39.05.8.02,1.22.04.16-.29-.03-.63.15-.91.11-.07.21-.01.32,0,.12.27,0,.56.11.86.62.07,1.26,0,1.9.05.65.05,1.3.04,1.95.04.64,0,1.28.07,1.91.03.11-.35.17-4.71.07-5.09-.4-.04-.82-.1-1.28-.05-.02.83-.01,1.63-.09,2.44-.2.09-.38.11-.61,0,0-.79.12-1.6,0-2.39-.11-.1-.24-.07-.37-.07-1.04,0-2.08,0-3.12-.05,0,0-.02-.01-.05-.03,0-.43,0-.87,0-1.32,0-.21.09-.27.31-.28.53-.01,1.05-.01,1.58,0,.47,0,.94.02,1.41.03.09,0,.18,0,.27-.04.07-.06.06-.15.06-.23,0-.65.08-1.3.05-1.95-.03-.55,0-1.09.02-1.64,0-.16-.04-.31-.1-.51-1.72-.01-3.46.02-5.19-.03-1.74-.05-3.48-.04-5.22-.07-1.73-.04-3.46-.03-5.2-.05.02-.18.11-.14.17-.14.34-.02.69.02,1.03.03.7.02,1.39.02,2.09.02.77,0,1.53,0,2.3.02,1.85.02,3.71.05,5.56.07.66,0,1.33.02,1.99.04,1.53.03,3.07.02,4.6.03.13,0,.27-.02.48.07-.45.14-.84.02-1.22.04-.38.02-.76-.06-1.2,0,.19.24.44.06.6.24-.02,1.33-.04,2.68-.02,4.03.32.09.88.09,1.33.02.08-.67.02-1.35.06-2.03.04-.67,0-1.35,0-2.03.57-.2,1.1.05,1.62-.03.12-.11.13-.25.13-.39.03-1.21.05-2.42.07-3.64,0-.11,0-.23-.06-.37-.25-.06-.53-.1-.82-.09-1.11.03-2.22-.03-3.33-.03-.47,0-.94,0-1.4,0-.58,0-1.17-.01-1.75-.02-.66-.02-1.33-.03-1.99-.02-.38,0-.75-.05-1.13-.03-.76.02-1.53-.01-2.3-.02-.87,0-1.74,0-2.61-.03-.63-.02-1.26-.03-1.89-.04-.22,0-.43,0-.65.06-.35.09-.7.08-1.05,0-.26-.07-.52-.07-.78-.06-.07,0-.14.02-.21,0-.53-.07-1.07-.05-1.61-.07-.19,0-.33-.04-.42-.23-.03-.06-.08-.11-.12-.16-.23-.3-.59-.31-.84-.03-.09.1-.17.22-.21.35-.07.19-.21.29-.4.34-.58.14-1.11.1-1.51-.42-.07-.09-.15-.17-.23-.25-.21-.2-.45-.18-.62.05-.07.09-.12.2-.19.32-.16-.12-.35-.15-.52-.22-.33-.14-.65-.09-.96.05-.33.15-.68.27-1.02.42-.18.08-.36.06-.54,0-.29-.1-.59-.2-.88-.29-.57-.18-1.15-.23-1.71.03-.63.3-1.27.24-1.9.03-.59-.19-1.17-.12-1.76.02-.06.01-.11.03-.16.06-.57.24-1.15.22-1.74.05-.41-.12-.82-.21-1.24-.26-.33-.04-.65.02-.92.21-.41.28-.84.25-1.28.13-.14-.04-.29-.07-.43-.1-.4-.11-.79-.09-1.16.12-.02.01-.07,0-.1,0-.1-.12.03-.28-.12-.41-.29-.1-.5.15-.75.26-.15,0-.26-.07-.34-.18-.13-.19-.3-.18-.49-.1-.11.05-.22.12-.33.18-.34.19-.44.17-.69-.15-.04-.05-.08-.08-.16-.1-.36.15-.71.4-1.1.49-.15-.08-.09-.2-.11-.29-.04-.35-.15-.43-.49-.41-.27.01-.5.1-.71.28-.24.21-.48.43-.75.59-.13.08-.2.22-.33.32-.12-.07-.18-.2-.26-.3-.45-.57-1.03-.9-1.76-.93-.21,0-.41-.02-.62-.02-.25,0-.48.06-.69.18-.09.05-.18.1-.29.09h0c.14-.18.29-.35.43-.53.34-.47.3-1.05-.1-1.47-.15-.15-.35-.19-.53-.2-.95-.07-1.85.75-1.86,1.67,0,.64.63,1.14,1.22.89.13-.05.26-.09.39-.13.04-.01.08-.04.13,0-.39.39-.68.85-1.01,1.31-.54-.06-1.08-.21-1.6-.4-.16-.06-.32-.13-.48-.18-.35-.1-.67-.07-.97.17-.13.11-.22.26-.38.33-.14-.07-.14-.21-.2-.32-.05-.08-.09-.16-.18-.2-.1-.04-.17.06-.24.07-.3.05-.33.27-.38.49-.09.42-.06.84-.06,1.26,0,.04,0,.09.07.11.07-.14,0-.31.12-.47.11.2-.02.39,0,.57.02.18.02.36.02.57.19-.11.13-.29.21-.42.12.17.09.34.09.49-.16.21-.34.21-.52.1-.05.14.02.16.09.18.25.06.61-.14.65-.42.01-.13.02-.28.13-.38.11,0,.12.1.16.16.18.33.48.43.83.46.35.03.68-.03,1-.18.37-.18.77-.28,1.17-.39.33-.09.54-.02.62.3.12.45.42.77.71,1.11h0s.1.04.14.07h0s.05.04.08.07h0c.32.11.64.23.98.29.43.09.85.04,1.24-.12.53-.2,1-.5,1.4-.9.08-.08.15-.18.29-.21.38.12.65.41.9.75-.02-.19-.02-.19-.14-.36-.08-.12-.16-.25-.28-.34-.11-.09-.22-.17-.28-.32.03-.14.09-.28.19-.41.15-.19.22-.43.2-.67,0-.1-.02-.2-.02-.3.22-.12.45-.19.63-.32.14.06.13.17.13.27,0,.56,0,1.12,0,1.68,0,.28,0,.57,0,.88.14-.02.11-.17.22-.18.08.1,0,.34.25.33.16-.14.15-.36.24-.58.4-.02.76.11,1.08.36.13.1.24.27.44.18.14-.11.06-.29.18-.42.44,0,.71.39,1.08.56.23-.17.12-.42.2-.64.41,0,.64.39.98.48.11-.05.13-.14.16-.23.1-.25.21-.3.44-.21.11.04.2.11.3.17.16.11.33.2.52.25h0s-.01,0-.01,0c.17.19.41.17.63.18.43.03.84-.07,1.24-.21.2-.07.4-.09.61-.06.28.04.56.1.84.18.17.05.34.15.52.02.07-.05.19-.01.26.04.33.23.68.17,1,.02.27-.13.55-.12.83-.17.19-.04.34.12.53.14-.24-.29-.57-.3-.9-.25-.18.03-.35.1-.51.15-.08-.05-.04-.17-.19-.21-.3-.02-.67,0-1.01-.18-.02,0-.03-.01-.04-.02,0,0,.02.01.03.02.22-.03.46.05.67-.07-.32-.04-.62-.1-.91-.24.17-.04.36.11.56-.1-.31-.1-.65-.04-.91-.26.2-.04.39.09.6-.04-.15-.15-.34-.07-.49-.15-.03-.02-.06-.03-.06-.07.04-.09.19-.02.21-.16-.1-.13-.33,0-.4-.19.05-.07.16-.02.2-.13-.08-.16-.27-.13-.4-.21.03-.08.17-.03.17-.14,0-.1-.13-.08-.17-.15-.03-.07.07-.12,0-.21-.03-.08-.17-.05-.23-.13.07-.07.18-.03.21-.14-.04-.14-.24-.07-.27-.2.13-.13.32,0,.46-.11-.11-.12-.26,0-.38-.11.26-.19.56-.03.86-.12-.28-.13-.56-.07-.79-.23.66-.05,1.27.22,1.89.33.32.38.58.79.8,1.21.26.49.56.94.87,1.39.15.22.33.4.56.54.21.13.45.21.66.37-.16.1-.28.04-.4,0-.23-.09-.47-.17-.72-.22Zm-14.64-4.12h0s0,0,0,0Zm3.92,3.64s-.05-.05-.07-.07c-.35-.11-.68-.25-1.05-.32-.01-.62-.04-1.21.06-1.85.31.09.55-.11.87-.11,0,.16,0,.3,0,.43,0,.48,0,.96-.01,1.44,0,.16.02.29.12.42.02.02.05.05.07.07h.01s0,0,0,0Zm1.44.21s-.06-.03-.09-.04c-.09-.05-.17-.1-.26-.15-.18-.1-.36-.19-.55-.29-.05-.63,0-1.26-.02-1.86.19-.16.36-.19.57-.03.04.7-.03,1.43.02,2.16.11.02.26-.07.29.13.02.03.03.06.05.09h0Zm19.32.07s-.05.05-.07.07h0s.05-.04.07-.07c.02-.02.05-.05.07-.07,0-.13.04-.2.18-.17.11-.52.05-1.06.16-1.59.01.46.02.93.03,1.39.15-.27.1-.56.15-.83.05-.28-.06-.58.17-.83v1.03c.12-.38.13-.77.24-1.19.06.25,0,.48.1.71.17-.28.04-.6.2-.87.12.16,0,.33.14.5.1-.32.05-.62.1-.9.07,1.1.02,2.5-.1,2.76-.36-.32-.75-.26-1.16-.13-.07.04-.15.08-.22.11-.02.02-.05.05-.07.07Zm-16.09-.34s.04.01.04.02c0,0-.02,0-.03-.02-.02,0-.04-.02-.03-.02,0,0,.02,0,.03.02Zm-11.75-4.46s.02-.06.05-.02c-.02,0-.04.01-.06.02-.02.02-.05.05-.07.07-.03.05-.05.11-.14.09.03-.07.09-.07.15-.09.02-.02.05-.05.07-.07Zm20.42,5.08s.03-.02.03-.02c0,0-.02,0-.04.02-.02,0-.02.06-.05.02.02,0,.04-.01.06-.02Zm-20.7-3.99c-.01.08-.06.12-.14.14-.06.16-.11.33-.19.47-.07.12-.13.23-.17.37-.07.29-.06.59-.04.89.03.31.23.57.29.88,0,0,.04,0,.06.01.09-.11,0-.26.09-.38.08.19-.02.39.08.61.12-.31.17-.58.14-.86-.01-.17,0-.34.05-.51.04-.15,0-.31.07-.49.06.19,0,.37.07.55.22-.17.14-.42.26-.6.07.04,0,.16.13.18.11-.18.07-.41.14-.61.08.07.04.16.06.23.02.08-.04.18.07.25.18-.11.07-.35.22-.48.11.09,0,.25.11.34.21-.12.1-.38.25-.52.09.15-.01.34.13.46.19-.08.09-.3.2-.42.13.12-.01.32.13.42.15,0,.07-.22.22-.22.1.1-.01.27.13.34.13.04.11-.14.22-.14.05.18.07.39.17.55.13.19.16.4.19.61.04.25.04.5.02.75-.01.16-.04.33.04.51.14-.09.25-.16.37-.23.07-.19.24-.33.28-.53.01-.06.08-.07.14-.08.01-.07.02-.14.03-.2.11-.45.21-.91.11-1.38,0-.04,0-.09,0-.14-.03-.03-.07-.06-.04-.11.05.03.03.07.03.11.18.33.15.68.11,1.03-.03.24-.04.5-.25.68-.1.23-.1.53-.41.62-.11.3-.39.4-.62.55h0c-.06.09-.14.15-.27.11-.05-.1.04-.25-.08-.35-.2.1-.04.31-.13.42-.23.13-.16-.22-.3-.2-.13.08.02.26-.15.28-.1-.01-.04-.16-.15-.17-.23.21-.56.22-.97.01-.05-.06.02-.17-.1-.21-.1.13-.23.05-.32-.02-.22-.16-.43-.33-.58-.57-.42-.67-.38-1.4-.24-2.12.05-.26.19-.51.41-.7.04-.06.07-.11.14-.14.02-.02.05-.05.07-.07.1-.3.32-.47.62-.55.06-.09.13-.18.29-.17-.07.13-.18.14-.29.16-.19.2-.4.38-.62.55-.02.02-.05.05-.07.07Zm1.31-.89s-.03.08-.13.05c.06-.02.1-.04.13-.05h0s-.01,0-.01,0Zm10.52,1.03s.07-.01.04.04c-.02-.01-.03-.02-.05-.04-.06,0-.13.02-.18-.05.08-.01.14,0,.19.05Zm.96,3.64c-.09.08-.19.08-.32.02.13-.08.23-.02.33-.02h0Zm-13.11-4.51c-.17.07-.34.08-.52,0-.51-.22-.65-.61-.39-1.05,0-.08.02-.14.14-.15-.03.1-.08.13-.15.14.02.14-.12.28-.01.43.06-.02.13-.02.17-.05.29-.23.62-.42.87-.69.12-.01.23,0,.34.05.06.15,0,.27-.11.37-.21.21-.43.4-.56.67-.03.07-.1.09-.17.1-.06.01-.09.07-.1.13.15.02.29.04.44.01.03-.03.06-.07.09-.01.01.03-.03.04-.06.05Zm16,.81h0c-.21.02-.39-.07-.54-.2.2.02.4.04.54.2Zm6.81-.28c-.1,0-.21.04-.31-.05.12-.03.22-.02.31.05.27.05.58-.08.87.21-.34-.05-.61-.09-.87-.21Zm26.19,5.29c.05.09.09.19,0,.29-.51-.09-1.02-.04-1.53-.07,0,0-.01-.02-.02-.03-.02-.04.04,0,0-.03.05-.07.12-.04.19-.04.35,0,.71,0,1.06,0,.12,0,.23.01.3-.11-.52-.04-1.04.02-1.54-.06,0-.09.02-.11.06-.11.45,0,.89.01,1.34.02.1,0,.14.06.15.15Zm-10.47,1.63c-.03-.12-.13-.11-.22-.11-.29,0-.59,0-.88,0-.16,0-.33,0-.51-.1.14-.11.26-.08.38-.08.42.02.84.06,1.25-.03,0-.02,0-.04,0-.07-.52-.07-1.04,0-1.59-.06.02-.6-.02-1.18.05-1.76.5-.1.98.01,1.45-.08-.46-.14-.95,0-1.4-.12-.06-.11-.07-.21-.02-.3.55-.06,1.33-.04,1.61.06-.09.64.03,1.3-.09,1.94-.28,0-.52-.01-.76,0-.23.01-.47-.03-.69.06.48.09.97.03,1.46.11,0,.05,0,.1,0,.14,0,.02,0,.05,0,.07.04.12.07.24.03.36,0,.06,0,.11-.07.17-.24-.05-.5-.02-.76-.04-.26-.02-.54.05-.8-.06.04-.18.16-.12.25-.12.44.02.89.04,1.33.02Zm12.74-2.59c-.04.12-.08.24-.12.37-.23,0-.47-.04-.75.05.24.13.49,0,.73.15-.29.1-.53.06-.79.08-.02-.14-.05-.26.02-.38.23-.07.47,0,.71-.07-.22-.22-.49,0-.78-.15.38-.07.68-.04.98-.04h0Zm-24.95-2.13s-.04-.02-.04-.02c0,0,.02.01.03.02.09-.04.2-.02.28-.13-.11-.12-.32-.04-.42-.18.08-.1.25,0,.29-.14-.08-.14-.28-.02-.35-.17.04-.14.23,0,.27-.14-.14-.1-.32-.06-.46-.17.12-.06.25,0,.37-.11-.16-.05-.3-.1-.44-.14.12-.09.28-.02.37-.16-.16-.15-.38-.05-.57-.13.16-.06.34-.05.48-.16-.16-.11-.33-.03-.47-.12.26-.14.53-.09.83-.12-.17-.15-.34-.15-.58-.19.52-.11.88-.07,1.25.12,0,.99,0,1.99,0,3.01-.13-.02-.24,0-.34-.05.06-.08.18-.02.21-.16-.15-.06-.3-.12-.47-.19.11-.07.25.01.34-.13-.16-.13-.38-.11-.55-.22.13-.07.28,0,.4-.09-.13-.12-.31-.1-.42-.21Zm-14.85-.28s-.07-.01-.13-.02c.07-.04.1,0,.13.02.1-.03.23.03.3-.1-.12-.14-.31-.12-.44-.22.05-.07.16-.02.18-.11,0-.14-.18-.13-.22-.23.02-.04.08-.06.05-.12-.05-.04-.1-.08-.15-.11-.02-.08.08-.09.07-.15,0-.06-.11-.07-.05-.15.09-.08.24-.01.35-.11-.06-.05-.11-.08-.16-.11.09-.08.2-.1.29-.07.29.07.59.08.85.25.11.08.24.13.37.12.26.33.42.7.56,1.07.19.49.42.96.74,1.38.1.13.24.24.31.42-.63.04-1.24.2-1.92-.05.23,0,.37,0,.52,0,.15,0,.3.02.44-.04-.54-.18-1.13-.14-1.63-.43.22.02.43.07.65.12.47.1.47.1.68-.02-.24-.05-.47-.08-.69-.14-.22-.05-.45-.07-.63-.24-.04,0-.09.02-.11-.04.05-.03.08,0,.11.04.23-.04.45.07.67.11.06.01.14.05.17-.11-.39-.05-.78-.11-1.17-.34.3-.06.55.12.81,0-.26-.13-.58-.12-.83-.3.15-.09.3.04.45-.05-.19-.15-.4-.16-.58-.27Zm14.85,2.13c.11.08.26.12.38.27-.22-.01-.37-.05-.38-.27-.11,0-.25.03-.33-.05-.19-.21-.43-.21-.69-.2-.4.06-.79.17-1.2.06.39-.04.77-.07,1.16-.11,0-.05.01-.09-.06-.14-.35.07-.73.04-1.1,0q.5-.06.63-.19c-.42-.02-.85-.02-1.33-.15.33-.09.61.04.93-.11-.38-.1-.71-.05-1.08-.17.25-.09.46.02.7-.1-.3-.09-.58-.03-.83-.18.16-.04.31-.07.53-.12-.36-.14-.68-.13-.99-.28.23-.09.45.08.66-.07-.23-.14-.48-.1-.69-.22.13-.06.28.01.42-.1-.23-.06-.43-.1-.63-.15.11-.13.27-.09.42-.19-.16-.03-.27-.06-.39-.08-.03,0-.04-.03-.03-.05.03-.09.16-.04.18-.14-.1-.11-.26-.03-.37-.11.05-.07.16-.05.17-.18-.16-.08-.35,0-.52-.09.15-.05.3-.09.46-.11.16-.02.32.06.53,0-.29-.18-.58-.08-.9-.16.5-.22.98-.14,1.4-.12.1-.06.04-.14.12-.18.16,0,.32.07.49.04.53.46.88,1.03,1.16,1.65.22.49.41,1,.72,1.44.14.2.25.43.47.57Zm-2.13.2c-.12.1-.26.12-.42.12-.36-.01-.69-.14-1.02-.26-.24-.08-.48-.12-.74-.13-.3-.01-.6.04-.9.06-.22.01-.43,0-.68-.02.13-.07.29,0,.35-.17-.2-.09-.43-.03-.64-.11.16-.13.36,0,.51-.17-.26-.12-.55,0-.76-.2.06-.08.19,0,.25-.11-.16-.11-.39-.06-.53-.22.06-.05.15-.02.2-.12-.2-.02-.29-.14-.27-.33-.18-.08-.38-.07-.51-.2.03-.09.14-.05.15-.15-.1-.13-.3-.07-.41-.2.02-.12.18-.02.2-.14-.07-.12-.23-.07-.33-.16.04-.07.16-.02.18-.12-.03-.09-.18-.06-.2-.18.12-.13-.03-.19-.13-.26.24-.08.46-.1.68-.11.2-.02.41.01.61-.06-.37-.2-.76-.04-1.21-.08.79-.3,1.46-.07,2.14.09.04.06.07.11.1.16.34.54.58,1.14.95,1.66.25.35.45.74.86.96.49.27,1,.45,1.56.45h0Zm13.62-1.99h0c.2-.23.45-.36.77-.35.71.03,1.41.04,2.12.03,1.03-.02,2.06,0,3.09.01,1.81,0,3.62.01,5.43.02,1.06,0,2.13.06,3.19.05.18,0,.37-.03.52.07.07.12.08.23-.04.38-1.59.05-3.22-.06-4.91,0,.28.1,1.6.12,2.48.11.82-.01,1.64.03,2.46.04.13.33-.02.61,0,.92-.39.1-.77.02-1.14.02-.38,0-.76.02-1.13.04-.38.01-.75-.05-1.13-.03-.38.02-.75,0-1.13,0-.38,0-.76,0-1.13,0-.38,0-.76,0-1.13,0-.38,0-.75,0-1.13,0-.38,0-.75-.01-1.13.01-.37.03-.75-.07-1.13-.05-.36.02-.73-.04-1.09.05.13.04.25.04.37.05.79.05,1.58.02,2.36.05.96.04,1.92.01,2.89.02,1.03,0,2.06.02,3.09.03.64,0,1.28.01,1.92.02.16,0,.32.02.48.04.06,0,.14.02.15.11-.04.06-.1.05-.15.05-.32.04-.64-.03-.96-.03-1.14,0-2.29,0-3.43-.03-.86-.02-1.71.01-2.57,0-1.53-.04-3.07-.02-4.6-.06-1.35-.04-2.7,0-4.05-.02-1.33-.03-2.65.02-3.98-.07-.15,0-.3-.01-.44.05.26.12.54,0,.79.15-.53.12-1.07,0-1.61.04-.17.01-.36.01-.58-.13.43-.05.8.04,1.15-.07-.19-.03-.39-.05-.58-.05-.42,0-.42,0-.58-.15.48-.03.94-.02,1.39-.01.45,0,.91.06,1.35-.05-.46-.07-.91-.06-1.37-.05-.46,0-.92.03-1.42-.16.08-.05.1-.09.13-.09.85-.12,1.71,0,2.6-.07-.9-.16-1.77,0-2.63-.13-.05-.19-.09-.34.03-.49.28-.12.59.01.94-.1-.34-.1-.66.04-.92-.13-.06-.1-.08-.2-.03-.3.12-.12.28-.1.42-.1.54,0,1.08.03,1.61.03,1,0,1.99.01,2.99.02.38,0,.76.11,1.15.02.1-.02.2.02.27.14-.01.06-.03.12-.04.19Zm4.26,6.23s0-.06,0-.09c-.34-.06-.67-.07-1.02-.08-.55-.01-1.1-.05-1.65-.07-.66-.02-1.33-.01-1.99-.02-.16,0-.32.02-.46-.09-.08-.31-.06-.71.04-.98,1.73.07,3.46.1,5.18.18.11.32,0,3.74-.11,4.11-1.15.06-2.32-.11-3.42-.04-.16.07-.12.23-.26.27-.49-.07-1.02.06-1.52-.06-.15-.18-.09-.32.01-.46.86.11,1.72.05,2.58.08.85.03,1.69.05,2.54.03-.85-.1-1.7-.07-2.55-.12-.86-.05-1.73-.01-2.59-.08-.02-.17-.04-.29.04-.45.84-.01,1.7.06,2.55.06.85,0,1.7.12,2.55.03-.27-.09-.55-.07-.83-.09-.27-.02-.55-.03-.82-.04-.29-.01-.57-.01-.86-.02-.29,0-.57-.03-.86-.04-.27,0-.55,0-.82-.01-.27-.01-.56.04-.86-.08.12-.12.23-.1.34-.1.77.02,1.53.06,2.3.06.72,0,1.44.08,2.16.09.1,0,.2.03.31-.08-.55-.14-1.08.06-1.62-.14.04-.52-.02-1.03.07-1.5.14-.09.24-.05.34-.04.35.05.71.05,1.06.04.06,0,.14.03.16-.09-.51-.06-1.04.02-1.53-.16.25-.13.5-.05.75-.03.26.02.52,0,.78,0Zm1.82,5.33c.1.12.19.1.26.1.42,0,.85.01,1.27,0,.54-.02,1.07.03,1.61.05.74.03,1.49.01,2.23.04.49.02.98-.02,1.47.04.05,0,.12,0,.12.08-.03.07-.09.05-.15.05-.73-.01-1.46-.02-2.2-.04-.81-.02-1.63.03-2.44-.06-.12-.01-.26-.03-.42.12.48.07.92.02,1.35.05.42.03.85.01,1.27.02.43,0,.87,0,1.3.03.42.03.85-.03,1.27.09-1.71.05-3.43-.02-5.14.06.37.09.75.09,1.12.08,1.28-.03,2.56.06,3.84.06.06,0,.14-.03.15.1-.86,0-1.71.02-2.57,0-1.21-.04-2.34-.03-2.53.06.03.04.08.04.12.04.41,0,.82.02,1.24.02,1.06,0,2.13.01,3.19.02.18,0,.36.04.54.06-.09.06-.18.07-.27.06-.51-.03-1.03,0-1.54,0-.64-.01-1.28.02-1.92-.05-.24-.02-.48,0-.72,0-.07,0-.16-.01-.2.09.16.1.38-.04.57.17-.39-.12-.74-.02-1.09-.11-.12-.29,0-.59-.11-.92-.55-.09-1.14.01-1.71-.12-.03-.13-.05-.25,0-.37.35-.01.68.07,1.01.04.33-.02.67.05,1.05-.05-.14-.13-.26-.1-.37-.1-.43,0-.87,0-1.3-.02-.13,0-.27.01-.41-.09.04-.15-.04-.31.03-.47.25-.09,1.68-.08,2.08.03.07.26.05.53-.03.8-.65.09-1.29-.05-1.97.03Zm9.08-12.04c-.06.11-.15.1-.23.1-.3,0-.59,0-.89-.01-1.62,0-3.25,0-4.87-.01-1.65,0-3.29-.02-4.94-.03-1.51,0-3.02-.05-4.53-.02-.1,0-.21.02-.26-.08,0-.05.03-.09.06-.09,5.11-.07,10.23.03,15.34.07.11,0,.23-.03.33.08Zm-.03-.33c-.07.08-.14.07-.21.07-1.27,0-2.54-.01-3.81,0-1.34.01-2.68,0-4.01-.05-.7-.02-1.4,0-2.09,0-.82-.01-1.65-.03-2.47-.03-1.15,0-2.29,0-3.43-.02-1.14-.03-2.29-.02-3.43-.02-.53,0-1.05,0-1.58,0-.14,0-.28.02-.42-.06.08-.08.15-.08.22-.08,1.06,0,2.13-.02,3.19,0,.4,0,.8,0,1.2.04.26.03.52-.04.79-.02.49.03.98.01,1.47.04.57.03,1.14-.02,1.72,0,1.44.04,2.88,0,4.32.06.63.03,1.26.01,1.89.02,2.1.02,4.19.01,6.29.02.12,0,.25-.02.39.07Zm-54.02.58c-.13.05-.27.07-.37.16-.03.08.08.08.06.17-.37.24-.79.4-1.23.52-.42.12-.79.02-1.09-.3-.11-.12-.17-.27-.26-.39.02-.13.04-.26.06-.37.04-.1.18-.09.2-.21.02-.07-.13-.09-.07-.21.15-.04.31-.09.48-.12.11-.02.25-.04.33.05.28.3.65.35,1.03.39.26.03.52.07.78.1-.39.06-.78.05-1.15.21.41.05.82-.1,1.23,0Zm43.28,2.66c-.36-.13-.73-.06-1.1-.08-.39-.01-.77,0-1.16,0-.02-.11-.04-.17-.04-.24,0-.04.02-.09.03-.15.81-.07,1.61.04,2.43.05-.02.34.04.65-.07.96-.8-.12-1.59.01-2.36-.14.24-.11.5-.07.75-.07.26,0,.53.02.79,0,.25-.02.5.08.74-.01-.75-.2-1.53-.04-2.35-.18.22-.21.41-.1.59-.1.19,0,.39,0,.58.01.21,0,.41,0,.62,0,.19,0,.38.05.56-.04Zm3.9-.42c-.04.34,0,.64-.07.99-.74-.17-1.48,0-2.23-.07v-.92h2.3Zm-35.94-3.01c.07.77-.09,1.52-.04,2.28-.5-.15-.57-.23-.56-.67,0-.45.03-.91.04-1.36,0-.11.02-.2.13-.27.12-.03.24-.02.42.02Zm20.45-1.78c-.14.31-.13.62-.13.94,0,1.11,0,2.21-.02,3.32,0,.11-.02.23.05.4.16-.72.04-1.39.11-2.08.03.05.06.07.06.08,0,.59,0,1.19-.04,1.78,0,.2-.03.38.14.51-.13.18-.26.17-.4.06-.13-.09-.15-.21-.15-.36-.04-1.49.09-2.97.16-4.45,0-.11.05-.22.12-.31.4-.16.47-.13.47.23-.08-.27-.26.02-.37-.13Zm11.41,14.26c-.77.02-1.52-.01-2.3-.06.05-.25-.03-.49.05-.72h2.25c.1.3.1.39,0,.78Zm-5.21-12.05c-.1.14-.26.1-.4.1-.79,0-1.58-.02-2.37-.03-.74,0-1.49-.02-2.23-.03-.11,0-.25.03-.34-.07.03-.08.09-.1.15-.1,1.68-.02,3.36-.04,5.04.03.05,0,.11.02.15.1Zm6.95,8.9s0-.07,0-.1c.16-.08.35-.05.52-.04.81.03,1.62.07,2.43.09.6.02,1.21.02,1.81.04.13,0,.27-.02.4.16-1.76-.05-3.46-.1-5.16-.15Zm3.77-5.91c.1-.1.22-.09.35-.09.31,0,.62,0,.93,0,.06,0,.14.02.16-.1-.19-.06-.38-.03-.58-.03-.25,0-.5,0-.76,0-.07,0-.14,0-.14-.11.33-.08,1.31-.06,1.59.03.04.22.06.44-.08.65-.26-.02-.51-.04-.76-.07-.25-.03-.51.02-.76-.07.24-.03.49-.02.73-.04.25-.02.51.07.75-.06-.47-.12-.96-.01-1.43-.12Zm2.71,6.22c.2-.12.43.02.62-.14-.23-.09-.44-.01-.64-.06.15-.2.34-.21.74-.07.05.12.09.25.01.38-.21.02-.43-.05-.66.04.2.19.45.06.7.18-.25.11-.48,0-.69.11.2.18.44.07.65.13,0,.13.04.25-.04.38-.24-.06-.48.01-.79-.08.27-.1.51.03.72-.11-.2-.19-.45-.04-.64-.14-.04-.21-.04-.41.02-.61Zm-22.78-9.44c.17.09.15.23.15.36,0,.65-.01,1.3-.02,1.95,0,.19-.01.38.11.56.05.07.08.17.02.26-.18.05-.26-.02-.29-.19-.01-.08-.01-.16-.01-.24,0-.56,0-1.12,0-1.67,0-.34-.01-.68.04-1.03Zm22.9,6.36c.26.13.51.04.74.08.05.15,0,.26-.04.36q-.53.1-.78-.03c-.02-.29-.02-.57.05-.88.25.05.47-.03.73.08-.23.1-.46-.01-.67.11.22.14.48,0,.7.15-.24.1-.47,0-.73.12Zm-39.61-4.46c-.09-.42-.05-1.35.07-1.57.07.11.12.23.12.36,0,.31.13.6.2.89.02.09.11.18.05.29-.14.01-.27.02-.43.04Zm33.7,11.6c-.24-.09-.46-.02-.67-.06-.04-.39-.04-.43.07-.69.24.02.49-.07.76.12-.24.08-.47-.04-.69.09.23.12.45.05.66.12,0,.21.09.41-.14.57-.14,0-.28-.02-.5-.03.21-.08.37,0,.52-.13Zm1.51-9.53c-.68.04-1.36.1-2.04.04-.05,0-.08-.04-.08-.09.02-.09.1-.09.16-.08.65.05,1.31,0,1.96.13Zm-2.15.17c.74.03,1.43-.01,2.13.06-.02.1-.07.11-.11.11-.61,0-1.21.03-1.82-.01-.07,0-.14-.02-.21-.16Zm-2.4,9.1c-.02-.07-.02-.13.03-.14.21-.02.42-.05.63.02.02.17.05.31-.07.46-.19,0-.4.06-.61-.11.17-.15.37-.06.57-.14-.2-.07-.39-.01-.54-.09Zm9.69-7.94c-.15-.14-.27-.11-.39-.11-.12,0-.27.05-.4-.12.3-.02.56-.04.82,0,.04.15.04.27-.04.37-.39.09-.61.07-.77-.1.26.03.49,0,.78-.05Zm-30.6-5.95c-.3-.03-.56-.18-.85-.18-.27,0-.55.1-.88.01.59-.21,1.13-.04,1.66-.03.04.06.08.1.07.2Zm12.3.22c.88-.06,1.77-.09,2.65,0h-2.65Zm-5.34.09c0-.5,0-.99,0-1.49,0-.18.1-.32.33-.33.05.12,0,.21-.02.33-.05-.06-.05-.12-.17-.1-.18.5-.02,1.05-.14,1.58Zm-5.25-.81c.57-.14.82-.12,1.06.09-.36-.05-.68.03-1.06-.09Zm-7.18-.04c.45-.05.86.16,1.29.19.05,0,.1.06.03.15-.44-.09-.86-.29-1.32-.35Zm12.08-.29c-.55-.08-.57-.09-.65-.3.25-.01.44.08.65.3Zm23.3,6.05c.24-.06.49-.1.74-.02-.24.08-.49.12-.74.02Zm-.05-.57c.26-.03.53-.08.78.02-.26.08-.53.07-.78-.02Zm.85-.3c-.15.17-.3.1-.43.08-.13-.02-.3.1-.44-.11.31,0,.57-.04.88.02Zm-.85,2.01c.23-.11.46-.14.77-.02-.31.08-.54.05-.77.02Zm.76-.86c-.43.1-.61.09-.76-.04.25-.05.56-.04.76.04Zm-30.93-5.88c-.31.03-.55-.1-.82-.13.26.03.56-.18.82.13Zm27.46.72s0-.03,0-.05c.37,0,.75,0,1.12,0,.03,0,.03.02,0,.04h-1.12Zm-1.31-.01s0-.02,0-.03h1s0,.02,0,.03h-1Zm4.03,4.59c.26-.05.52-.08.78,0-.26.05-.52.07-.78,0Zm-.15,6.31c.19-.05.57-.04.75.02-.21.06-.57.05-.75-.02Zm-23.13-8.38c0-.09-.14-.11-.12-.22.08-.05.14-.05.22.03-.03.12.07.3-.16.36-.05-.09.08-.1.06-.18Zm10.91-2.62s0,.02,0,.03h-.59s0-.02,0-.03h.59Zm3.46.03s0-.01,0-.02h.57s0,.01,0,.02h-.57Zm8.17,14.04s0,.03,0,.04c-.19,0-.38,0-.57,0-.03,0-.03-.02,0-.04h.56ZM24.51,9.99c.05-.1.1-.19.23-.22,0,.17-.12.19-.23.22Zm53.52,6.09q-.33.08-.5-.04c.17-.02.31-.01.5.04Zm-5.25,10.98c-.08.03-.17.06-.25,0,0,0,0-.04,0-.06.09-.02.17-.01.25.05ZM24.03,14.19c.22-.06.37-.06.51,0h-.51Zm13.52-1.87c.14-.01.22-.02.21.15-.06-.04-.14-.02-.21-.15Zm38.9.74c.11-.03.19-.03.27.01-.08.01-.17.05-.27-.01Zm-31.77-1.04c-.1.02-.17.02-.23-.08.11-.05.18-.03.23.08Zm29.11,15.05c-.07.06-.14.04-.21,0,.07-.05.14-.05.21,0ZM27.95,11.29c-.09.03-.14,0-.18-.07.08-.02.13,0,.18.07Zm49.83,1.78c-.05.05-.09.03-.14,0,.05-.04.09-.04.14,0Zm-41.13-1.1s.05-.04.08-.04c.04,0,.09,0,.06.07-.05.03-.1.03-.14-.03Zm38.68,15.14c-.09-.01-.15.04-.17-.05.05-.01.09-.02.17.05Zm-4.22-14.03c-.05.01-.1.04-.14-.02.05-.01.1-.04.14.02Zm-18.23.89s.04.08,0,.13c-.02-.05-.03-.09,0-.13Zm15-.96s.07-.02.11-.02c0,0,.01.02.01.02-.04.03-.08.02-.12,0Zm-30.81-1.04s.02.03.03.04c-.02,0-.03.01-.05.01,0,0-.02-.01-.02-.02,0-.02,0-.04.03-.03Zm28.51,1.01c.06,0,.09-.02.11.02-.03.02-.05.03-.11-.02Zm6.54,14.02s.06-.04.09,0c-.03.02-.06.02-.09,0Zm-21.04-15.4s-.02,0-.03,0c-.02-.02-.01-.04.01-.04,0,0,.02,0,.02.02,0,0,0,.02,0,.03Zm15.01,1.38s-.05.02-.07,0c0,0,.01-.02.02-.02.02,0,.04,0,.06,0Zm-39.82-2.99c-.02-.06-.04-.1.02-.11.02.03.02.06-.02.11Zm-3.19,3.46c.06-.01.1-.02.11.02-.03.03-.06.03-.11-.02Zm4.31-2.24c-.06.01-.09.03-.11-.01.03-.03.05-.03.11.01Zm48.67,1.86s.05-.05.06,0c-.02,0-.04,0-.06,0Zm-38.34,2.91s0-.04.03-.04c0,0,.02,0,.03.02.02.02.02.04,0,.05-.02,0-.04-.02-.05-.03Zm-.3-3.81s-.03-.02-.03-.04c0-.03.01-.04.04-.02,0,0,.02.01.02.02.01.02,0,.04-.03.04Zm37.27.89s-.05.03-.08.01c0,0,0-.02,0-.02.03-.01.05-.01.08.01Zm-38.62-.85s-.02-.02-.03-.04c0,0,.02-.02.02-.02.01.01.02.02.03.04,0,0-.01.01-.02.02Zm26.18.79s-.02,0-.02-.01c0,0,.01-.02.02-.02,0,0,.02,0,.02.01,0,0-.01.01-.02.02Zm-22.2-1.03h-.03s0-.02,0-.03c0,0,.02,0,.03,0,0,0,0,.02,0,.02Zm-13.05-.77s.03-.01.05-.01c0,0,0,.02,0,.02-.02,0-.03.01-.05.01,0,0,0-.02,0-.02Zm20.1.5s-.01-.02,0-.02c0,0,.02-.01.02-.01.03,0,.03.02.01.03,0,0-.02,0-.03,0Zm25.97,15.33s-.01.03-.03.01c0,0,0-.01,0-.02,0,0,.02,0,.02,0ZM26.06,9.54s-.02,0-.03,0c-.02-.02-.02-.04,0-.04,0,0,.02,0,.02.02,0,0,0,.02,0,.03Zm38.63,3.45s.02,0,.03,0c0,0,0,.01,0,.02,0,0-.02,0-.03,0,0,0,0-.01,0-.02Zm12.3.08s.03-.02.04,0c0,0-.01.02-.02.02,0,0-.02,0-.02-.01Zm-26.12-1.34v.03s-.02,0-.02,0l.02-.02Zm4.96,1.41h.02s0,.01,0,.01h-.02Z"/>
  <path class="cls-1" d="m17.1,25.25c.82-.1,1.52-.41,1.92-1.19.08-.14.16-.27.29-.37.29-.23.51-.51.69-.84.29-.53.57-1.07.63-1.69.04-.4.04-.8,0-1.19-.02-.19-.06-.38-.07-.58,0-.08-.05-.18.06-.24.37,1.81.89,1.83,1.62,2.28.12-.02.14-.13.17-.22-.02-.04-.05-.06-.08-.04-.08.04-.16.03-.22-.03-.32-.34-.67-.66-.88-1.09-.22-.44-.2-.89.04-1.31.55-1.01,1.81-1.04,2.45-.37.02.31-.08.66.14.93-.03.11-.1.13-.18.16-.18.07-.36.14-.52.25-.48.3-.67.75-.68,1.31.13-.24.27-.49.39-.73.13-.26.32-.41.62-.39.04-.04.07-.08.13-.02-.03.04-.07.04-.12.04-.13.11-.27.21-.4.32-.11.09-.22.19-.2.39.18-.06.2-.24.32-.32.26-.18.54-.35.85-.44.12-.04.25-.06.27-.28.09.16.14.27.19.36-.06.14-.18.14-.27.16-.42.1-.75.33-1.05.62-.33.33-.49.74-.52,1.2,0,.09.02.18-.05.27-.15.04-.25-.06-.37-.12-.21-.11-.38-.3-.64-.32h0c.31.36.87.7,1.16.7.1-.1.07-.23.06-.36,0-.18,0-.36.04-.54.13-.63.53-.99,1.12-1.18.2-.07.4-.1.59-.17.22-.08.28-.18.19-.39-.23-.59-.23-1.2-.24-1.81,0-.12-.09-.21-.1-.35.2-.09.16-.29.17-.46.01-.22.03-.41.32-.43.12,0,.17-.11.17-.22,0-.09,0-.18.05-.27.01.15.02.29.03.43.21.16.37.35.46.59.09.22,0,.47.06.7.11-.02.08-.09.1-.14.05,0,.21-.09.25-.13,0-.18,0-.36,0-.54,0-.02-.02-.03-.02-.03,0,0,0,.02.02.04.08.18.13.36,0,.55-.07.35-.14.41-.51.48-.16.03-.32,0-.47-.03-.11-.02-.22-.08-.33,0,.16.17.53.27.8.2.61-.16.92-.63.71-1.24-.14-.42-.31-.83-.55-1.2h0s-.05-.05-.08-.07h0s-.1-.04-.14-.07h0c-.11-.02-.22-.04-.33-.08-.59-.19-1.11.15-1.16.76-.03.27,0,.54.04.83-.21,0-.31-.1-.34-.28h0c-.22.03-.43,0-.64-.06-.42-.12-.84-.1-1.24.06-.41.16-.82.36-1.13.68-.23.23-.4.5-.43.83.13.1.16.24.17.38-.11-.11-.16-.24-.17-.39-.21-.41-.49-.77-.81-1.09-.18-.18-.39-.33-.61-.43-.63-.3-1.29-.02-1.55.67-.09.24-.06.47.08.69.14.24.37.3.61.15.16-.1.25-.26.36-.39.1-.02.19.01.24.07.39.42.7.85.64,1.48-.04.45-.18.84-.44,1.2-.14.19-.24.41-.36.61-.2.36-.24.76-.2,1.17,0,.08.04.16,0,.23-.13.15-.36.1-.48.26-.11.15-.21.3-.35.42-.58.51-1.17.73-1.84.34-.43-.25-.84-.24-1.27-.02-.17.08-.28.23-.39.37-.13-.08-.12-.21-.16-.31-.15-.45-.68-.56-1.01-.22-.09.1-.13.24-.25.32-.11-.1-.1-.24-.12-.36-.09-.39-.34-.51-.71-.33-.06.03-.12.07-.21.07-.14-.14-.3-.29-.49-.4-.1-.05-.14-.15-.15-.26-.03-.26-.14-.51-.2-.76-.12-.46-.36-.86-.61-1.26-.21-.34-.3-.69-.11-1.07.01-.03.04-.05.08-.09.17.1.34.18.55.1.09-.04.17-.07.22-.15.15-.26.25-.54.19-.85-.05-.26-.43-.51-.72-.46-.34.06-.66.19-.89.47-.12.15-.25.29-.34.46-.15-.06-.18-.21-.35-.25-.24-.03-.32.24-.49.38-.09-.11-.05-.21-.04-.3.06-.52-.1-.99-.35-1.44-.28-.5-.73-.84-1.17-1.19-.07-.06-.16-.1-.24-.13-.49-.15-.97-.35-1.5-.23-.13.03-.25-.02-.37-.03-.24.23-.47.47-.75.65-.72.47-1.49.59-2.33.44-.44-.08-.7-.36-.88-.74-.06-.14-.14-.27-.2-.41-.04.37.13.66.38.9.22.21.47.36.79.35.15,0,.3.04.44.05.32.01.64.05.95-.09.14-.06.31-.05.53-.09-.18.22-.19.46-.34.64-.07.08-.08.2-.08.29,0,.39-.06.79.19,1.15.09.12.18.2.32.22.14.02.27.05.41.05.46.02.88.09,1.21.46.07.08.19.12.29.18-.04-.12-.11-.23-.21-.3-.37-.28-.76-.52-1.24-.5-.19,0-.36,0-.52-.12.02-.17-.02-.34-.06-.5-.16-.67.07-1.21.58-1.64.16-.14.35-.25.54-.36.06-.04.14-.08.21.03-.19.12-.39.21-.56.34-.11.09-.21.17-.24.32h0c.18-.04.3-.16.43-.27.24-.19.52-.29.82-.29.66,0,1.25.16,1.75.63.4.38.68.82.79,1.36.11.56.02,1.09-.36,1.54-.05.06-.05.12,0,.18h.02s0,0,0,0c0,.13-.06.21-.18.26-.44.19-1,.13-1.3-.27-.08-.11-.17-.21-.25-.32-.05-.07-.11-.12-.2-.08.17.29.4.54.64.75.21.18.5.26.81.18.29-.07.56-.18.76-.41.14.1.04.23.12.35.07-.17.1-.33.13-.49.05-.3.14-.57.37-.79h0s-.01,0-.01,0c.05.13.05.25.03.39-.03.15-.08.3-.04.44.09.01.11-.05.16-.07,0-.1-.02-.2.04-.32.03.13.02.23-.05.31,0,.28-.03.57-.11.84-.07.27-.14.3-.44.26h0c0,.05,0,.11.07.16.26.09.44-.06.64-.26.1.16.15.32.2.48.05.19.13.36.21.54.3.75.77,1.4,1.31,1.99.36.39.64.82.83,1.31.06.16.15.3.26.43-.19-.56-.3-1.14-.76-1.58-.39-.37-.72-.8-1.02-1.24-.08-.12-.16-.25-.2-.4-.06-.2-.11-.4-.2-.58-.19-.39-.18-.82-.35-1.22-.02-.04-.02-.09-.01-.14.05-.7.13-1.39.52-1.99.17-.26.38-.48.69-.58.38-.12.69.05.75.43-.03.05-.08.03-.12.03h0c0,.11,0,.22-.01.34-.01.11-.05.2-.17.23-.13.03-.23-.02-.28-.14-.05-.11-.1-.23-.2-.32-.44.25-.64.75-.63,1.23.02.71.31,1.32.6,1.94.08.17.1.35.17.52.03.09.13.01.18.07.06.11.07.24.08.36.04.42.27.72.59.96.3.22.47.2.75-.05.1,0,.2.03.3.1-.12.3-.07.62-.07.93,0,.3-.03.6.08.94.19-.23.07-.45.15-.64.11.5.04.76-.27,1.04-.1.07-.23-.04-.33.03.08.16.24.22.43.17.19-.05.27-.25.46-.31.13.15.12.43.39.48-.16-.86-.11-1.72-.09-2.6.15-.1.15-.37.44-.4-.06.76.02,1.51-.05,2.26-.03.32-.01.43.11.68.17-.04.09-.25.22-.32.13.26.09.35-.24.52.23.04.41-.03.51-.2.07-.12.12-.24.18-.37h0c.14.18.2.45.48.48h0c-.25-.33-.3-.72-.28-1.12.01-.28-.04-.56,0-.85.02-.15.06-.26.22-.3.02-.02.05-.05.07-.07.01-.08.05-.13.14-.14.02,0,.02-.05.05-.02-.02,0-.04,0-.05.01-.02.07-.08.11-.14.14-.02.02-.05.05-.07.07,0,.05,0,.11.06.16.38-.29.8-.04,1.22-.1-.02.12-.03.2-.04.29h0c.13.05.26.02.4.03-.27.19-.61.21-.94.4.3.05.5-.12.74-.15-.06.15-.23.14-.32.32-.02.05.13.05.13.12,0,.31-.44.27-.48.62.29-.26.63-.36.82-.67h0c-.06-.01-.13,0-.15-.08.02-.09.09-.06.15-.06h0c.03-.09.11-.14.18-.08.1.08.2,0,.29.01h0c-.03-.07-.04-.13,0-.22.22-.1.5-.11.71-.31.05-.05-.01-.15.04-.22.13-.11.35-.16.42-.33.16-.38.51-.46.82-.64.12.13.21.22.29.31.03.11,0,.18-.05.24-.29.33-.59.63-1.01.78-.18.06-.37.11-.52.24h0ZM3.55,17.15h0s0,0,0,0Zm6.05,2.54h0s0,0,0,0Zm1.31,3.98h0s-.05-.05-.07-.07h-.01s.01,0,.01,0c.02.02.05.05.07.07Zm8.59-1.1h0s0,0,0,0Zm-.75,0c.02-.05.03-.1.05-.15.06-.35.29-.63.4-.96-.05-.02-.08-.04-.11-.05-.02.08-.06.16-.12.22-.03.04-.06.08-.09.12-.02.05-.01.12-.1.13.01-.07.06-.1.1-.13,0-.06.01-.11.05-.15.03-.08.07-.15.15-.2,0-.11.05-.2.14-.27h0c.1-.19.19-.38.29-.57.06-.12.13-.24.09-.36-.06-.07-.14.03-.17-.08.08-.16.07-.34.06-.52-.05-.52-.27-.97-.59-1.37-.08-.1-.21-.18-.32-.25-.12-.08-.24-.06-.34.04-.1.1-.19.19-.3.28-.1.09-.22.12-.36,0,.02-.26-.09-.54.09-.84.28.09.57.17.87.18.03,0,.07.02.1.04.33.19.6.44.8.78.15.25.19.55.37.76.15.17.19.35.22.56.04.23.01.46.03.68.05.59-.08,1.16-.29,1.69-.3.18-.52.45-.83.58-.03,0-.04,0-.03-.03-.03-.14.17-.26.05-.44-.06.08-.11.14-.15.2-.03.04-.06.08-.09.12h0Zm0-5.43h-.01s0,0,0,0c.03,0,.06,0,.07.03-.04.02-.05-.01-.06-.03Zm.06.34h0s-.09-.05-.14-.07h-.01s0,0,0,0c.05.02.09.04.14.07Zm-.48,5.84s.09-.04.13,0c.02,0,.04.01.04.02,0,0-.02-.01-.04-.02-.05,0-.09,0-.14,0-.02,0-.03.02-.04.02,0,0,.02,0,.04-.02Zm-6.47.48s.07-.02.05.04c-.01-.01-.03-.03-.04-.04-.04,0-.08,0-.11-.03.05-.03.07.01.1.04Zm12.31-5.84s-.03-.01-.04-.02c0,0,.02.01.04.02.04.02.09,0,.09.07-.06.01-.07-.04-.09-.07Zm-.56-.07h0s-.1.02-.12-.05c.06-.01.09.01.12.05Zm-4.4-.41h.01s0,0,0,0c-.05-.02-.13,0-.13-.1.07,0,.1.05.13.1Zm-10.86,1.92c.05-.03.1-.08.17-.04-.05.05-.12.02-.18.04h0Zm12.81-1.22c-.04.1-.11.18-.25.23.07-.13.12-.21.21-.26.04-.01.05,0,.04.04Zm-2.91-.91c.06,0,.13-.03.18.04-.08.03-.13,0-.18-.05-.16.03-.32.01-.48,0v.02s0-.01,0-.01c.06-.11.15-.18.27-.21h0s-.01,0-.01,0c.03.11.15.12.21.21Zm5.71.82s-.08,0-.09-.06c.05-.01.06.04.09.06.07.05.16.08.21.19-.17.1-.13.29-.17.5-.05-.27-.04-.48-.03-.7Zm-2.54-.13c.33-.44.8-.32,1.24-.31-.43.03-.85.1-1.24.31h0Zm4-1.94c-.45-.19-.81-.18-1.1.58-.07-.33.03-.54.3-.7.27-.15.56-.11.79.12Zm-19.8.56c.22,0,.43.02.59.2-.2-.07-.39-.13-.59-.2Zm-.74-.02c.14-.03.27-.16.44-.03-.16.12-.3.05-.44.03Zm18.05,1.16s.01-.04.02-.06c.07-.01.13-.01.16.07-.06.05-.12.03-.18-.01Zm-4.61-.69c.1-.06.17-.1.23.02-.08.05-.14.06-.23-.02Zm5.88,1.52c.03.09.07.18-.02.26-.02-.09-.04-.17.02-.26Zm.06-1.63s0-.04.03-.04c0,0,.02,0,.02.01,0,.02,0,.04,0,.05-.02,0-.03-.02-.04-.03Zm-2.75.66s-.02,0-.03,0c0-.02.02-.03.03-.05,0,0,.02,0,.03,0,0,.02-.02.03-.03.05Zm-11.3,4.79s.02-.01.02,0c0,0,.02.02.02.02,0,.03-.02.04-.04.02,0,0,0-.02,0-.03Zm9.4-4.43s.03-.01.04.01c0,0-.02.01-.02,0,0,0,0-.02-.01-.02Zm-16.5-.04s-.02,0-.03,0c0,0,0-.02.01-.03,0,0,.02,0,.03,0v.03Zm12.84,7.26s-.02-.01-.02-.02c0,0,0-.02.01-.03.03,0,.04,0,.04.03,0,0-.02,0-.03.01Zm-6.46-5.27h-.02s0-.02,0-.02v.02Z"/>
  <path class="cls-1" d="m12.28,6.37c.05.12.15.11.26.12.25.02.5.05.78.08-.05.12-.17.05-.21.16.13.11.33.01.46.13.03.09-.08.05-.1.14.11.14.32.03.45.15.01.11-.17.04-.13.17q.12.12.32.17s-.04.05-.06.08c-.01.01-.01.04-.02.07.1.08.21.07.34-.01.21-1.01.3-2.06.51-3.16.13.31.13.33.06.65,0,.08.09.09.11.17-.03.05-.07.11-.1.16,0,.1.11.08.13.16.03.12-.17.03-.14.13-.03.12.08.15.11.22-.02.07-.13.1-.1.26,0,.05.12,0,.18.03-.03.12-.19.06-.19.18,0,.09.08.1.15.14-.03.07-.14.07-.15.15-.02.12.12.12.17.2-.04.07-.17.03-.19.13,0,.14.15.06.21.14-.04.1-.21,0-.24.14.05.18.24.07.35.14-.1.08-.28,0-.33.17.27.11.72.08.87-.06-.06-.15-.22.01-.31-.1.07-.08.16-.05.24-.04.15.01.28-.02.36-.15.16-.24.39-.42.58-.63.06-.07.1-.15.15-.24.28-.05.56.08.84.04.21.24.51.41.44.84-.09-.13-.15-.23-.22-.32-.29-.39-.81-.41-1.11-.02-.15.19-.27.4-.39.61-.36.61-.99.92-1.68.81-.09-.01-.18-.02-.27-.04-.28-.07-.55-.15-.74-.4-.15-.19-.31-.37-.48-.54-.32-.32-.71-.42-1.15-.33,0,.11.06.1.09.09.52-.08.88.17,1.17.56.15.2.32.38.47.59.12.16.3.24.46.31.04.08,0,.13-.04.17-.5.52-.39,1.15.26,1.45-.25.07-.45.23-.62.4-.81.77-1.63,1.53-2.51,2.23-.09.07-.16.16-.26.26-.18-.28-.38-.51-.77-.44-.32.05-.59.16-.78.5-.25-.51-.82-.59-1.14-.98-.27-.32-.38-.68-.38-1.07.15-.07.26-.02.37-.01.41.02.62-.23.53-.63-.08-.36-.17-.46-.56-.62.08.14.2.18.29.26.3.26.24.74-.13.87-.22.07-.39-.06-.57-.15-.05-.03-.07-.1-.15-.11-.15.04-.17.19-.19.32-.06.56.03,1.07.47,1.47.23.22.45.46.73.62.13.08.13.24.25.31-.06.07-.19.04-.21.16.02.13.2.03.23.16-.05.13-.2.03-.26.13,0,.13.18.03.19.15-.05.1-.21.04-.24.16,0,.12.09.14.18.17.08-.07.17-.13.3-.07-.09.13-.2.07-.3.07-.39.21-.67.52-.93.86.07.11.15.1.19.04.21-.29.54-.41.83-.59.22-.13.42-.27.47-.62.28.3.52.56.92.5.37-.06.61-.3.84-.61.52.45,1.04.87,1.54,1.32.5.44,1.05.83,1.56,1.32-.31.1-.57.19-.69.53.25-.09.38-.3.61-.33.23-.03.45-.03.74.12-.49,0-.98-.15-1.15.45.14.05.25.02.37-.02.24-.09.46-.1.68.12-.14.14-.16.33-.25.5-.55.15-.76-.21-.96-.65-.05.52.05.66.77.92-.02.03-.04.07-.07.07-.43.07-.72.34-.94.68-.14.21-.31.39-.46.59-.38.5-.9.55-1.44.3-.07-.03-.13-.1-.22-.06.04.29.36.68.7.85.37.19.76.23,1.16.11.38-.12.69-.32.95-.65.12.33.16.63.17.94.03.71,0,1.41.13,2.11.01.06,0,.14.06.19.1.01.14-.07.16-.14.19-.53.43-1.03.56-1.58.07-.3.17-.59.3-.85.17-.01.26.09.37.15.71.43,1.4.21,1.85-.37.17-.22.23-.46.15-.76-.17.06-.33.12-.49.17-.52.16-1.02-.06-1.27-.54-.09-.17-.18-.34-.21-.54-.04-.26-.22-.42-.45-.53-.1-.05-.21-.08-.36-.14.41-.17.62-.44.57-.87-.05-.41-.28-.68-.68-.82.06-.18.19-.27.3-.36.49-.41.94-.87,1.42-1.29.2-.17.42-.31.68-.37.36-.09.72-.15,1.08-.19.45-.04.89.02,1.31.19.1.04.08.19.19.22.04-.02.04-.05.04-.09-.1-.48-.04-.96-.04-1.44,0-.13.02-.25.05-.37.06-.23.14-.46.33-.62.05-.04.08-.1.13-.18-.22,0-.31.13-.38.25-.17.29-.44.39-.75.41-.48.04-.96.02-1.44-.06-.17-.03-.34-.05-.52-.07-.83-.79-1.57-1.67-2.49-2.41.19,0,.36,0,.53,0,.32-.02.47-.15.55-.46.1-.38.02-.7-.29-.96-.04-.04-.09-.07-.12-.1-.01-.07.02-.1.07-.12.48-.21.79-.57.98-1.05.12-.31.31-.5.69-.7.43.12.59.47.68.89.25-.04.32-.22.37-.42.11-.5-.09-.99-.52-1.29-.72-.51-1.45-.15-1.83.32-.13.15-.22.34-.42.47-.16-.96-.33-1.89-.54-2.81,0-.03-.05-.05-.07-.07-.15.04-.15.17-.17.27-.13.65-.26,1.3-.34,1.96-.02.2-.05.4-.13.58-.12.04-.15-.03-.19-.09-.23-.3-.55-.48-.89-.62-.38-.16-.74-.08-1.07.15-.29.21-.51.49-.6.85-.03.12-.04.24.1.39.03-.45.29-.72.56-.98.06-.11.17-.12.28-.14.02-.05.04-.1.11-.06,0,.08-.07.05-.12.06.04.05.13.04.14.14-.14.02-.28.03-.42,0Zm-.2,6.66s.05-.05.07-.07c.02-.02.05-.05.07-.07.02-.02.05-.05.07-.07l.07-.07s.04-.05.07-.07c.02-.02.04-.05.07-.07.02-.02.05-.04.07-.07.02-.02.05-.05.07-.07.02-.02.05-.05.07-.07h.01s-.02,0-.02,0c-.02.02-.05.05-.07.07-.02.02-.05.05-.07.07-.02.02-.04.05-.07.07-.02.02-.05.04-.07.07-.02.02-.05.04-.07.07-.02.02-.05.05-.07.07-.02.02-.05.05-.07.07-.02.02-.05.05-.07.07-.02.02-.05.05-.07.07-.02.02-.05.05-.07.07-.02,0-.03.02-.03.02,0,0,.02,0,.04-.01.02-.02.05-.05.07-.07Zm1.38-1.3s.05-.05.07-.07c.02-.02.05-.05.07-.07h0s-.05.04-.07.07c-.02.02-.05.05-.07.07h0Zm.27,3.64s.04.05.07.07c.16.02.25.14.37.24.14.11.26.25.43.29.15-.04.22-.15.32-.23.22-.19.39-.44.65-.6.02-.02.05-.04.07-.07.03-.02.05-.04.08-.06.03-.02.06-.04.08-.06.02-.02.05-.05.07-.07.02-.02.05-.05.07-.07.02-.02.05-.05.07-.07.02-.02.05-.05.07-.07.04-.05.07-.11.11-.16.02-.02.05-.05.07-.07.05-.04.11-.08.16-.12.02-.03.04-.05.06-.08.02-.02.04-.05.06-.07.06-.08.12-.15.21-.2.03-.02.05-.04.08-.06.03-.06.07-.11.14-.14.02-.02.05-.05.07-.07.04-.02.09-.05.13-.07.01-.08.03-.17.04-.25-.02-.03-.03-.06-.05-.09-.02-.03-.04-.05-.06-.08-.11-.07-.22-.15-.29-.33.18.09.26.19.29.33.03.02.05.04.08.06l.09.05c.11.12.25.18.41.15.06.13-.02.19-.08.26-.15.14-.29.29-.44.43-.58.57-1.13,1.17-1.74,1.7-.28.24-.52.55-.87.59-.55-.43-1.06-.84-1.56-1.27-.51-.43-1.03-.85-1.47-1.36.3-.19.49-.44.71-.65.54-.51,1.08-1.01,1.61-1.54.23-.23.49-.44.76-.64.25.16.41.41.61.6.16.12.31.25.4.43.02.02.05.04.07.06.02.03.04.05.06.08.02.02.04.05.07.07.36.15.58.47.84.74.15.13.31.26.38.46-.16-.13-.33-.24-.4-.44-.33-.2-.57-.48-.81-.77-.02-.02-.05-.04-.07-.07-.03-.02-.05-.04-.08-.06l-.07-.07c-.14-.13-.29-.26-.43-.39-.2-.12-.31-.37-.56-.42-.12.08-2.56,2.38-2.62,2.47.1.1.22.19.32.3.11.12.3.18.35.37.02.02.04.05.06.07.23.05.35.24.48.41.22.06.34.26.51.39.02.03.03.06.05.09Zm1.23-6.66c-.07.08-.14.04-.21,0-.09.17-.2.33-.07.52.28.02.1-.24.21-.31.12.07.01.23.14.28.09-.03.03-.15.12-.18.21.4-.07.66-.29.93-.14,0-.28,0-.43,0-.14,0-.3-.04-.33-.2-.03-.18-.19-.39.03-.56h0c.08-.35.23-.46.62-.48.07-.07.14-.03.21,0h0Zm-1.78-2.4s-.05.01-.05-.03c.01.01.03.02.04.03.06,0,.11.02.13.1-.08-.01-.11-.04-.13-.1Zm-1.52,7.07c-.02.12-.09.19-.2.2h0c.04-.09.11-.16.2-.2h0Zm-.89.76c.01-.13.03-.26.16-.41.01.21-.02.33-.16.42l-.06.08c-.11.13-.26.17-.4.17-.09-.06,0-.16-.09-.2-.1-.02-.12.14-.23.11-.44-.28-.51-.8-.12-1.13-.05.22-.22.41-.03.61.19-.04.19-.24.31-.33.15-.06.3-.06.45.01,0,.12.03.24-.07.32-.15.12-.11.28-.14.43.12.06.2-.12.3-.02.03-.02.05-.04.08-.06Zm6.44,6.54s0-.05.04-.04c.16-.07.21-.23.24-.37.07,0,.1.03.1.06-.08.46-.88.91-1.34.61-.37-.24-.66-.56-1-.85.14-.09.08-.2.03-.3-.01-.03,0-.07.03-.1.1-.03.19.03.28.07.26.49.5.9,1.21.83.08.05.15.11.22.15.08.04.16.02.2-.07Zm-5.27-.29h0c.22-.1.46-.12.66-.16.1-.06.05-.16.15-.2.21.01.44-.04.68-.13-.11-.08-.26-.01-.38-.11.25-.05.46-.09.72-.13-.18-.15-.37-.04-.58-.16.32-.11.61-.06.94-.13-.21-.11-.4-.04-.56-.19.55-.07,1.05,0,1.58.07-.17.14-.39-.03-.55.13.16.13.4-.03.54.18-.18.07-.37-.04-.52.09.12.17.32.06.48.14-.16.12-.38-.01-.49.17.08.11.19.07.26.12.01,0,.02.04.02.06-.06.09-.21.02-.23.15.03.12.17.07.21.16-.04.09-.18.06-.2.17.04.11.17.1.26.16-.07.03-.13.05-.21.09.09.12.02.22-.03.3.04.06.11.05.11.11-.03.06-.13.06-.11.18,0,.06.16.02.15.13-.04.08-.19.04-.19.17,0,.07.08.07.11.13-.03.03-.07.05-.09.08,0,.1.15.04.12.15-.07.07-.13.07-.2,0-.16-.75-.07-1.55-.37-2.29-.15.06-.23.13-.3.22-.23.29-.55.44-.88.57-.42.18-.78.09-1.1-.21Zm.43-6.84c.75-.7,1.42-1.4,2.16-2.06.66.68,1.44,1.2,2.01,1.93-.63.65-1.23,1.27-1.81,1.87-.15,0-.25-.03-.32-.1-.66-.53-1.31-1.06-2.03-1.64Zm5.1.77c.01-.12.07-.16.11-.21.18-.24.4-.37.73-.33.29.04.59.03.89,0,.19-.02.38,0,.59.01,0,.22.08.4,0,.62-.75-.37-1.52-.17-2.31-.08Zm.92-.93c.23.07.46.13.7.1.17-.02.34-.02.51-.02.07,0,.14.01.13.11-.26.11-1.13.13-1.65.03.15-.11.02-.25.04-.35.3,0,.58-.01.85,0,.26.02.52-.1.78,0-.45.1-.9.1-1.36.12Zm-4.61,5.56c.18-.08.36-.08.54.03-.18.03-.36.08-.54-.03Zm1.41.05c-.25,0-.42.05-.58-.06.17-.03.34-.03.58.06Zm-1-.4c0,.11-.04.13-.13.08.01-.06.04-.1.13-.08Zm3.74-12.11c0-.07.03-.09.1-.09.02.09,0,.12-.1.09Zm-4.94,5.69c-.02-.07,0-.09.08-.09,0,.05-.02.08-.08.09Zm1.71,10.18s-.08.07-.14.01c-.01-.01-.01-.05,0-.06.05-.06.09-.02.14.04Zm-1.14-15.7s.03-.02.04-.03c0,0,.02.02.02.02-.01.01-.03.02-.04.03,0,0-.01-.02-.02-.02Zm1.86,2.25s-.03-.02-.04-.04c0,0,.02-.03.03-.04.01.01.03.03.04.04,0,.01-.02.03-.03.04Zm-.22-.11s0,.02-.01.02c-.01-.01-.03-.02-.04-.03,0,0,0-.01.01-.02.01.01.03.02.04.03Zm-.06,1.17s-.04-.02-.05-.03c-.01-.04.01-.06.05-.06.04,0,.06.02.05.06,0,.01-.03.02-.05.03Zm-.27,7.94s.02-.02.02-.02c.03,0,.04.02.02.04,0,0-.02,0-.03,0,0,0,0-.02-.01-.03Zm1.61-5.33s0,.03-.03.01c0,0,0-.01,0-.02,0,0,.02,0,.02.01Zm-1.78,5.58s.02,0,.02,0c.03,0,.03.02,0,.03,0,0-.02,0-.02,0,0,0,0-.01,0-.02Zm1.3,1.93s.03-.01.05-.01c0,0,0,.02.01.02-.02,0-.03.01-.05.01,0,0,0-.02-.01-.02Zm.65-7.33s-.01.03-.03.01c0,0,0-.02,0-.02,0,0,.02,0,.02,0Zm.9-6.51s-.02,0-.02-.01c0-.01.02-.03.02-.04,0,0,.02,0,.02.01,0,.01-.02.03-.02.04Z"/>
  <path class="cls-1" d="m10.58,2.55c-.07.19-.14.38-.2.57q.32-.53.87-.93c.06-.09-.09-.13-.03-.24.26-.07.49-.23.72-.41.17-.14.34-.08.35.11.01.46.01.91,0,1.37,0,.15-.05.32-.2.45-.3-.07-.62-.06-.93.02-.28.08-.45.24-.52.53-.07.33-.17.66-.27.99-.18.57-.49,1.05-.83,1.53-.21.3-.29.62-.27.97.03.46.4.85.87.92.09-.13,0-.28.06-.41-.08-.09-.14.04-.2-.01,0-.22.05-.3.25-.36.17-.05.28,0,.37.16.07.11.09.23.07.36-.02.08-.06.17.03.28.19-.23.13-.45.05-.67-.07-.2-.22-.31-.44-.32-.18-.01-.32.02-.38.21-.05.16-.15.24-.34.26-.19-.54-.1-1.04.21-1.47.41-.56.69-1.15.8-1.83.03-.18.1-.35.14-.53.11-.44.44-.63.89-.52.13.03.26.07.4.09.25.03.42-.08.53-.3.11-.2.14-.42.12-.66.02.28.18.46.36.64.29.28.71.21.87-.16.04-.08.02-.19.11-.24.1-.01.14.07.18.13.17.24.39.36.71.32.25-.03.49-.03.71-.19.11-.08.27-.11.43-.1.07,0,.14.01.21,0,.54-.09.98.16,1.4.44.22.14.41.33.68.32.06.11,0,.18-.03.25-.11.33-.09.65.09.96.21.36.4.72.62,1.07.17.27.26.56.36.85.07.19.05.39,0,.58-.14.51-.42.94-.78,1.34-.12-.1-.05-.21-.07-.3-.04-.27-.22-.4-.49-.36-.31.05-.51.25-.55.56-.02.15-.03.3.01.44.09.29.26.46.57.52.27.05.52.03.77-.09.42-.2.8-.45,1.04-.86.03-.05.05-.1.12-.1.05.01.06.06.08.1.47,1.02,1.34,1.48,2.45,1.3.62-.1,1.19-.31,1.73-.64.19-.11.27-.25.24-.48-.07-.59,0-1.16.25-1.71.07-.15.06-.15.05-.36-.07-.1-.19-.13-.29-.17-.77-.3-1.22-.89-1.52-1.63-.03-.07-.05-.15-.08-.22-.11-.23-.25-.31-.5-.24-.56.15-1.09.34-1.49.79-.13.15-.2.36-.39.49-.09-.11-.06-.23-.06-.33,0-.3-.08-.59-.15-.88-.12-.56-.48-.98-.89-1.36-.1-.09-.21-.13-.34-.13-.1,0-.21.01-.31-.1-.01-.21-.12-.43-.25-.63-.12-.17-.26-.31-.47-.39-.63-.23-1.12-.65-1.57-1.13-.34-.37-.69-.73-1.17-.93-.38-.16-.7-.16-1.01.14-.08.08-.14.17-.18.29-.03.12-.07.23-.11.35-.16-.07-.15-.2-.19-.3-.11-.26-.35-.44-.59-.44-.24,0-.52.19-.61.43-.03.07-.03.16-.14.19-.15-.07-.09-.27-.21-.37-.33-.09-.61.05-.8.4-.07.13-.12.27-.18.41-.09.22-.22.38-.44.51-.62.36-1.04.88-1.24,1.58-.12.42-.32.8-.6,1.14-.25.31-.35.69-.46,1.06-.04.15.11.28.07.43-.12-.12-.18-.26-.24-.4-.12-.31-.33-.37-.64-.2-.28.15-.33.51-.1.81.03-.22-.03-.47.26-.55.17.01.27.13.33.29.24.61.47,1.22.24,1.89,0,.02.01.04.02.06.41-.36.47-.85.17-1.59,0-.11.1,0,.15-.08.04-.52.12-1.07.46-1.55.02-.05.05-.09.07-.14h0s-.01,0-.01,0l-.07.14c.02.14-.04.27-.08.4-.1.31-.21.62-.18.97.04-.14.1-.27.13-.41.06-.27.15-.53.27-.77.18-.35.27-.72.34-1.11.06-.33.16-.64.31-.94.04-.08.09-.16.17-.2h0s-.01,0-.01,0c-.11.35-.25.69-.33,1.04-.12.57-.31,1.12-.53,1.65-.03.08-.08.16-.05.26.11-.02.09-.12.12-.18.31-.6.48-1.25.63-1.9.08-.33.24-.61.41-.89.04-.06.08-.11.16-.12.02-.03.03-.08.1-.04-.04.02-.07.03-.1.04-.01.07-.07.11-.12.16Zm1.01-.98s-.05.05-.07.07h0s.01,0,.01,0c.02-.02.05-.05.07-.07.01-.03.03-.06.04-.09.02-.02.04-.05.07-.07q.28-.22.56-.12c-.14.14-.36.07-.51.18-.02.02-.05.05-.07.07l-.09.04Zm10.79,3.5h0s0,0,0,0Zm-6.81-3.91s.09.05.14.07c.05.05.16.05.12.18-.45-.06-.89-.26-1.35-.12.44.17.95.14,1.37.44-.12.06-.21.05-.3.02-.31-.13-.65-.13-.98-.16-.06,0-.14-.04-.17.08.47.15.98.13,1.42.35-.54.11-1.03-.13-1.57-.14-.01-.47.02-.87.44-1.15.27.12.6.1.8.36.02.02.04.05.07.07Zm8.19,5.76h0c.05.01.1.03.14.07.06,0,.1.02.14.07.2.02.41,0,.6.14-.27.44-.32.91-.25,1.4.02.12,0,.25,0,.38,0,.26-.12.43-.35.54-.14.07-.29.13-.44.2-.44.24-.93.34-1.42.34-.29,0-.59-.04-.87-.17-.14-.06-.26-.15-.31-.3-.31-.06-.43-.32-.56-.55-.2-.37-.25-.76-.17-1.18.04.02.06.03.06.03-.03.67.18,1.25.67,1.71.26.07.48.28.78.26-.26-.15-.52-.31-.76-.5-.41-.31-.54-.77-.57-1.24-.05-.6.2-1.13.6-1.59.24-.28.56-.47.84-.7.09-.07.2-.14.36-.13-.12.18-.28.26-.43.35-.44.27-.77.64-1.01,1.09-.24.45-.32.95-.13,1.43.4.97,1.09,1.18,1.98,1.1.44-.04.83-.25,1.21-.46.1-.05.2-.12.24-.24h0c-.14-.01-.19-.11-.2-.23,0-.2-.03-.41.02-.61.05-.21.1-.42.15-.62-.07-.16-.22-.23-.35-.26-.29-.08-.51-.25-.67-.49-.2-.29-.42-.57-.39-.95-.12-.09-.14-.21-.14-.34-.04-.04-.13-.02-.11-.11.08,0,.09.07.11.12.1.09.14.21.14.34.08.05.1.15.14.23.18.35.38.7.71.95.24.18.63.31.86.27-.08-.13-.25-.11-.34-.22-.05,0-.11-.02-.14-.07-.05-.02-.09-.05-.14-.07Zm-.34-.28s-.05-.05-.07-.07c-.08-.04-.13-.11-.14-.21h-.02s.01,0,.01,0c.08.05.12.11.14.2.02.02.05.05.07.07.02.02.07.03.05.1-.02-.05-.03-.08-.04-.11Zm-3.71-2.4h-.01s0,0,0,0c.03.03.07.06.02.14,0-.07-.01-.1-.02-.14Zm-.41,0s-.05-.04-.07-.07c-.06-.02-.14,0-.12-.1.1-.04.11.04.12.1.02.02.04.05.07.07.07.02.15.02.16.13-.11.01-.11-.09-.16-.13Zm-.76-.96c0,.11,0,.23-.14.27.05-.09.1-.18.15-.27h0Zm.99,1.69c.12.14.22.29.24.55-.17-.18-.25-.33-.3-.51-.18-.19-.36-.37-.58-.59.19.01.31.06.39.18.08.12.16.24.25.36Zm-.5,4.21h-.02s.01,0,.01,0c.15-.05.3-.1.5-.16-.33.45-.74.64-1.22.73-.06.01-.13-.02-.2-.04-.53-.17-.56-.78-.34-1.1.1-.14.22-.21.38-.17.16.04.22.16.25.33-.15-.06-.18-.25-.43-.21.34.18.31.47.37.71.11.08.24,0,.34.1-.19.17-.43.07-.68.12.42.19.73.05,1.03-.16.06-.04.03-.1,0-.16Zm-3.72-5.97c-.11.07-.23.09-.35.12-.8-.13-.86-.82-.65-1.32.6.08,1.21.18,1.8.34-.28-.02-.56.02-.84,0-.28-.02-.55-.13-.84-.05.52.2,1.09.18,1.6.41-.27-.02-.54-.05-.81-.03-.27.02-.53-.1-.8-.03.48.13.96.28,1.46.34-.09.04-.19.08-.27.11-.35-.1-.7-.08-1.05-.1.25.07.49.16.74.22.02,0,.03-.02.03-.02,0,0-.02,0-.04.02Zm8.45,5.46c-.54.28-1.03.54-1.64.51-.99-.06-1.42-1.09-1.19-1.77.2-.61.67-.99,1.19-1.31.1-.06.23-.11.38-.07.16.28.26.61.48.88.23.29.53.44.88.59-.19.38-.21.75-.1,1.16Zm-4.95-4.08c.22.21.43.44.57.73.2.39.34.8.46,1.21.13.44.07.86-.11,1.26-.14.31-.31.61-.47.91-.06.11-.15.18-.3.22,0-.22.15-.33.24-.47.5-.72.49-1.45.08-2.19-.19-.35-.41-.69-.61-1.03-.1-.16-.14-.33-.13-.52.07-.06.13-.14.26-.14Zm-5.68-1.59s.07,0,.1,0c.04-.51.07-1.02.11-1.53.13.56-.03,1.13.04,1.67.15.03.11-.16.23-.13q-.02.29-.3.31c-.09-.03-.07-.14-.15-.18-.2-.1-.25-.29-.26-.49-.01-.47-.01-.94,0-1.4,0-.16.06-.33.27-.43-.04.39-.06.74-.05,1.1,0,.36,0,.72.01,1.08Zm5.16.32c-.19.19-.32.22-.51.09-.2-.13-.39-.26-.55-.44.01-.08.04-.14.17-.16.25.2.7.08.89.51ZM12.07.9c-.09.13-.23.14-.4.2.06-.28.26-.17.4-.2Zm.87-.14c.04-.12.1-.16.21-.15-.02.11-.08.14-.21.15Zm.41.16s-.04-.1,0-.14c.04.05.03.1,0,.14Zm.19,1.06s.01-.04.03-.03c0,0,0,.02,0,.03,0,.03-.01.04-.03.03,0,0,0-.02,0-.03Zm.44.56s-.04-.02-.03-.05c0,0,.01-.02.02-.03.02,0,.05,0,.05.03,0,.02-.02.03-.03.05Zm5.28,1.33s-.04-.03-.04-.05c0-.02.03-.03.05-.01,0,0,.02.02.02.03,0,.03,0,.04-.03.04Zm3.8,2.3s-.02-.04-.02-.05c.02,0,.04,0,.05,0,0,0,.01.02.01.03,0,.03-.02.04-.04.02Zm-.4-.96s0-.04.03-.04c0,0,.02,0,.03.02.02.02.02.04,0,.05-.01,0-.03-.02-.05-.03Zm-2.32,2.38v-.03s.02.02.02.02h-.02Zm-.39-2.29s0,.02,0,.03c0,0-.02,0-.02,0,0-.01,0-.02,0-.03,0,0,.02,0,.02,0Zm-.49-1.33s.04-.01.04.02c0,0-.02,0-.03,0,0,0,0-.02-.01-.03Z"/>
  <path class="cls-1" d="m2.11,10.49c.31,0,.62.03.92.07.51.07.9.34,1.23.69.31.33.55.73.79,1.12.13.2.11.46.22.68.05.1.07.22.12.32.26.47.11.9-.16,1.28-.25.36-.36.78-.59,1.14.25-.14.39-.37.52-.6.18-.33.41-.63.57-.97.07-.14.2-.17.35-.16.24.03.48.04.72.07.18.03.36.05.55.04.22,0,.41.06.5.31-.2.19-.43.38-.57.74.45-.23.6-.67.94-.89.01-.04,0-.06-.03-.09-.11-.14-.32,0-.44-.2-.09-.16-.32-.09-.48-.13-.14-.03-.31-.02-.36-.26.64.14,1.18-.09,1.74-.36-.12-.16-.28-.12-.42-.13-.02,0-.02.06-.06.02.02,0,.04,0,.06-.01.04-.04.09-.07.15-.13-.09-.09-.17-.18-.26-.25-.24-.18-.43-.42-.57-.68-.26-.47-.33-1-.16-1.52.14-.41.44-.53.87-.4.04.01.08.06.13,0-.07-.14-.29-.15-.29-.33-.49.09-.91.57-.94,1.1-.04.72.13,1.36.75,1.81.02.01.02.04.05.1-.68.27-1.39.27-2.09.36-.12-.2-.11-.42-.19-.61-.32-.71-.65-1.41-1.24-1.94-.03-.03-.05-.08-.07-.12h0c-.07-.05-.12-.12-.14-.21h0s-.05-.04-.07-.07h0s-.05-.04-.07-.07h0c-.05,0-.11-.02-.14-.07h0s-.05-.04-.07-.07h0c-.41-.14-.81-.29-1.23-.41-.95-.28-1.9.34-2.15.98-.03.06-.04.13-.05.2h0c.07-.11.16-.21.28-.27.02-.12.09-.19.21-.21.02-.02.05-.05.07-.07.02-.03,0-.09.09-.08-.04.03-.07.05-.09.07-.02.02-.05.05-.07.07-.06.08-.12.16-.21.21-.07.22-.2.41-.24.64-.03.16-.04.31.07.49.12-.19.12-.39.16-.57.06-.25.14-.49.43-.55.02-.02.05-.05.07-.07.02-.02.05-.05.07-.07.03-.04.06-.1.14-.1-.04.07-.09.08-.14.09-.02.02-.05.05-.07.07-.02.02-.05.05-.07.07-.1.25-.21.49-.31.74.01,0,.03.02.04.02.11-.17.2-.36.32-.52.13-.17.32-.27.53-.31.07.08-.05.1-.01.18.15-.01.3-.03.39-.18-.04,0-.08-.01-.12-.02.04-.05.08-.04.12-.04h0s-.01,0-.01,0c0,.02,0,.05,0,.07Zm.76-.14s-.04-.01-.04-.01c0,0,.02,0,.03.02.06,0,.13-.02.17.04-.07.05-.12,0-.17-.04Zm-1.61-.3c.05-.08.12-.1.28-.08-.11.06-.17.1-.23.13-.05.02-.06,0-.05-.05Z"/>
  <path class="cls-1" d="m2.38,16.74c-.07.09-.2.03-.26.12,0,.05.04.07.07.06.63,0,1.2-.2,1.66-.62.2-.18.38-.41.52-.66.13-.23.35-.41.49-.65.14-.25.28-.49.39-.76.18-.48.04-.93-.16-1.35-.24-.52-.5-1.02-.88-1.46-.68-.78-1.78-1.03-2.75-.38-.48.32-.62.86-.38,1.39.03.06.08.11.08.21-.37.2-.49.54-.5.96-.01.46.31.68.62.91-.05.13-.14.21-.26.26-.12.05-.17.18-.26.25-.07.22.09.41.07.61-.1.01-.1-.09-.17-.11-.08.06-.02.12,0,.17.07.17.21.3.2.5h0s.04.05.06.07h0c.1,0,.1.09.14.14h0s.05.04.07.06h0s.07.02.06.07h0s.05.05.07.08h0c.06,0,.11.01.14.07h0s.1.04.14.07h0c.28,0,.55,0,.83,0,.07-.05.15-.08.25-.04-.09.05-.17.02-.25.03Zm-.61-3.93c-.06-.13-.12-.27-.2-.4-.13-.22-.15-.46-.12-.7.06-.46.5-.83.98-.84.16,0,.32,0,.48,0,.1,0,.21-.02.3.04.32.18.65.33.88.64.19.25.39.5.54.79.14.28.25.56.37.85.1.27.14.51.03.79-.15.39-.35.74-.6,1.07-.52.71-1.18,1.17-2.07,1.27-.42.05-.86-.26-.93-.68-.07-.35.06-.65.27-.93.09-.11.17-.22.11-.36-.05-.08-.14-.08-.21-.12-.08-.05-.15-.1-.22-.17-.2-.2-.22-.42-.07-.65.07-.11.17-.22.26-.32.07-.08.15-.14.2-.29Zm1.44,3.75s.03-.05.06-.05c0,0,.01.02,0,.02-.02.03-.04.05-.07.02Z"/>
  <path class="cls-1" d="m4.37,10.56c.17-.03.32.06.46.12.54.23,1.07.15,1.57-.07.88-.38,1.49-1.04,1.81-1.95.02-.05.03-.11.05-.16.25-.55.17-1.1-.05-1.63-.14-.33-.44-.51-.73-.7-.32-.21-.67-.21-1.02-.17-.35.04-.55.3-.77.53-.09.09-.15.2-.22.3-.32.44-.74.66-1.28.64-.37,0-.73.04-.99.36-.36.42-.35,1.16.03,1.57.22.23.45.45.67.68h0s.05.05.07.07h0s.1.04.14.07h0s.05.05.07.07h0s.05.04.07.07h0c.08.05.13.11.14.21h0Zm1.15-2.7s.06-.03.09-.05c.05-.11.1-.21.21-.27-.04-.05-.09-.06-.14-.07-.02.02-.05.05-.07.07-.01.04,0,.08-.06.09-.01-.06.03-.06.07-.08.02-.02.05-.05.07-.07.03-.18.17-.29.31-.4.13-.1.23-.22.17-.38.6-.49,1.28-.29,1.65.27.19.29.21.65.37.95.02.04,0,.11-.01.17-.17.83-.57,1.51-1.23,2.04-.41.33-.89.53-1.42.51-.58-.03-1.09-.24-1.52-.63-.14-.13-.26-.29-.42-.4-.34-.24-.47-.56-.49-.96-.02-.49.15-.73.66-.81.06-.04.11-.07.18,0h-.19c-.05.1-.15.14-.22.21-.22.21-.29.51-.18.76.07-.13.03-.28.08-.41.1-.1.18-.23.31-.31.27-.16.54-.21.83-.04.06,0,.13-.02.19.04-.08.02-.13,0-.19-.05-.15.06-.33-.03-.53.12.54.07.98.03,1.4-.21.02-.02.05-.04.07-.07Zm.5-1.35s.05-.05.07-.07c.02-.02.03-.05.08-.02-.04,0-.06.01-.08.02-.02.02-.05.05-.07.07v.02s0-.01,0-.01Zm1.79.13l-.07-.07h0s.05.05.07.07h0Zm-2.55,1.15s-.02.04-.03.05c-.03,0-.04-.01-.02-.04.01-.02.03-.03.05-.01Zm1.63-1.59c-.04.05-.07.06-.1,0,.04-.04.07-.03.1,0Zm-.38.07s.02-.01.02-.01c.03,0,.03.02,0,.03,0,0-.01,0-.02-.01Z"/>
  <path class="cls-1" d="m74.07,20.13c-.31-.11-4.62-.19-5.05-.12.04.02-.02,0,0,.03,0,0,.01.02.02.02,1.63.14,3.26.03,4.89.12.03,0,.06-.03.14-.06Z"/>
  <path class="cls-1" d="m59.95,26.14c.64.13,5.05.24,5.47.13-.32-.09-.6-.08-.88-.1-.28-.02-.57,0-.86,0-1.1.01-2.19.02-3.29-.08-.14-.01-.29-.03-.45.05Z"/>
  <path class="cls-1" d="m69.09,19.45c.17.09,4.61.16,4.94.13,0-.11-.09-.07-.15-.08-.4-.07-.8-.05-1.2-.05-1.13-.01-2.26,0-3.4,0-.07,0-.13,0-.2.01Z"/>
  <path class="cls-1" d="m8.57,16.88c.21-.01.3-.13.32-.33,0-.1.01-.21,0-.31-.03-.3-.23-.47-.53-.46-.11,0-.22.02-.33.03-.11-.12.05-.28-.07-.39-.25.17-.3.52-.12,1,.09.06.17.03.24-.03.08-.08-.05-.16.02-.23.13-.09.22,0,.33.3q.09-.17.01-.42c.23.03.31.15.27.38-.03.16-.08.31-.13.46h0Z"/>
  <path class="cls-1" d="m74,19.83c-1.64-.1-3.28-.12-4.92-.09.26.12,4.4.21,4.92.09Z"/>
  <path class="cls-1" d="m65.34,26.58c-.21-.09-5.04-.18-5.31-.11,1.77.14,3.53.15,5.31.11Z"/>
  <path class="cls-1" d="m59.83,20.15c.1,0,.24.02.43.04-.14-.09-.26-.06-.35-.19,0-.5-.09-1.04.04-1.6.27-.05.54.02.88-.02-.32-.16-.6-.09-.9-.13-.05-.69.01-1.38,0-2.06-.14,0-.11.1-.11.15,0,.62,0,1.23-.01,1.85-.01.59.03,1.19-.04,1.78,0,.06,0,.11.06.18Z"/>
  <path class="cls-1" d="m60.65,24.17c-.25-.22-.55.01-.8-.2.26-.14.54.03.8-.11-.24-.19-.5-.03-.75-.13-.07-.21-.03-.42.04-.64.21-.13.46.03.69-.09-.23-.17-.51.02-.7-.11-.05-.15.11-.11.12-.19-.06-.05-.14-.06-.26-.07-.06.57-.04,1.14-.06,1.79.27-.34.59-.14.9-.25Z"/>
  <path class="cls-1" d="m75.96,25.32c0-.07-.07-.09-.12-.09-1.1.05-2.19-.1-3.29.03.26.13,3.1.15,3.41.05Z"/>
  <path class="cls-1" d="m60.02,25.29c.08.06.18.07.26.07,1.04.02,2.07.12,3.11.07.01,0,.02-.03.06-.08-1.07-.05-2.13-.09-3.18-.13-.08,0-.18,0-.25.07Z"/>
  <path class="cls-1" d="m63.43,25.63c-1.13-.03-2.27-.03-3.4-.07.36.15.74.09,1.11.14.37.04.75.03,1.13.03.39,0,.77,0,1.16,0,0-.04,0-.07,0-.11Z"/>
  <path class="cls-1" d="m8.5,16.95c-.14-.04-.28-.06-.43,0-.2.07-.4-.03-.51-.19-.22-.31-.37-.65-.25-1.05.03-.11.11-.23.03-.36-.1-.03-.12.05-.14.11-.18.55-.08,1.05.3,1.49.07.08.16.13.26.15.26.05.52.07.73-.14h0Z"/>
  <path class="cls-1" d="m.48,14.38c-.18-.26-.31-.46-.33-.72-.03-.27.03-.49.18-.7.07-.1.15-.2.23-.3.04-.06.08-.11.04-.18C.3,12.53,0,13.03,0,13.47c0,.52.13.83.48.91Z"/>
  <path class="cls-1" d="m67.43,17.5c-.27-.13-.56-.08-.84-.11-.42-.04-.84-.01-1.26-.01-.05,0-.12,0-.14.06,0,.04.04.06.07.06.66.04,1.32.06,1.98.04.07,0,.13-.03.2-.04h0Z"/>
  <path class="cls-1" d="m63.54,24.27c-.25-.12-1.23-.13-1.53-.02.15.17.32.05.47.07.18.03.36.02.54,0,.16,0,.33.05.51-.05Z"/>
  <path class="cls-1" d="m63.52,24.5c-.5-.1-.98-.02-1.46.04.42.12.85.05,1.28.07.06,0,.14,0,.18-.11Z"/>
  <path class="cls-1" d="m72.56,25c.25.11,1.07.12,1.34.02-.18-.12-1.12-.13-1.34-.02Z"/>
  <path class="cls-1" d="m60.02,26.9c-.16-.11-.24-.25-.24-.46-.06.1-.03.18-.03.25.02.27.09.33.36.34.32,0,.64,0,.96.01.08,0,.16.02.27-.06-.45-.12-.87-.02-1.31-.07Z"/>
  <path class="cls-1" d="m74.03,19c-.45-.16-.92-.09-1.38-.07.45.15.91.14,1.38.07Z"/>
  <path class="cls-1" d="m72.25,23.21c.39.15,1.31.2,1.68.13-.19-.14-.38-.07-.56-.1-.18-.03-.36-.03-.55-.04-.19,0-.38,0-.58,0Z"/>
  <path class="cls-1" d="m14.15,7.86c.42.25.84.08,1.25.05,0-.1-.03-.14-.08-.14-.39,0-.78.08-1.17.09Z"/>
  <path class="cls-1" d="m61.93,24.77c.04.06.1.1.17.11.45.03.9.01,1.36,0-.03-.13-.11-.11-.17-.11-.36-.03-.73.01-1.09-.04-.09-.01-.18.01-.27.04h0Z"/>
  <path class="cls-1" d="m.86,16.19c-.06.04-.11.07-.07.16.15.38.66.64,1.11.53-.1-.1-.26-.05-.35-.14h0c-.05-.01-.11-.02-.14-.07h0c-.06,0-.11-.03-.14-.07h0s-.05-.04-.07-.06h0s-.07-.02-.06-.07h0s-.05-.05-.07-.07h0c-.07-.01-.15-.02-.14-.13h0s-.04-.05-.06-.07h0Z"/>
  <path class="cls-1" d="m63.53,23.92c-.51-.05-.98-.03-1.45,0-.02.08.03.1.07.1.4.01.8.03,1.19.03.05,0,.12,0,.18-.12Z"/>
  <path class="cls-1" d="m73.89,23.6c-.43-.15-.86-.12-1.34-.09.24.14.79.19,1.34.09Z"/>
  <path class="cls-1" d="m70.4,20.32c-.49-.08-.94-.02-1.42-.05.28.17,1.12.2,1.42.05Z"/>
  <path class="cls-1" d="m8.87,7.8c-.05.6.29,1.08.75,1.06-.54-.51-.59-.57-.75-1.06Z"/>
  <path class="cls-1" d="m68.96,20.95c.46.05.9.05,1.36.03-.04-.14-.12-.11-.18-.11-.33-.02-.66,0-.99-.04-.07-.01-.13,0-.19.13Z"/>
  <path class="cls-1" d="m72.65,24.44c.42.09.84.09,1.25.05-.19-.12-.88-.14-1.25-.05Z"/>
  <path class="cls-1" d="m69.02,21.77c.41.01.82.11,1.28.04-.25-.13-.81-.15-1.28-.04Z"/>
  <path class="cls-1" d="m69.02,21.19c.42.09.85.07,1.28.03-.42-.12-.85-.07-1.28-.03Z"/>
  <path class="cls-1" d="m70.24,21.47c-.41-.07-.82-.06-1.28-.04.27.14.96.16,1.28.04Z"/>
  <path class="cls-1" d="m.46,10.84s-.09.08-.11.13c-.11.39-.14.78.02,1.17.02.04.04.08.14.1-.12-.47-.17-.93-.05-1.4h0Z"/>
  <path class="cls-1" d="m72.65,24.17c.41.07.82.07,1.32.04-.28-.12-.99-.14-1.32-.04Z"/>
  <path class="cls-1" d="m.62,14.44c-.14.36-.24.73-.28,1.12.1-.13.32-.95.28-1.12Z"/>
  <path class="cls-1" d="m12.06,2.12c-.33.07-.66.12-.96.44.41-.09.71-.21.96-.44Z"/>
  <path class="cls-1" d="m69.01,22.09h1.2c-.29-.13-.9-.16-1.2,0Z"/>
  <path class="cls-1" d="m21.63,21.76c-.29-.37-.61-.65-.85-.75.07.21.54.63.86.74h0Z"/>
  <path class="cls-1" d="m12.11,2.77c-.37.12-.79.08-1.15.27,0,.03.01.05.02.08.38-.09.77-.18,1.15-.27,0-.03-.01-.05-.02-.08Z"/>
  <path class="cls-1" d="m11.99,3.2c-.36-.09-.7-.08-1.01.17.33-.07.67-.13,1.01-.17Z"/>
  <path class="cls-1" d="m60.08,17.42c.23.06.46.17.76.05-.28-.16-.52-.09-.76-.05Z"/>
  <path class="cls-1" d="m60.76,17.14c-.22-.08-.45-.12-.7-.08.18.17.33.19.7.08Z"/>
  <path class="cls-1" d="m60.02,26.74c.38.02.76.05,1.19.07-.22-.12-.64-.16-1.19-.07Z"/>
  <path class="cls-1" d="m75.99,25.01c-.2-.12-.39-.09-.59-.06.09.2.28.22.59.06Z"/>
  <path class="cls-1" d="m11.2,2.76c.3-.03.6-.06.87-.22-.31-.01-.61.03-.87.22Z"/>
  <path class="cls-1" d="m60.62,23.58c-.2-.1-.41-.1-.61-.03.2.07.4.14.61.03Z"/>
  <path class="cls-1" d="m60,17.71c.27.14.51.09.78.1-.19-.14-.42-.17-.78-.1Z"/>
  <path class="cls-1" d="m75.96,24.72c-.23-.1-.28-.1-.56-.02.19.18.31.18.56.02Z"/>
  <path class="cls-1" d="m60.78,16.84c-.23-.11-.47-.09-.71-.03.23.11.47.1.71.03Z"/>
  <path class="cls-1" d="m60.01,16.25c.34.09.39.09.75.02-.23-.09-.33-.1-.75-.02Z"/>
  <path class="cls-1" d="m14.41,26.83c.47.19.71.11.96-.34h0s-.09.03-.12.06c-.23.26-.52.32-.85.28h0Z"/>
  <path class="cls-1" d="m60.07,18.94c.36.13.41.14.71.04-.25-.09-.48-.09-.71-.04Z"/>
  <path class="cls-1" d="m60.09,16.52c.22.1.45.08.67.04-.22-.1-.44-.11-.67-.04Z"/>
  <path class="cls-1" d="m16.4,25.39c0,.1-.15.11-.15.25.27-.17.57-.26.84-.39h0c-.13-.04-.26-.03-.38.05-.09.06-.19.12-.31.09h0Z"/>
  <path class="cls-1" d="m60.07,19.28c.2.06.41.09.61,0-.2-.07-.4-.09-.61,0Z"/>
  <path class="cls-1" d="m60.61,24.43c-.2-.08-.4-.08-.61,0,.2.08.4.09.61,0Z"/>
  <path class="cls-1" d="m14.49,8.16c.21.1.43.07.65.04-.21-.13-.42-.12-.65-.04Z"/>
  <path class="cls-1" d="m59.93,22.37c.2.22.44.12.67.09-.22-.1-.45-.05-.67-.08h0Z"/>
  <path class="cls-1" d="m60.12,18.02c.2.1.41.09.65.07-.2-.11-.26-.11-.65-.07Z"/>
  <path class="cls-1" d="m60.67,19.61c-.19-.06-.38-.05-.64-.01.26.14.45.09.64.01Z"/>
  <path class="cls-1" d="m60.07,23.29c.18.08.37.06.55-.01-.17-.09-.36-.07-.54-.04-.03,0-.03.03-.02.05Z"/>
  <path class="cls-1" d="m60.65,19.93c-.3-.09-.34-.09-.61,0,.23.05.42.04.61,0Z"/>
  <path class="cls-1" d="m10.63,18.87c-.03-.24-.21-.3-.4-.36.07.19.27.24.4.36h0Z"/>
  <path class="cls-1" d="m12.01,1.74c-.24.07-.41.17-.56.3.23-.03.3-.06.56-.3Z"/>
  <path class="cls-1" d="m10.33,8.73c-.13.04-.27.08-.43.13q.26.07.43-.13Z"/>
  <path class="cls-1" d="m60.75,18.68c-.09-.07-.18-.07-.3-.01.11.08.2.05.3.01Z"/>
  <path class="cls-1" d="m60.59,22.73c-.12-.08-.21-.07-.33,0,.12.04.2.06.33,0Z"/>
  <path class="cls-1" d="m9.01,6.63c.13-.16.01-.29,0-.42v.42Z"/>
  <path class="cls-1" d="m60.31,18.66c-.1-.06-.17-.05-.26-.01.1.08.16.07.26.01Z"/>
  <path class="cls-1" d="m15.38,26.49c.1-.03.22-.06.22-.23-.16.02-.19.12-.21.23h0Z"/>
  <path class="cls-1" d="m15.59,24.91c-.09.01-.2-.04-.3.08.13.06.22.02.29-.08h0Z"/>
  <path class="cls-1" d="m7.81,21.48s-.01-.11-.06-.15c-.09.1.02.11.07.14h0Z"/>
  <path class="cls-1" d="m15.93,25.81c.06.01.13.04.18-.05-.08-.04-.13.03-.19.05h0Z"/>
  <path class="cls-1" d="m61.84,26.76s.02.03.03.04c0,0,.02,0,.03,0,.02-.02.02-.04,0-.05-.02,0-.04,0-.06,0Z"/>
  <path class="cls-1" d="m13,26.27s.04-.05.02-.07c-.03-.05-.05-.01-.05.02,0,.02.01.04.02.05Z"/>
  <path class="cls-1" d="m15.92,25.8s-.09.07-.08.13c.07-.02.06-.08.08-.13h0Z"/>
  <path class="cls-1" d="m30.77,15.98s.02,0,.03,0c.02-.02.02-.04,0-.05,0,0-.02,0-.03,0-.02.02-.02.04,0,.05Z"/>
  <path class="cls-1" d="m7.8,10.32s0-.02,0-.02c0,0-.02,0-.03,0-.02.02-.01.03.01.04,0,0,.02,0,.02-.01Z"/>
  <path class="cls-1" d="m8.02,10.35s-.02,0-.02-.01c0,0-.01.02,0,.02.02.02.03.02.03-.01Z"/>
  <path class="cls-1" d="m15.93,25.6c.06-.05.03-.09,0-.14h0s0,.09,0,.14h0Z"/>
  <path class="cls-1" d="m8.57,16.88s-.05.05-.07.07h0s.05-.05.07-.07h0Z"/>
  <polygon class="cls-1" points="23.76 17.01 23.78 17.01 23.77 17.02 23.76 17.01"/>
  <path class="cls-1" d="m59.45,15.43c.28.07,6.5.16,7.09.09-.07-.1-.16-.09-.24-.08-.91.04-1.83.02-2.74-.02-1.05-.05-2.1,0-3.15-.04-.27-.01-.55,0-.82,0-.05,0-.12-.01-.14.06Z"/>
  <path class="cls-1" d="m77.86,15.18c-.01-.06-.06-.06-.11-.06-.28-.02-7.45-.04-7.55-.02.34.1,7.23.18,7.66.08Z"/>
  <path class="cls-1" d="m62.96,14.2c-.23.16-.5.13-.76.13-.38,0-.75.02-1.13.02-.18,0-.36-.06-.55-.05-.77.04-1.55-.01-2.32,0-.02,0-.03.03-.09.08,2.31,0,4.57.09,6.84.07-.04-.14-.12-.1-.18-.1-.51,0-1.03,0-1.54-.02-.1,0-.24.05-.26-.13h0Z"/>
  <path class="cls-1" d="m66.18,15.11c1.25.06,2.51.02,3.76.03-.21-.14-3.3-.1-3.76-.03Z"/>
  <path class="cls-1" d="m71.94,14.47c-1.58-.09-3.17-.12-4.76-.05,1.58.08,3.17,0,4.76.05Z"/>
  <path class="cls-1" d="m60.53,15.07c1.23-.03,2.45.15,3.68.01-.23-.07-3.16-.09-3.68-.01Z"/>
  <path class="cls-1" d="m72.9,14.47c-.21-.08-.42-.04-.64,0,.21.08.42.06.64,0Z"/>
  <path class="cls-1" d="m65.39,15.05c-.06,0-.13-.01-.19-.01-.23,0-.45,0-.71,0,.23.1.23.1.46.07.14-.02.29-.02.44-.02,0,0,0-.02,0-.03Z"/>
  <path class="cls-1" d="m65.24,14.42c.11.03.22.06.36-.01-.15-.06-.25-.04-.36.01Z"/>
  <path class="cls-1" d="m59.73,15.03c-.09-.05-.15-.07-.23,0,.07.06.13.06.23,0Z"/>
  <path class="cls-1" d="m66.06,14.41c-.08-.05-.13-.07-.16,0,.04.06.09.05.16,0Z"/>
  <path class="cls-1" d="m60.16,15.04s.07.03.11.01c-.03-.07-.07-.06-.11-.01Z"/>
  <path class="cls-1" d="m66.82,14.45s.04-.01.05-.02c-.01-.01-.03-.03-.04-.04,0,0-.02,0-.03.01-.02.02-.01.04.01.05Z"/>
  <path class="cls-1" d="m66.32,14.44s.01-.02,0-.03c0,0-.02,0-.03-.01,0,0-.01.02,0,.03,0,0,.02,0,.03.01Z"/>
  <path class="cls-1" d="m62.21,19.97c1.64.06,3.29.12,4.93.17.04,0,.09-.02.12-.11-1.69-.16-3.37-.08-5.04-.18,0,.04,0,.08,0,.12Z"/>
  <path class="cls-1" d="m62.16,19.59c.02.07.07.09.11.09,1.64.05,3.28.1,4.95.15-.05-.13-.14-.1-.21-.11-.79-.09-1.58-.08-2.36-.09-.8,0-1.6-.05-2.4-.1-.03,0-.07.01-.09.06Z"/>
  <path class="cls-1" d="m62.14,22.84c1.64.12,3.28.08,4.92.18.04,0,.09-.02.1-.08-.02-.06-.06-.06-.11-.06-1.63-.05-3.26-.09-4.89-.13,0,.03,0,.06,0,.09Z"/>
  <path class="cls-1" d="m63.86,19.35c.42.11,3.11.2,3.35.12-.23-.08-2.99-.2-3.35-.12Z"/>
  <path class="cls-1" d="m67.2,21.84c-.49-.16-.98-.13-1.48-.07.49.14.99.02,1.48.07Z"/>
  <path class="cls-1" d="m62.08,23.4c.47.1.95.07,1.42.06,0-.03,0-.06,0-.09-.47-.02-.95-.04-1.42-.06,0,.03,0,.06,0,.09Z"/>
  <path class="cls-1" d="m62.14,19.34c.34.1,1.14.1,1.43.02-.23-.08-1.04-.1-1.43-.02Z"/>
  <path class="cls-1" d="m67.22,20.97c-.48-.13-.97-.07-1.45-.1.47.17.97.11,1.45.1Z"/>
  <path class="cls-1" d="m65.78,21.47c.47.09.95.09,1.43.07-.47-.14-.95-.1-1.43-.07Z"/>
  <path class="cls-1" d="m67.15,22.09c-.47-.08-.94-.12-1.42-.05.47.06.94.15,1.42.05Z"/>
  <path class="cls-1" d="m67.18,21.24c-.46-.07-.93-.1-1.4-.04.46.08.93.08,1.4.04Z"/>
  <path class="cls-1" d="m28.23,15.78c.03-.16.08-.32.02-.5-.18.28-.18.33-.01.49h0Z"/>
  <path class="cls-1" d="m25.77,15.34c-.07.06-.06.11,0,.17.07-.04.07-.09,0-.17Z"/>
  <path class="cls-1" d="m41.09,12.78s.04-.02.03-.04c0,0-.02-.02-.02-.02-.03,0-.04.02-.03.04,0,0,.02.01.02.02Z"/>
  <path class="cls-1" d="m69.01,25.27c.68.12,1.29.06,1.94.09-.2-.16-.2-.17-.96-.15-.3,0-.61-.06-.98.06Z"/>
  <path class="cls-1" d="m70.9,25.05c-.17-.09-.27-.08-.37-.07-.48.02-.97-.01-1.48-.02.17.14.17.15.88.13.3,0,.61.03.97-.04Z"/>
  <path class="cls-1" d="m71.02,26.9c-.07-.05-.11-.05-.15-.02.02.11.07.08.15.02Z"/>
  <path class="cls-1" d="m23.06,14.3s-.02-.01-.02,0c-.03,0-.03.02,0,.04,0,0,.02,0,.03,0,0,0,0-.02,0-.02Z"/>
  <path class="cls-1" d="m23.37,14.25s.02,0,.03,0c.02-.02.02-.03-.01-.04,0,0-.02,0-.02.02,0,0,0,.02,0,.02Z"/>
  <path class="cls-1" d="m63.69,17.9c-.51-.09-.96-.03-1.46-.04.27.14,1.1.16,1.46.04Z"/>
  <path class="cls-1" d="m62.28,17.64c.45.07.9.06,1.4.05-.23-.12-.99-.16-1.4-.05Z"/>
  <path class="cls-1" d="m62.28,17.12h1.38c-.23-.12-.89-.14-1.38,0Z"/>
  <path class="cls-1" d="m62.28,17.36c.45.08.9.06,1.41.06-.27-.15-.94-.17-1.41-.06Z"/>
  <path class="cls-1" d="m63.62,16.82c-.44-.1-.88-.07-1.33-.03.44.08.88.08,1.33.03Z"/>
  <path class="cls-1" d="m62.35,16.31h1.27c-.42-.13-.85-.11-1.28-.09,0,.03,0,.06,0,.09Z"/>
  <path class="cls-1" d="m67.32,16.37c-.24-.1-1.79-.16-2.15-.08.71.13,1.43.09,2.15.08Z"/>
  <path class="cls-1" d="m71.06,16.4c-.66-.05-1.31-.18-2-.1.18.12.18.12.64.13.23,0,.45.02.68.02.22,0,.45.04.68-.04Z"/>
  <path class="cls-1" d="m69.07,16.62c.63.1,1.27.1,1.91.09.04-.11-.04-.1-.09-.1-.46-.02-.91-.1-1.37-.02-.15.03-.31-.05-.46.03Z"/>
  <path class="cls-1" d="m69.08,16.92c.63.02,1.27.08,1.9.03-.28-.1-1.63-.14-1.9-.03Z"/>
  <path class="cls-1" d="m65,25.41c.04.07.11.08.18.08.63,0,1.27,0,1.95,0-.41-.18-1.85-.22-2.13-.08Z"/>
  <path class="cls-1" d="m65.01,25.13c.69.09,1.38.03,2.12.11-.17-.17-.17-.18-1.06-.18-.35,0-.71-.11-1.05.08Z"/>
  <path class="cls-1" d="m76.12,20.04c-.07-.06-.13-.07-.19-.07-.13,0-.27.01-.43.02.27.16.31.16.62.04Z"/>
  <path class="cls-1" d="m68.96,26.62q.3.09.6.04c-.17-.12-.2-.13-.6-.04Z"/>
  <path class="cls-1" d="m7.55,19.14c-.01-.4-.1-.78-.35-1.12-.41-.55-.91-.94-1.61-1.06-.86-.15-1.56.44-1.75.96-.04.11-.07.22-.06.33.02.26.15.39.41.4.19,0,.36.06.54.1.48.11.8.4,1.06.8.12.18.25.36.39.52.2.23.49.28.74.12.39-.24.65-.58.64-1.06Zm-3.58-.75c-.08-.22-.02-.39.14-.53.13-.12.24-.25.37-.36.41-.34.87-.44,1.38-.26.76.27,1.23.81,1.47,1.56.17.53-.05,1.05-.54,1.34-.13,0-.27,0-.39-.05-.22-.2-.36-.45-.52-.69-.37-.57-.9-.85-1.56-.91-.11,0-.23,0-.34-.1Z"/>
  <path class="cls-1" d="m3.9,17.29c-.1.02-.15.08-.17.21.13-.03.16-.12.17-.21h0Z"/>
  <path class="cls-1" d="m3.51,18.42s-.02.06,0,.08c.03-.03.04-.06,0-.08Z"/>
  <path class="cls-1" d="m19.23,21.13c.01.05,0,.11.07.16.09-.04.12-.11.11-.21-.08-.06-.12.04-.18.05h0Z"/>
  <path class="cls-1" d="m17.84,18.23s.04-.03.03-.04c0-.01-.04,0-.06,0,0,0-.02.02-.02.02,0,.02.02.03.05.02Z"/>
  <path class="cls-1" d="m15.86,14.89s-.05.05-.07.07c-.02.03-.04.05-.06.08-.02.03-.04.05-.06.08-.02.02-.04.05-.07.07-.13.25-.38.38-.56.59-.08.09-.2.15-.26.32.54-.33.93-.77,1.33-1.19.41-.42.88-.76,1.23-1.24-.08-.08-.13-.02-.19-.01-.03.05-.09.06-.14.07-.02.02-.05.05-.07.07-.01.08-.06.12-.14.14-.02.02-.04.05-.06.07-.02.11-.1.17-.2.22-.02.02-.05.04-.07.06-.02.02-.05.04-.07.06-.01.07-.06.12-.11.16-.02.02-.04.05-.07.07-.05.05-.1.1-.17.11-.02.02-.05.05-.07.07-.02.02-.05.05-.07.07-.02.02-.05.05-.07.07Z"/>
  <path class="cls-1" d="m12.7,14.47s-.05-.04-.07-.07c-.16-.03-.28-.15-.4-.26-.1-.09-.19-.22-.38-.24.03.17.16.25.25.33.57.47,1.14.94,1.72,1.41.1.08.21.13.32.2h0c-.11-.13-.23-.27-.34-.41-.02-.02-.05-.04-.07-.07-.03-.01-.06-.03-.09-.04-.17-.13-.35-.25-.46-.44-.21-.08-.36-.22-.48-.41Z"/>
  <path class="cls-1" d="m14.14,15.85h0s0,0,0,0Z"/>
  <path class="cls-1" d="m14.46,8.85c-.15.17-.16.32-.15.49.25-.08.27-.14.15-.49Z"/>
  <path class="cls-1" d="m14.14,9.19c0,.06-.03.13.04.2.04-.09.02-.15-.05-.2h0Z"/>
  <path class="cls-1" d="m16.61,20.71s.02-.02.04-.02c-.01,0-.02,0-.03,0-.03,0-.04,0-.03.02,0,0,.02,0,.03,0Z"/>
  <path class="cls-1" d="m24.11,8.98c.13-.04.12-.15.11-.25-.02-.38-.02-.77.11-1.17-.17.05-.18.17-.19.27-.02.19-.02.39-.02.58,0,.19,0,.39,0,.58h0Z"/>
  <path class="cls-1" d="m15.58,1.15s-.05-.05-.07-.07c-.14-.05-.28-.1-.42-.15-.15-.05-.31-.07-.53.07.39.06.71.16,1.03.27.03.01.08-.03.12-.05-.05-.02-.09-.05-.14-.07Z"/>
  <path class="cls-1" d="m18.05,8.88c.01.08.05.1.1.11.03-.07-.02-.09-.1-.11Z"/>
  <path class="cls-1" d="m18.06,9.19s.03.03.05.04c.02-.06-.03-.03-.05-.04h0Z"/>
  <polygon class="cls-1" points="18.06 9.19 18.05 9.18 18.06 9.19 18.06 9.19"/>
  <path class="cls-1" d="m5.57,7.91s-.04.05-.06.07c-.29.32-.69.33-1.07.34-.25.01-.47.03-.64.25-.07.09-.11.18-.09.28.04.27.1.53.31.74.25.26.52.47.86.6.05.02.1.07.17,0-.1-.13-.3-.17-.37-.33-.05-.02-.09-.05-.14-.07-.03-.02-.05-.04-.08-.06-.02-.02-.04-.05-.06-.07-.02-.02-.04-.05-.07-.07-.02-.02-.05-.04-.07-.06-.21-.05-.29-.22-.33-.4-.03-.16-.14-.34.08-.55-.07.4.08.68.26.94.02.02.04.05.07.07.02.02.05.04.07.07.02.02.05.04.07.06.02.03.04.05.06.08.05.02.09.05.14.07.09,0,.18.03.26.07.51.24,1,.13,1.49-.1.61-.29.98-.81,1.31-1.37.14-.24.13-.5.08-.75-.06-.07-.09-.01-.15.01-.08-.17-.15-.34-.26-.5-.09-.13-.2-.24-.34-.26-.14-.02-.22-.1-.3-.22-.27.09-.49.23-.65.47-.07.11-.13.25-.26.32,0,.14-.06.24-.21.27l-.04.09Zm1.97.6c0-.14.03-.27.12-.46.03.23,0,.36-.13.46h-.01s.01,0,.01,0Zm-3.29.17c.14-.13.3-.09.44-.1.66-.05,1.14-.36,1.43-.96.06-.13.13-.27.24-.37.07-.06.14-.11.24-.12.42-.03.78.29.8.71.02.44-.14.82-.39,1.17-.49.71-1.34.98-2.14.67-.41-.16-.66-.55-.62-1Z"/>
  <path class="cls-1" d="m6.09,10.22h-.86c.29.16.58.17.86,0h0Z"/>
  <path class="cls-1" d="m7.72,7.52c-.01-.2-.06-.31-.19-.46.01.2.06.31.19.46Z"/>
  <path class="cls-1" d="m6.09,10.22c.17-.01.31-.07.42-.21q-.14.02-.41.21h0Z"/>
  <path class="cls-1" d="m6.96,9.66c-.11.05-.19.12-.26.21.15-.05.15-.05.26-.21Z"/>
</svg>