<?xml version="1.0" encoding="UTF-8"?>
<svg id="Ebene_1" data-name="Ebene 1" xmlns="http://www.w3.org/2000/svg" viewBox="0 0 460 451">
  <defs>
    <style>
      .cls-1 {
        fill: #fff;
      }

      .cls-2 {
        fill: #ad9862;
      }
    </style>
  </defs>
  <path class="cls-2" d="m32.03,206.01l23.48,207.99,212.28,36.29,192.21-150.73-20.74-184.36-360.68-19.28L0,0l32.03,206.01Z"/>
  <g>
    <path class="cls-1" d="m110.32,159.73c4.18,0,9.77.6,12.83,1.04l2.98,8.95-.82.15c-2.69-4.92-8.06-9.1-16.49-9.1-11.94,0-19.4,12.61-19.4,25.89,0,18.05,10.59,26.11,20.29,26.11,8.06,0,15.44-5.6,15.44-15.74s-2.76-12.16-11.34-12.91l-7.16-.6v-1.04h23.72v18.28c-4.18,8.8-12.46,13.28-21.04,13.28-12.83,0-26.26-9.7-26.26-27.38,0-16.04,11.94-26.93,27.23-26.93Z"/>
    <path class="cls-1" d="m141.06,207.1v-40.43c0-3.51-1.04-5-3.58-5v-.9h12.53v.9c-2.54,0-3.58,1.49-3.58,5v40.43c0,3.51,1.04,5,3.58,5v.9h-12.53v-.9c2.54,0,3.58-1.49,3.58-5Z"/>
    <path class="cls-1" d="m156.8,160.78h16.79c14.47,0,20.37,6.42,20.37,12.68,0,4.25-2.61,8.43-7.31,10.44,9.62,2.09,14.02,7.98,14.02,13.95,0,7.53-7.31,15.07-23.35,15.07h-7.01c-2.39,0-3.88-.37-5.37-1.49l-2.39-1.87c-1.72-1.34-2.16-2.69-2.16-5.97v-36.93c0-3.51-1.04-5-3.58-5v-.9Zm15.37,24.62c11.94,0,15.82-5.45,15.82-11.79s-3.88-11.79-14.4-11.79h-4.25c-2.54,0-3.58,1.34-3.58,4.85v18.72h6.42Zm-1.86,26.48h7.01c11.41,0,17.01-6.56,17.01-14.1,0-5.89-3.66-11.19-8.65-13.2-3.21,1.27-7.09,1.87-11.34,1.87h-8.58v19.77c0,4.18,1.57,5.67,4.55,5.67Z"/>
    <path class="cls-1" d="m125.84,281.12v.9h-12.53v-.9c2.54,0,3.58-1.49,3.58-5v-40.43c0-3.51-1.04-5-3.58-5v-.89h35.58l2.98,8.95-.82.15c-2.69-4.92-8.06-8.06-15.74-8.06h-9.47c-2.54,0-3.58,1.34-3.58,4.85v14.47c0,3.73,1.79,4.4,5.89,4.77l15.22,1.34v.9l-21.11.6v18.35c0,3.51,1.04,5,3.58,5Z"/>
    <path class="cls-1" d="m195.07,238.75l-.82.15c-2.69-4.92-8.06-8.06-15.74-8.06h-10.52c-2.54,0-3.58,1.34-3.58,4.85v13.73c0,3.73,1.79,4.4,5.89,4.77l16.26,1.34v.9l-22.16.6v16.04c0,5.67,2.24,7.91,8.06,7.91h8.21c10.22,0,14.32-3.13,17.31-11.64l.9.15-2.39,12.53h-27.53c-2.46,0-3.95-.37-5.37-1.49l-2.39-1.87c-1.72-1.34-2.16-2.69-2.16-5.97v-37c0-3.51-1.04-5-3.58-5v-.89h36.63l2.98,8.95Z"/>
    <path class="cls-1" d="m207.68,276.12v-40.43c0-3.51-1.04-5-3.58-5v-.89h12.53v.89c-2.54,0-3.58,1.49-3.58,5v40.43c0,3.51,1.04,5,3.58,5v.9h-12.53v-.9c2.54,0,3.58-1.49,3.58-5Z"/>
    <path class="cls-1" d="m226.63,276.12v-40.43c0-3.51-1.04-5-3.58-5v-.89h7.54l34.09,45.58c.6.75,1.19.67,1.19-.22v-39.46c0-3.51-1.04-5-3.58-5v-.89h8.5v.89c-2.54,0-3.58,1.49-3.58,5v46.33h-4.1l-33.94-45.06c-.6-.75-1.19.07-1.19.97v38.2c0,3.51,1.04,5,3.58,5v.9h-8.5v-.9c2.54,0,3.58-1.49,3.58-5Z"/>
    <path class="cls-1" d="m133.37,341.78l16.79-44.01h2.16l20.96,49.31c.9,2.16,2.54,3.06,4.55,3.06v.9h-12.83v-.9c2.39,0,3.21-1.49,1.94-4.55l-4.92-11.94-24.39.37-3.21,8.36c-2.76,7.24,1.34,7.76,3.58,7.76v.9h-12.76v-.9c2.91,0,5.37-1.12,8.13-8.35Zm11.56-10.89l16.64,1.72-11.26-27.16c-.52-1.34-1.27-1.34-1.79,0l-8.36,21.93c-.97,2.54,1.04,3.13,4.77,3.51Z"/>
    <path class="cls-1" d="m205.44,297.77c4.18,0,9.77.6,12.83,1.04l2.98,8.95-.82.15c-3.28-5.97-9.25-9.1-15.44-9.1-10,0-20.44,8.21-20.44,26.11,0,16.64,10,24.25,20.07,24.25,8.65,0,17.38-5.74,19.55-16.34l1.12.15c-2.46,13.06-11.79,19.02-21.48,19.02-12.46,0-25.59-9.92-25.59-27.3,0-16.04,11.94-26.93,27.23-26.93Z"/>
    <path class="cls-1" d="m268.18,345.14v-21.11l.97.07v.9l-30.81,1.12v19.02c0,3.51,1.04,5,3.58,5v.9h-12.53v-.9c2.54,0,3.58-1.49,3.58-5v-40.43c0-3.51-1.04-5-3.58-5v-.89h12.53v.89c-2.54,0-3.58,1.49-3.58,5v13.5c0,3.73,1.79,4.62,5.89,4.77l23.95,1.04v-19.32c0-3.51-1.04-5-3.58-5v-.89h12.53v.89c-2.54,0-3.58,1.49-3.58,5v40.43c0,3.51,1.04,5,3.58,5v.9h-12.53v-.9c2.54,0,3.58-1.49,3.58-5Z"/>
    <path class="cls-1" d="m300.86,345.14v-45.28h-3.43c-7.68,0-13.06,3.13-15.74,8.06l-.82-.15,2.98-8.95h39.39l2.98,8.95-.82.15c-2.69-4.92-8.06-8.06-15.74-8.06h-3.43v45.28c0,3.51,1.04,5,3.58,5v.9h-12.53v-.9c2.54,0,3.58-1.49,3.58-5Z"/>
    <path class="cls-1" d="m336.53,344.39c2.09,0,3.88,1.79,3.88,3.88s-1.79,3.95-3.88,3.95-3.95-1.79-3.95-3.95,1.79-3.88,3.95-3.88Zm3.36-45.58l-2.83,36.93h-1.04l-2.83-36.93h6.71Z"/>
  </g>
</svg>