<?xml version="1.0" encoding="utf-8"?>
<svg width="494" height="437" viewBox="0 0 494 437" fill="none" xmlns="http://www.w3.org/2000/svg">
  <path d="M79 327.5L0 189.5L89.5 0L493.5 150.567L444.283 384.093L133.8 335.625L142.746 436.5L79 327.5Z" fill="#FF002D"/>
  <g transform="matrix(1, 0, 0, 1, 5.099471, -6.858947)">
    <path class="st1" d="M78.4,142.8l16.8-44h2.2l21,49.3c0.9,2.2,2.5,3.1,4.6,3.1v0.9h-12.8v-0.9c2.4,0,3.2-1.5,1.9-4.6l-4.9-11.9 L82.7,135l-3.2,8.4c-2.8,7.2,1.3,7.8,3.6,7.8v0.9H70.3v-0.9C73.2,151.1,75.7,150,78.4,142.8z M90,131.9l16.6,1.7l-11.3-27.2 c-0.5-1.3-1.3-1.3-1.8,0l-8.4,21.9C84.3,130.9,86.3,131.5,90,131.9z" style="fill: rgb(255, 255, 255);"/>
    <path class="st1" d="M123.7,99.8h16.8c14.5,0,20.4,6.4,20.4,12.7c0,4.3-2.6,8.4-7.3,10.4c9.6,2.1,14,8,14,14 c0,7.5-7.3,15.1-23.4,15.1h-7c-2.4,0-3.9-0.4-5.4-1.5l-2.4-1.9c-1.7-1.3-2.2-2.7-2.2-6v-36.9c0-3.5-1-5-3.6-5V99.8z M139,124.4 c11.9,0,15.8-5.4,15.8-11.8c0-6.3-3.9-11.8-14.4-11.8h-4.3c-2.5,0-3.6,1.3-3.6,4.8v18.7H139z M137.2,150.9h7c11.4,0,17-6.6,17-14.1 c0-5.9-3.7-11.2-8.7-13.2c-3.2,1.3-7.1,1.9-11.3,1.9h-8.6v19.8C132.6,149.4,134.2,150.9,137.2,150.9z" style="fill: rgb(255, 255, 255);"/>
    <path class="st1" d="M154.2,207.1l3.3-4.9L139.1,176c-0.5-0.7-1.2-0.7-1.2,0.2v38.9c0,3.5,1,5,3.6,5v0.9H133v-0.9 c2.5,0,3.6-1.5,3.6-5v-40.4c0-3.5-1-5-3.6-5v-0.9h8.1l19.6,28.6l19.1-28.6h8.4v0.9c-2.5,0-3.6,1.5-3.6,5v40.4c0,3.5,1,5,3.6,5v0.9 h-12.5v-0.9c2.5,0,3.6-1.5,3.6-5v-38.9c0-0.9-0.6-1-1.2-0.2l-22.9,31.6L154.2,207.1z" style="fill: rgb(255, 255, 255);"/>
    <path class="st1" d="M198.5,215.2v-40.4c0-3.5-1-5-3.6-5v-0.9h12.5v0.9c-2.5,0-3.6,1.5-3.6,5v40.4c0,3.5,1,5,3.6,5v0.9h-12.5v-0.9 C197.4,220.2,198.5,218.7,198.5,215.2z" style="fill: rgb(255, 255, 255);"/>
    <path class="st1" d="M232,215.2v-45.3h-3.4c-7.7,0-13.1,3.1-15.7,8.1l-0.8-0.1l3-9h39.4l3,9l-0.8,0.1c-2.7-4.9-8.1-8.1-15.7-8.1 h-3.4v45.3c0,3.5,1,5,3.6,5v0.9h-12.5v-0.9C230.9,220.2,232,218.7,232,215.2z" style="fill: rgb(255, 255, 255);"/>
    <path class="st1" d="M276,168.8h22.8c13.8,0,25.8,11,25.8,26c0,15.1-12,26.3-25.8,26.3h-9.3c-2.5,0-4-0.4-5.4-1.5l-2.4-1.9 c-1.7-1.3-2.2-2.7-2.2-6v-37c0-3.5-1-5-3.6-5V168.8z M290.8,220h8c11.9,0,19.2-12.6,19.2-25.2c0-12.5-7.3-24.9-19.2-24.9h-10.2 c-2.5,0-3.6,1.3-3.6,4.8v39.6C285,218.5,286.4,220,290.8,220z" style="fill: rgb(255, 255, 255);"/>
    <path class="st1" d="M369.6,177.8l-0.8,0.1c-2.7-4.9-8.1-8.1-15.7-8.1h-10.5c-2.5,0-3.6,1.3-3.6,4.8v13.7c0,3.7,1.8,4.4,5.9,4.8 l16.3,1.3v0.9l-22.2,0.6v16c0,5.7,2.2,7.9,8.1,7.9h8.2c10.2,0,14.3-3.1,17.3-11.6l0.9,0.1L371,221h-27.5c-2.5,0-4-0.4-5.4-1.5 l-2.4-1.9c-1.7-1.3-2.2-2.7-2.2-6v-37c0-3.5-1-5-3.6-5v-0.9h36.6L369.6,177.8z" style="fill: rgb(255, 255, 255);"/>
    <path class="st1" d="M399.1,207.1l3.3-4.9L384,176c-0.5-0.7-1.2-0.7-1.2,0.2v38.9c0,3.5,1,5,3.6,5v0.9h-8.5v-0.9 c2.5,0,3.6-1.5,3.6-5v-40.4c0-3.5-1-5-3.6-5v-0.9h8.1l19.6,28.6l19.1-28.6h8.4v0.9c-2.5,0-3.6,1.5-3.6,5v40.4c0,3.5,1,5,3.6,5v0.9 h-12.5v-0.9c2.5,0,3.6-1.5,3.6-5v-38.9c0-0.9-0.6-1-1.2-0.2L400,207.6L399.1,207.1z" style="fill: rgb(255, 255, 255);"/>
    <path class="st1" d="M162.9,290.1h-12.2l-16.5-27.8l-7.2,6.9v15c0,3.5,1,5,3.6,5v0.9h-12.5v-0.9c2.5,0,3.6-1.5,3.6-5v-40.4 c0-3.5-1-5-3.6-5v-0.9h12.5v0.9c-2.5,0-3.6,1.5-3.6,5v23.8l19.5-18.8c4.7-4.6,6.3-9.8-1.6-9.8h-2.2v-1h15.9v1l-21.9,21l16.5,22.7 c3.9,5.3,6.1,6.5,9.7,6.6V290.1z" style="fill: rgb(255, 255, 255);"/>
    <path class="st1" d="M211.4,263.7c0,16-11.9,27.4-25.7,27.4c-13.8,0-25.7-11.3-25.7-27.4s11.9-26.9,25.7-26.9 C199.5,236.8,211.4,247.7,211.4,263.7z M166.3,264c0,13.6,7.5,26.1,19.4,26.1S205,277.5,205,264c0-13.5-7.5-26.1-19.4-26.1 S166.3,250.5,166.3,264z" style="fill: rgb(255, 255, 255);"/>
    <path class="st1" d="M220.6,284.2v-37c0-3.3,0.4-4.6,2.2-6l2.4-1.9c1.4-1.1,2.9-1.5,5.4-1.5h8.5c13.1,0,19.6,7.8,19.6,15.7 c0,7.8-6.5,15.7-21.1,15.7h-11.6v15c0,3.5,1,5,3.6,5v0.9H217v-0.9C219.5,289.2,220.6,287.7,220.6,284.2z M235.3,268.1 c12.6,0,17.1-7.2,17.1-14.5c0-7.3-4.6-14.7-13.4-14.7h-5c-5.8,0-8.1,2.2-8.1,7.9v21.3H235.3z" style="fill: rgb(255, 255, 255);"/>
    <path class="st1" d="M276.1,289.2v0.9h-12.5v-0.9c2.5,0,3.6-1.5,3.6-5v-40.4c0-3.5-1-5-3.6-5v-0.9h35.6l3,9l-0.8,0.1 c-2.7-4.9-8.1-8.1-15.7-8.1h-9.5c-2.5,0-3.6,1.3-3.6,4.8v14.5c0,3.7,1.8,4.4,5.9,4.8l15.2,1.3v0.9l-21.1,0.6v18.4 C272.5,287.7,273.5,289.2,276.1,289.2z" style="fill: rgb(255, 255, 255);"/>
    <path class="st1" d="M312.3,283.4c2.1,0,3.9,1.8,3.9,3.9c0,2.2-1.8,4-3.9,4c-2.2,0-4-1.8-4-4C308.3,285.2,310.1,283.4,312.3,283.4z M315.6,237.8l-2.8,36.9h-1l-2.8-36.9H315.6z" style="fill: rgb(255, 255, 255);"/>
  </g>
</svg>